<?xml version="1.0" encoding="UTF-8"?>
<svg id="Layer_1" data-name="Layer 1" xmlns="http://www.w3.org/2000/svg" viewBox="0 0 266.22 104.39">
  <defs>
    <style>
      .cls-1 {
        fill: #fff;
      }
    </style>
  </defs>
  <path class="cls-1" d="m104.86.11c-1.4.1-4.6.3-7.2.5-4,.3-4.8.6-4.8,2.3,0,3.5-1.2,6.5-2.3,5.8-.5-.3-.7-.1-.4.4.8,1.3-6.1,8.5-7.4,7.8-.5-.4-.9.1-.9,1,0,1-.5,1.3-1.2.9-2.1-1.3-8.3-.9-9.5.6-1.1,1.3-1.2,1.3-1.3-.2,0-1.5-1.9-1.7-18.9-1.6-10.4,0-19.4-.3-20-.6-.5-.4-1.4.2-2,1.1-.8,1.4-1,1.5-1.1.3,0-1.1-1.2-1.5-4.5-1.5-2.5,0-4.5.3-4.5.6,0,.3-2.2.4-4.9.1-4.2-.4-5.1-.1-6,1.7-.7,1.1-2,2.1-3.1,2.1-1.3,0-2.1,1-2.5,3.2-.4,1.8-1.2,3.9-1.7,4.5-.8,1-.6,1.3.6,1.3.9,0,1.6.4,1.6,1,0,.5-.8,1-1.8,1-1.3,0-1.4.2-.3.9.7.5,1.4,2.3,1.6,4.1.1,1.8.8,3.6,1.6,4.1,1,.6,1.1.9.1.9-.9,0-1,.8-.5,2.7.3,1.6.6,3.6.5,4.5,0,1,.3,1.8.7,1.8s.6,2.5.4,5.5c-.2,5.1.8,7.3,2,4.2.3-.6.6.4.6,2.4.1,2.6.8,4.1,2.5,5.5,1.4,1,2.3,2.1,2.1,2.4-.7,1.2,4,.9,4.7-.3.6-.9,1-.9,1.7.2.6,1,1,1,1.6.1.4-.7,2.3-1.8,4.1-2.6,1.9-.8,3.4-2.1,3.4-2.9,0-.9.6-1.2,1.5-.9.9.4,1.5,0,1.5-.8s1.6-2,3.5-2.8,3.5-1.7,3.5-2.1,1.7-1.8,3.7-3c2.1-1.3,4.7-3.4,5.9-4.6,1.2-1.3,2.3-2.1,2.5-1.8.3.2,3.1-1.6,6.2-4,4.6-3.6,6.4-4.5,9.7-4.5,3.1,0,4-.4,4-1.8.1-1.6.2-1.6,1.4.1,1.4,1.8,1.4,1.7,2.1-.2.8-2.7,3-2.7,4.9.1,1.3,1.8,1.6,1.9,1.6.5,0-.9.4-1.7,1-1.7.5,0,1,.7,1,1.5s.8,1.5,1.7,1.6c1.6,0,1.5.1-.1.8-1.8.7-1.6.9,1.2,1.9,1.9.7,3.2,1.8,3.3,2.9,0,1,.2,2.6.4,3.5.2,1-.2,2.1-.8,2.5-1.4.9-5,7.7-5.3,10-.1.8-1,2.3-1.8,3.2-2,2.2-2.1,5.7-.1,6.5.8.3,1.5,1.2,1.5,2.1,0,.8.6,1.5,1.4,1.5s2.1.7,3,1.5c.8.8,2.3,1.6,3.3,1.8s2.7.8,3.9,1.5c1.8,1,2.5.7,5-1.9,1.6-1.7,2.9-3.8,3-4.7.4-6.5.5-6.8,1.4-4.7.5,1.2.9,1.4.9.6.1-2.5,4.5-8.1,6.3-8.1.9,0,1.9-.6,2.2-1.3.5-1,.7-1,1.2,0,.3.8,2.4,1.3,5,1.3,2.8,0,4.4-.5,4.5-1.3,0-1,.2-1,.6,0,.2.7,1.7,1.4,3.1,1.4,1.7.1,2.1.3.9.6-1.8.5-2.4,2.3-.7,2.3.5,0,1,1.5,1,3.3s.5,3.8,1.2,4.5c.9.9.9,1.2,0,1.2-1,0-1.1,2.4-.8,9.7.3,5.4.6,10,.7,10.3s0,1.5-.1,2.8c-.3,3.7,3,6.7,7.8,7.1,8.3.5,11.6-1.3,12.7-7,.2-1-.1-1.9-.7-1.9-.7,0-.7-.4,0-1.3,1-1.1.8-6.1-.3-9.5-.2-.6-.1-1.2.3-1.2,1.1,0,.8-8.4-.3-9.3-.7-.4-.6-1,.1-1.5,1.2-.8,1.2-7.1,0-9-.4-.7-.2-1.2.3-1.2.6,0,1.1-.9,1.1-1.9,0-1.1.9-2.2,1.9-2.6,1-.3,2.2-1.6,2.5-2.8.5-1.8.8-2,1.6-.7.8,1.2,1,1,1.1-1,.1-1.4.1-3.5,0-4.8-.1-1.2.3-2.2.8-2.2s1.1-.7,1.3-1.6c.3-1.4.7-1.3,2.9.5,1.5,1.1,2.9,1.7,3.3,1.4.3-.3.6.2.6,1.3,0,2.2,7.3,8.7,10,8.9,1.1.1,3.2-1.1,4.7-2.7,1.5-1.5,3.3-2.8,4-2.8s1.3-.6,1.3-1.3c0-1.2,5.4-4.2,7.7-4.2.7,0,1.9-.9,2.7-2,.9-1.1,1.6-1.4,1.6-.8,0,.7,1.2,1.3,2.8,1.3,1.5,0,3.3.5,4,1.2,1.9,1.9,4.5,1.8,9.1-.4,3.8-1.8,4.2-2.3,2.5-2.9-1.2-.5.7-.8,4.8-.8,3.8-.1,6.8-.5,6.8-1.1,0-.6.6-1,1.4-1s1.8-.9,2.1-2c.5-1.5,1.5-2,4.1-2,2,0,3.4-.5,3.4-1.3s.3-.8.9.2c1,1.6,8.2,2.1,9.3.6.5-.7,1.1-.6,1.5.1,1.1,1.5,9.3,1.2,9.3-.3,0-.7.7-1,1.5-.7.9.4,1.8-.1,2.2-1.2s1.2-2.5,1.9-3.2c.9-.8,1-2.1.3-4.4-.5-1.8-.9-3.4-.9-3.5,0-.2-3-.3-6.6-.3-4.4,0-6.3-.3-5.8-1.1.3-.6,1.7-.8,3-.5,1.4.4,2.4.2,2.4-.4,0-.5-1.6-1-3.5-1s-3.5.5-3.5,1.1c0,.6-.7.8-1.6.5-.8-.3-1.2-.2-.9.4.4.6-1.1,1-3.7.9-2.5,0-3.6-.3-2.7-.7,1.5-.6,1.5-.9.3-2s-1.6-.9-2.3,1c-.7,1.7-1,1.8-1,.6-.1-2.4-5.3-8.1-7.7-8.4-1-.1-3-.6-4.3-1-2.3-.7-2.3-.8-.6-1.4,1.8-.6,1.8-.8-.5-2-1.4-.7-3.5-2.4-4.8-3.7-1.2-1.4-2.2-1.9-2.2-1.1,0,.9-.3.9-1-.2-.9-1.2-1.6-.8-4.5,2.4-2,2.2-3.1,4.2-2.6,4.5.5.4-.1,1.6-1.5,2.8-1.3,1.2-2.4,1.6-2.4,1,0-1.9-9-1.6-9,.3-.1,1.3-.2,1.3-1.3,0-1.5-2-7.8-2-9.4,0-1.1,1.3-1.2,1.3-1.3,0,0-2-9-2.2-9-.1,0,1-.4,1.1-1.3.3-2-1.7-8.7-1.8-9.7-.2-.8,1.3-1,1.2-1-.3,0-1.2-.8-1.7-2.9-1.7-1.7,0-3.3-.5-3.6-1-.3-.6-.1-1,.5-1s.4-.8-.6-1.8c-1-.9-2.2-1.7-2.7-1.7-.6,0-1.3-.9-1.7-1.9-.4-1.2-.9-1.5-1.3-.9-.8,1.3-4.7.5-4.7-.8,0-1.8-2.1-.8-3,1.3-.7,1.9-.9,2-.9.4-.1-1.4-.6-1.7-2.7-1.2-1.4.4-2.3.3-2-.2s-.1-.9-.9-.9-1.5.5-1.5,1.1c0,.6-.5.4-1-.4-.8-1.3-1-1.2-1,.2,0,1.9-1.5,2.4-2.4,1-.3-.5-1.9-.7-3.7-.4-2,.3-3.4,0-4-.9-.6-1-.9-.7-1,1.1,0,2.2-.1,2.3-.8.6-.4-1.1-1.6-2-2.7-2.1-1-.1-2.9-.5-4.2-.9-1.4-.5-2.2-.3-2.2.5,0,.8-.4.8-1.3.1-.6-.5-2.1-1.2-3.2-1.4s-3.1-.3-4.5-.1Zm-.5,2.3c5.4,0,6.2.3,7.6,2.6l1.6,2.6,21.1-.2,21.2-.1-.7,4.6c-.5,3.8-.3,4.5,1.1,4.5.9,0,1.6.7,1.6,1.5s.9,1.5,2,1.5,2-.7,2-1.5c0-1.3,3.5-1.5,25.9-1.5h25.9s.6-2.3.6-2.3c.3-1.2.6-3.6.6-5.3,0-4,.7-4.5,3.7-3.1,1.8.8,2.3,1.7,2,3.4-.3,1.8.2,2.4,3,3.4,2.3.7,3.3,1.6,2.9,2.5-.4,1,.4,1.3,3.2,1.1q3.7-.2,3.7,3.6v3.7s14.7,0,14.7,0h14.8v4s0,4,0,4h-17.5s-17.5,0-17.5,0v3.5s0,3.5,0,3.5h-8c-7.2,0-8,.2-8,1.9,0,2.8-2.6,4.7-4.5,3.1-.8-.7-1.5-1.9-1.5-2.6,0-1-1.5-1.4-5.8-1.4-5.2,0-6.3.4-13.4,5.2-4.3,2.9-8,6.1-8.4,7-1.1,3.6-4.1,1.9-8.9-5.1-2.6-3.9-5.4-7.2-6.1-7.5-.8-.3-1.4-1.2-1.4-2.1s-.9-1.5-2.3-1.5c-3.5,0-6,5.5-5.6,12.1l.4,5.4-4.8.9-4.8,1,.2,23,.2,23-6.1.1-6.2.1-.1-8.1c-.1-4.4-.2-9.6-.3-11.5s-.3-8.1-.4-13.8l-.2-10.2h-13.6c-13,0-13.5.1-12.9,1.9.4,1.4-.1,2.4-1.8,3.5-3,2-6.9,8.9-6.1,11,.3.9.1,2.3-.6,3.1-1,1.2-2.1.9-7.3-1.9-3.4-1.9-6.3-4-6.5-4.8-.1-.8,2.2-5.7,5.3-11,3.3-5.9,5.5-10.8,5.5-12.7,0-3.5-3-6.1-7.2-6.1-2.3,0-2.8-.4-2.8-2.4,0-1.4.5-2.8,1.2-3.2,1.7-1.1-1.8-2.2-7-2.3-3.3-.1-4.8.4-6,2-1.1,1.3-3.4,2.2-6.2,2.6-3.7.5-7.8,2.8-22.5,13.1-9.9,6.9-18.5,13.1-19,13.8-1.2,1.5-5.8,3.4-8.4,3.4-3.9,0-5-2.2-6.5-14.5-.9-6.6-2.2-14.6-3.1-17.8-2-7.7-1.9-8.4,1-11.2l2.4-2.5h28.9c15.9,0,29.1.3,29.5.6.8.8,14.5.9,15.4.1.3-.4,1.8-.7,3.2-.7,2.3,0,2.9-.7,4-4.7.8-2.5,2.2-5.4,3.3-6.5,1-1,1.8-2.6,1.8-3.6s.5-2.3,1.2-3,3.9-1.2,7.3-1.2Z"/>
  <path class="cls-1" d="m108.46,4.11l-.6,2.4c-.5,1.8-.1,2.5,1.4,3,2.9.8,3,.5,1-2.7l-1.8-2.7Z"/>
  <path class="cls-1" d="m104.26,4.41c-.8,0-1.2.4-.9,1,.3.5.1,1.9-.6,3.1-1,1.9-.9,2.1.6,1.6.9-.4,1.9-.7,2.1-.7s.4-1.1.4-2.5c0-1.6-.6-2.5-1.6-2.5Z"/>
  <path class="cls-1" d="m217.86,8.41c-.6,0-1,.6-1,1.4s-.3,2.1-.6,3c-.5,1.2,0,1.6,2.2,1.5,1.6,0,2.3-.3,1.6-.6-.6-.2-1.2-1.6-1.2-2.9s-.5-2.4-1-2.4Z"/>
  <path class="cls-1" d="m129.86,11.41c-2.5,0-2.9.4-2.7,2.2.2,2.2-.2,2.3-6.6,2.6-5.1.2-6.7.6-6.7,1.8,0,.8-1.1,1.9-2.5,2.6-2.9,1.3-5.5-.3-5.5-3.3,0-1.5-.9-1.8-5.3-2.1-3.5-.2-5.1-.7-5-1.6.6-2.9-1.7-.8-2.6,2.4-1.8,6.4-2,6.4,32.8,6.4,30.4,0,31.1,0,31.1-2,0-1.3-.7-2-2-2-1.1,0-2,.4-2,.9,0,.5-.9,1.3-2.1,1.6-2.2.7-6.3-2.1-5.3-3.6.2-.4-2.6-.9-6.3-1.1-6.4-.3-6.8-.4-6.6-2.6.2-1.8-.2-2.2-2.7-2.2Z"/>
  <path class="cls-1" d="m141.46,12.41c-4.4,0-7.6.4-7.6,1s3,1,6.9,1,7.3-.5,7.6-1c.4-.6-2.2-1-6.9-1Z"/>
  <path class="cls-1" d="m117.56,12.51c-5.5,0-7.5.3-6.2.9,2.8,1.2,14.5,1.2,14.5,0,0-.6-3.4-1-8.3-.9Z"/>
  <path class="cls-1" d="m147.56,15.81c-.6,1.6,1.1,3.6,3,3.6,1.3,0,1.8-3.2.6-4.3-1.1-1.2-3.1-.8-3.6.7Z"/>
  <path class="cls-1" d="m107.96,15.71c-1.2,1.5.3,3.7,2.6,3.7,1.3,0,1.8-3.2.6-4.3-1-1-1.9-.8-3.2.6Z"/>
  <path class="cls-1" d="m220.46,16.41c-2.5,0-4.8.4-5.1,1-.4.6,1.3,1,4.4,1,2.8,0,5.1-.5,5.1-1,0-.6-2-1-4.4-1Z"/>
  <path class="cls-1" d="m188.46,18.41h-25.4s-.6,2.2-.6,2.2c-.8,3-.8,11.2,0,13.2.5,1.4,2.8,1.6,14.5,1.6,8.6,0,13.9-.4,13.9-1,0-.6-5.3-1-13.8-1h-13.7s-.1-6-.1-6l-.1-6h27.4s27.4,0,27.4,0l-.3,6.2c-.3,5.9-.5,6.3-2.7,6.3-1.3,0-2.6.6-2.8,1.2-.4,1,1.4,1.3,6.6,1.3h7s.3-3.3.3-3.3l.3-3.2,8.7-.3c8-.3,8.8-.5,8.8-2.2s-.7-2-9-2c-8.9,0-9,0-9-2.5s-.3-2.5-5.4-2.5c-3,0-5.8-.5-6.1-1-.4-.6-10.1-1-25.9-1Z"/>
  <path class="cls-1" d="m259.86,25.41c-.6,0-1,.4-1,1,0,.5-1.8,1-4,1s-4-.5-4-1c0-.6-.9-1-2-1-1.3,0-2,.7-2,1.9,0,1.6.8,1.8,7,1.7,5.9-.1,7-.4,7-1.9,0-.9-.5-1.7-1-1.7Z"/>
  <path class="cls-1" d="m153.16,30.11c-.3,1-4.2,1.3-14.3,1.3h-13.9s.8,2.7.8,2.7c.4,1.6.6,3.4.4,4-.5,1.5,7.4,1.8,9.6.4,1.8-1.2,4.1-.3,4.1,1.5,0,.8.4,1.4,1,1.4,1.4,0,1.3-2.3-.2-3.8-1.8-1.8.2-2.6,6.4-2.3,3.2.1,6.2,2.8,5.1,4.5-.4.7,0,.3.9-.7,1.9-2,2.5-5.3.9-4.2-1.5.8-2.5-1.5-1.2-2.8.6-.6,1.1-1.6,1-2.2,0-.5-.3-.4-.6.2Z"/>
  <path class="cls-1" d="m123.66,33.41h-12.9s-12.9,0-12.9,0v2.5c0,2.1-.5,2.5-3.3,2.6-2.9.1-3,.2-.7.8,1.4.4,2.9,1.7,3.5,2.9.6,1.5,1.9,2.2,3.6,2.2,2.4,0,2.7-.4,2.5-3.2-.1-2.4.4-3.3,1.8-3.6,2.5-.5,3.7,1.7,2.4,4.2-.8,1.5-.8,2.1.1,2.4.6.2,1.1,2.6,1.1,5.8,0,4.1.4,5.4,1.5,5.4s1.2-.5.5-2.5c-1-2.6,0-6.8,1.9-8,.6-.3,2-.8,3.2-1,1.7-.3,2,0,1.6,1.6-.5,1.9-.4,2,1.2.5,1-.9,2.6-1.6,3.7-1.6,1.7,0,1.9-.6,1.6-5.5l-.4-5.5Zm-10.8,3c.5,0,1,1.2,1,2.6,0,1.8.5,2.5,1.7,2.3,4.4-.4,5.3.4,1.3,1.1-2.5.4-5.4.4-6.5-.1-1.7-.7-1.7-.8-.3-.8,1.2-.1,1.8-.9,1.8-2.6,0-1.4.4-2.5,1-2.5Z"/>
  <path class="cls-1" d="m26.06,37.41c-4.8,0-4.8-.1-3.1,9.7.7,4,1.6,6.3,2.3,6,2.2-.9,18.6-12.9,18.6-13.7,0-.5-1.5-.4-3.3,0-1.7.5-5.1,1.3-7.3,1.9-2.3.6-4.6,1.1-5.3,1.1-1.7,0-1.3-2.8.6-3.9,1.4-.8.9-1-2.5-1.1Z"/>
  <path class="cls-1" d="m183.36,39.51l-5.8.1c-5.8,0-7.1,1-4.5,3.6,1.8,1.8,4,1.4,7.3-1.2l3-2.5Z"/>
  <path class="cls-1" d="m151.16,45.11c-.4,3.3-3.4,6-5.3,4.8-.6-.3-1-.1-1,.6,0,1-.3,1-1.2.1-.7-.7-2-1.2-2.9-1.2-2.7,0-3.2-1.7-1.3-4.5.9-1.4,1.2-2.5.6-2.5s-1.4.4-1.7,1c-.3.5-2.7.7-5.3.4-3.4-.4-4.3-.3-3.2.5,1.1.7,1.4,2.5,1.3,6.2l-.2,5.1,4.7-.6c2.6-.4,6-1.1,7.7-1.6,1.6-.4,4.2-1.1,5.7-1.4,2.6-.6,2.8-1,2.6-5.4-.1-3.6-.2-4-.5-1.5Z"/>
  <path class="cls-1" d="m122.86,46.41c-2.3,0-3.3.6-4.2,2.4-1.7,3.9-.4,5.6,4.2,5.6,4.6,0,5.9-1.7,4.2-5.6-.9-1.8-1.9-2.4-4.2-2.4Z"/>
  <path class="cls-1" d="m112.36,48.41c-.6,2,.9,6,2.3,6,.5,0,.8-1.8.7-4,0-4.2-1.9-5.5-3-2Z"/>
</svg>