<?xml version="1.0" encoding="UTF-8"?>
<svg id="a" data-name="Layer 1" xmlns="http://www.w3.org/2000/svg" viewBox="0 0 795.2 321.62">
  <defs>
    <style>
      .b {
        fill: #fff;
      }
    </style>
  </defs>
  <path class="b" d="m230.65,173.06c6.5,2.3,7.5,4.3,3.9,7.2-3.5,2.9-11,10.3-14.5,14.5-3.3,3.9-8.1,4.8-21.7,4-10.3-.5-14.8-2-21.4-7-6-4.6-6.4-6.2-2.5-9.8,4.1-3.7,9.9-6.7,15.8-8,2.5-.6,6.3-1.4,8.5-1.9,7.1-1.6,26.4-1,31.9,1Z"/>
  <path class="b" d="m792.15,135.56c2.8,1.4,3,1.8,2.7,6.7-.7,11-1.9,17.4-3.8,20.6-1.6,2.6-1.8,3.5-.8,4.7,1.4,1.7,0,8.3-3.2,14.7-1,2.1-1.8,5.1-1.8,6.7,0,2.5-.8,3.6-4,5.6-4.4,2.8-5.4,5.4-6.6,17-.9,9.4-2.3,11.8-8.3,14.4-6.4,2.7-6.8,3.6-2.8,5.2,1.7.7,3.4,1.4,3.6,1.6.2.1-1.2,1.8-3.1,3.7s-4.5,5.5-5.6,8c-1.2,2.5-2.7,4.6-3.2,4.6-.6,0-1,1.1-1,2.3,0,2.6-2.8,5.7-5.1,5.7-3.2,0-5.8,3.1-6.9,8.3-.7,3.7-2.3,6.8-5,10.1-2.2,2.7-4,5.9-4,7.2s-1.6,4.1-3.6,6.3c-2.9,3.3-3.4,4.3-2.5,6,.9,1.6.6,2.5-1.4,4.9-1.4,1.7-2.5,3.3-2.5,3.7,0,.3-1.3,2-3,3.7l-3,2.9-1-2.8c-.6-1.5-1.3-3.5-1.6-4.3-.5-1.3-.6-1.3-1.3,0-.5.8-1.1,3.5-1.5,6-.8,4.8-2.9,8-5.6,8-.9,0-2,.4-2.5.8-2,1.8-16.3,3.5-28.5,3.5-17.1.1-21.5-2.1-23.5-11.6-.4-1.9-1.1-2.7-2.3-2.6-2.7.5-6.3-2-7.8-5.4-.8-1.8-2-4-2.6-4.9-1-1.4-.9-2,.6-3.1,1.8-1.3,1.6-1.5-1.9-3.7-4-2.4-7.5-9-7.5-13.9,0-1.5-.4-3.1-.9-3.7-.5-.5-1.2-3-1.6-5.6-.7-4.5-.6-4.7,1.9-5.4,3.6-.9,2.8-2.5-2-3.9q-3.9-1.1-4.7-7.5c-.5-3.6-1.5-8.9-2.4-11.9-1.5-5.3-1.5-5.4.6-7l2.2-1.7-3-2.8c-1.7-1.6-3.6-2.6-4.4-2.3-2.5.9-4.8-2.5-4.1-6,.3-1.8.1-3.3-.5-3.7s-1.1-2.5-1.1-4.7c0-2.6-.7-4.6-2-5.9-2.4-2.4-2.6-4.8-.5-5.6,4.5-1.8-2.6-4.4-11.8-4.4-5.4,0-5.8-.2-6.8-2.8l-1-2.7-2.1,2.7-2,2.8h-12.7c-9.6,0-13.2-.4-14.8-1.5-1.8-1.3-2.3-1.3-3.3-.1-1.1,1.4-3.5,2-14.3,3.1-3.1.4-5.7,1.1-5.7,1.6s.9.9,1.9.9c3.9,0,3,2-2,4.6l-5.2,2.6-1.7-2.3-1.8-2.2-2.7,4.1c-2.5,3.7-3.2,4.2-6.9,4.3-5.6.2-8.3.4-14.3,1.3-4.6.7-5.3.5-6.5-1.3-1.7-2.8-2.5-2.6-4.2.7-1.4,2.8-1.6,2.8-11.1,3-7.2.1-10.2.5-11.4,1.7-2.5,2.1-2.8,1.9-3.5-2-.9-4.8-2.5-5.4-5.5-1.8-2.5,3-2.9,3.1-11.1,3.2-4.7,0-9.7.3-11.1.6-2.2.5-3.1,0-5.1-2.5l-2.5-3.2-2.1,3.6c-2.1,3.5-4.5,4.6-5.7,2.6-.8-1.2-8.4-1.2-14.5,0-3.9.8-4.7.6-5.9-1.1-1.8-2.5-4.6-2.4-6.5.2-.8,1.2-1.9,1.8-2.4,1.5-.6-.3-5.8-.8-11.7-1l-10.8-.4-1.6-3.8-1.7-3.8-1.7,2.4c-1.7,2.5-1.8,2.5-4.8.7-1.7-.9-3.6-1.7-4.3-1.7s-1.7-.5-2.4-1.2c-1.8-1.8-8.3-1.8-11.4,0-2.5,1.5-2.9,1.4-4.8-.3q-2.2-1.9-3.6,0c-.8,1-1.4,2.4-1.4,3.1,0,2-4.1,6.4-5.9,6.4-1,0-3,.9-4.4,2s-3.9,2-5.5,2c-1.7,0-3.4.4-3.7,1-.3.5-1.9,1-3.5,1-2.1,0-3.3-.7-4.3-2.6l-1.4-2.6-1.6,2.6c-1.8,2.7-6,3.6-7.3,1.5-.4-.6-1.9-.9-3.6-.5-1.8.3-4.1,0-5.9-1-2.5-1.3-3.5-1.3-6.5-.2-2.7,1-3.9,1-5.4,0-2.8-1.7-2.8-1.6-3.2,2.5-.2,3-.9,4.1-3.1,5.1-3.4,1.6-3.4,3-.1,4.2,2.4.9,2.6,1.4,1.9,4.8-.5,2.9-2.5,5.5-9,11.9-7.4,7.5-8.6,8.3-12,8.3-2.2,0-4.6-.7-5.7-1.7-1.7-1.5-1.9-1.5-3.2.2-1.1,1.5-2.2,1.7-7.5,1.1-3.4-.4-7.7-1.6-9.6-2.6-1.8-1-4.5-2-6.1-2.2-2.1-.2-3.3-1.3-5.1-4.8-2.9-5.4-3.6-5.8-5.1-2.5-1.4,3.1-2.7,3.2-4.7.1-2-3-13.3-8.6-17.4-8.6-2.7,0-3.2-.4-3.8-3-.4-2.1-1.1-3-2.5-3s-1.8.5-1.4,1.8c1.2,3.7-2.6,5.4-12.6,5.9-6.3.3-9.8.9-10.9,1.9-1.9,1.7-4.6.9-5.4-1.7-.9-2.8-1.9-2.3-3.8,1.6-1.4,2.9-2.2,3.5-4.7,3.5-4.3,0-11.8,1.9-16.5,4.2-2.2,1.1-4.1,1.5-4.3,1-.1-.5-.9-1.8-1.6-2.8-1.7-2.2-3.7-.9-5.6,3.6-1.1,2.6-1.5,2.8-4.7,2.3-2.6-.5-3.9-.2-4.8,1-1.4,2-12.4,5.9-14.6,5.2-1-.3-2.1-1.9-2.4-3.5-.9-3.9-3.5-4-3.5-.1,0,1.6-.6,3.3-1.3,3.9-.6.5-6.3,1.2-12.5,1.4-6.7.3-11.7.9-12.4,1.6-.35.35-.53.61-.53.79l-2.17.41-3.3,3.3c-3,3-3.7,3.3-8,2.9-3-.2-5.3-1.1-6.5-2.4-1.7-1.9-1.7-2,0-3.3,1.8-1.3,1.8-1.4,0-2.3-1-.5-3.5-1.2-5.6-1.6-5-.9-6.4-3.4-7.6-13.4-1.2-9.6-1.9-11.2-3.6-8.8-1.1,1.5-1.3,1.5-2.6,0-1.1-1.4-1-1.9.9-3.4,3-2.5,2.8-3.6-1.3-6.2-2-1.4-3.5-3.1-3.5-4.3-.1-2.6-3.4-15.2-4.3-16.1-1.3-1.3-.7-6.1.8-7.4,1.4-1.1,1.2-1.5-1.3-3-2.4-1.5-3-2.7-3.5-7.1-.4-3-.7-8.1-.7-11.4,0-5.8.1-6.1,4.2-9.6,3.1-2.7,4-4,3.2-4.8-1.4-1.6,5-8.5,7.1-7.7.8.3,1.5,1,1.5,1.6,0,2.2,2,.8,3.3-2.3,1.2-2.7,2.4-3.6,7.2-5.2,3.9-1.4,7.4-3.6,11.3-7.2,3.7-3.5,6.5-5.3,8.2-5.3,3.2-.1,6-2.2,6-4.6s2.7-6.4,4.2-6.4c.5,0,2.3-1.1,4-2.5,1.6-1.4,3.8-2.5,4.8-2.5,2.5,0,8.4-2.6,9.9-4.4,1.8-2.1,2.7-1.3,3.5,2.9.9,4.9,2.1,5.1,4.7.8,1.2-2.1,2.4-4,2.6-4.2.1-.2,1.1.3,2.1,1.2,1.5,1.4,3.4,1.6,10.4,1.3,6.4-.4,9.1-.1,10.5.9,2.4,1.9,4.8,1.9,6.4-.1,1-1.3,2.5-1.5,6.6-1.1,2.9.3,8.1.1,11.5-.4,5.7-.8,6.4-.7,7.7,1.1.7,1.1,1.9,2,2.5,2,1.5,0,4-5.1,5.1-10,.4-1.9,1.6-4.2,2.6-5,2.5-2,1.7-4.3-2-5.7-2.5-.9-3.1-1.8-3.7-5.9-.4-2.6-.4-10.6,0-17.8.5-10.5,1-13.5,2.7-16.3,1.2-1.8,2.9-3.3,4-3.3,1,0,2.5-1.1,3.4-2.3,1.8-2.8,5.6-4.7,9.3-4.7,1.6,0,3.3-.5,4-1.2.9-.9,1.9-.5,4.3,1.8l3.1,2.9,1.5-2.3c1.4-2,2.3-2.2,11.2-2.2,5.9,0,10.1-.4,10.8-1.1,2-2,4.1-.2,5.4,4.3l1.1,4.3,2.5-5.7c2.3-5.1,2.8-5.6,6.1-6.1,2.1-.2,4.5,0,5.4.4.9.5,2.8.9,4.2.9s2.8.4,3.1,1c.3.5,2.1,1,3.8,1,3.8,0,5,.7,6.6,3.8,1.2,2.3,1.3,2.3,3.2.6,1.6-1.4,3.1-1.6,10.4-1,5.6.4,9.3.2,10.6-.5,1.8-.9,2.6-.6,5,1.7l2.8,2.7,2.7-2.7c1.5-1.5,3.4-2.4,4.2-2.1.7.3,2.6.5,4.1.5,1.6,0,4.3,1.1,6.2,2.5,1.9,1.3,4.3,2.9,5.5,3.4,5.3,2.4,9.6,11.6,6.3,13.6-.7.5-.5,1.1.4,1.8,1,.8,1.7,3.6,1.9,7.9.4,7.5,1.2,9,3.2,6.3,1.3-1.8,1.5-1.7,5.2,1.2,2.2,1.7,5.5,3.4,7.4,3.8s4.2,1.3,5,2,2.6,1.5,4,1.7c3.5.4,3.7,3.2.3,4.7l-2.8,1.3,3.9,2c2.3,1.2,4.3,3.1,4.9,4.9,1.3,3.3,1.9,3.5,3.7,1.4.7-.8,2.5-1.5,4-1.5,2.1,0,2.9.6,3.4,2.5.5,2.1,1.2,2.5,4.1,2.5,1.8,0,3.7.4,4,1,.3.5,2.9,1,5.6,1,4.1,0,5.4.5,6.9,2.2l1.8,2.3,1.3-3c1.7-4,1.7-3.9,3.2-2.7.8.7,5.4,1,11.9.9,8.7-.1,10.8.2,12.2,1.6,1,.9,2.1,1.7,2.6,1.7,1.1,0,3.7-2.6,4.2-4.2.4-1,.8-1,2-.1,1,.9,4.7,1.2,12.1,1,10.3-.3,10.6-.3,11.2,2,.7,3,2.9,2.9,4.3-.1,1-2.3,1.3-2.4,11.8-2,7.6.2,11.1-.1,11.7-.9.7-.9,1-.9,1.3,0,.9,2.1,4.5,6.3,5.5,6.3.5,0,1.4-2,2.1-4.5,1.3-4.8,2.3-5.6,3.1-2.6.4,1.8,1.3,2,11.6,1.8,7.9-.2,11.1.1,11.1.9,0,.6.6,1.7,1.4,2.3,1.2,1,1.8.8,3-1.1,1.5-2.3,1.9-2.3,13.7-2.1,9.3.1,12.5.5,13.8,1.7,2.2,2,3,2,5.1.1,1.2-1,4.8-1.5,13.8-1.8,6.7-.2,12.2,0,12.2.3s.6,1.5,1.4,2.6c1.4,1.8,1.5,1.8,3.6-.9,1.8-2.3,2.7-2.6,5.8-2.2,2,.3,5.9.2,8.7-.2,4.8-.8,5-1,5.1-4.1.1-2.2.8-3.8,2.2-4.8,3-2.1,2.7-3.9-.8-5.4-3.2-1.3-3.5-2-4.6-9.5-.4-2.8-1.7-7.4-3-10.3-2.3-5.2-2.3-5.3-.4-6.5,2.7-1.6,2.5-2.2-1.5-4.6-2.1-1.2-3.5-2.8-3.5-4,0-1.1-.8-3.9-1.8-6.3-1.1-2.4-2.5-6.6-3.1-9.5-1.1-4.4-1-5.7.2-8.2,1.3-2.6,1.3-3.1-.1-4.5-1.3-1.2-1.3-2-.4-4.1.6-1.4,1.6-2.5,2.1-2.5.6,0,4.4-4.2,8.5-9.4,8.8-10.9,13.6-13.4,15.6-8,1.1,2.8,3,2.4,3-.6,0-1,.5-2.2,1-2.5.6-.4.8-1.5.5-2.5-.3-1.1-.1-2.8.5-4,1.1-2,2.4-2.2,9.7-1.3,1.7.2,3.7,1.1,4.4,2,1.1,1.3,1,1.7-.5,2.9-2.3,1.6-1.4,2,5.7,2.7,3.5.3,5.3,1.1,6.4,2.7,1.1,1.5,1.8,1.9,2.6,1.1,1.6-1.6,6.4-1.3,7.1.4.3.8,1.4,1.5,2.4,1.5,1.1,0,3.9,1.1,6.4,2.4s5.9,2.7,7.7,3.1c2.3.5,3.9,1.8,5.3,4.1,2.3,3.9,2.6,4,4.3,1.7,1.2-1.6,1.6-1.6,5.8.5,2.4,1.2,4.8,2.2,5.3,2.2,1.1,0,11.4,4.2,13.2,5.4.7.4,1.1,1.4.8,2.1-.7,1.8,1.1,3.1,5.4,4,7.2,1.4,14.1,4.2,21,8.4.8.5,2.3,1.2,3.2,1.5,1,.3,2.8,2.6,4,5.1l2.2,4.5,2.3-2.2c2-1.9,2.6-2,5-.9,1.6.7,4.4,2,6.3,2.8s4.2,1.9,5,2.4,2.7,1.4,4.2,2c3.3,1.3,4.4,4,2.4,5.5-2.3,1.7-2,2.2,1.9,3,1.9.3,4,1.2,4.6,2,.7.8,2,1.2,3,.9,2.6-.8,9.1,3.3,16.8,10.4,3.6,3.3,7.1,6.3,7.8,6.5,1.6.7,1.7,6.8.1,8.4-.9.9-.8,1.6.5,2.9.8,1,2,4.1,2.5,6.8l.9,5,1.3-3.3c1.4-3.7,3.3-3.8,3.8-.1.2,1.3.8,2.8,1.3,3.4.5.5.9,1.7.9,2.7s.6,2.1,1.4,2.4,3.1,2.6,5,5.1c2.8,3.6,3.3,4.9,2.5,6-.6.7-1.8,1.3-2.5,1.3-2.4,0-1.5,1.9,1.5,3.5Zm-8.9,2.9c1.2-6.9-.4-12.2-3.9-13.1-1.4-.3-3.2-1-3.9-1.6-1.6-1.3-6.2.7-6.2,2.7,0,1.3-6.1,5.6-8.1,5.6-2.2,0-.8-6.7,2.2-10.3,2.6-3.2,3.1-4.8,3.6-11,.6-7.2.5-7.3-2.8-10.8-6.7-6.8-12.5-10.8-16.5-11.2-8.1-1-14.4-5.1-14.4-9.3,0-3.7-5.7-7.4-11.4-7.4-4.5,0-7.9-1.8-15.3-8-.7-.5-1.6-1-2-1s-3-1.6-5.7-3.5-5.5-3.5-6.3-3.5c-.7,0-1.3-.5-1.3-1,0-.6-.5-1-1.1-1s-7-2.9-14.4-6.5c-7.3-3.6-14-6.5-14.9-6.5s-1.6-.4-1.6-1c0-.5-1.6-1.2-3.5-1.6-1.9-.3-3.5-1-3.5-1.5s-.8-.9-1.8-.9c-.9,0-3-.7-4.6-1.5-1.5-.8-3.3-1.5-4-1.5-.6,0-2.2-.6-3.6-1.3s-5.4-2.4-9-3.7-7-2.6-7.5-3c-.6-.4-2.1-1-3.5-1.3-7.4-1.6-11.8-4.1-13-7.3-.8-2.1-1.6-2.4-5.6-2.4s-5.1.5-8,3.6c-1.9,1.9-3.4,4.3-3.4,5.3,0,1.1-1.5,2.5-4,3.6-2.2,1-6.3,3.9-9.1,6.4q-5,4.6-4,8.6c.5,2.2,2,6.7,3.2,10,1.1,3.3,2.5,7.6,2.9,9.5.5,1.9,2.3,8,4,13.5,4.2,13.6,5.9,19.3,7.1,24,.5,2.1,1.5,4.5,2.1,5.2s1.4,3,1.8,5.1c1,4.4,2.6,9.3,5.1,14.6,1,2.2,1.6,4.4,1.3,4.8s-59.2.8-131,.8c-108.7-.1-130.4-.3-130.4-1.4,0-.8.7-1.6,1.5-2,1.7-.6,2.2-8.6.6-8.6-.5,0-2.3,1.3-3.9,3-2.9,2.9-3.4,3-12,3-6.7,0-9.3-.4-10.2-1.5-.7-.8-2.9-1.5-4.9-1.5s-4.3-.4-5.1-1c-2.5-1.6,1.5-2.3,9-1.7,8.1.7,9.7-.2,10.6-5.9.6-4.3-.3-5.9-5-8.9-2.1-1.3-13.3-3.2-15.1-2.5-.9.4-2.9.6-14.5,1.5-9.2.7-49.9.9-50.6.3-.3-.4-.3-1.9,0-3.4l.7-2.6,23.9.3c22.9.4,24,.3,25.4-1.6,2.1-2.7,2.2-27.1.2-29.7-1.2-1.6-3.5-1.7-24.7-1.5-27.3.2-32.3-.4-36.1-4.4-2.3-2.4-3.5-2.9-7.6-2.9-5.1,0-8.3,1.7-12.8,7-1.9,2.1-2.4,2.3-3.9,1-2.5-2.1-40.2-3.3-43-1.4-5.4,3.8-5.8,25.1-.7,35.2,1.6,3.3,1.9,3.4,6.2,2.8,1.49-.24,5.02-.51,9.26-.76l.1,1.71c-1.17.13-1.89.53-2.66,1.25-2.8,2.5-4.9,7-3.7,7.7,2,1.2,1,5.1-2,7.5-1.6,1.4-2.9,3-3,3.6,0,.6-.7,1.7-1.5,2.4s-1.5,2.8-1.5,4.7c0,4-1.9,5.1-5.8,3.3-2-.9-12.9-1.2-43.6-1.1-22.6,0-41.9.4-43,.7-2.7.8-6.6,4.4-6.6,6,0,.6-2.9,4.3-6.4,8.1-4.8,5.1-7.6,7.3-10.6,8.2-4.4,1.3-8.6,5-10.1,8.9-.8,2.1-1.4,2.2-9,2-7.9-.2-8.2-.1-10.6,2.7-2.4,2.7-2.5,3.4-2,10.5.3,4.2,1.2,9.8,2,12.6.9,2.7,2.3,7.6,3.2,10.9s2.1,7.3,2.7,9c.5,1.6,1.8,6.1,3,10,1.1,3.8,2.3,7.7,2.7,8.5s1.8,4.9,3,9c4.8,15.7,5.8,17,13.7,17,2.9,0,5.5-.4,5.8-.9.4-.5,2.9-1.2,5.6-1.6s5.2-1.1,5.6-1.6c.3-.5,2-.9,3.7-.9,1.8,0,4.5-.7,6.1-1.5,1.5-.8,4.7-1.5,7.1-1.5s4.8-.6,5.4-1.4c.6-.7,3.4-1.6,6.2-1.9,2.8-.4,5.6-1,6.3-1.5.6-.5,3.2-1.3,5.8-1.6,2.6-.4,5-1.1,5.3-1.5.2-.5,2.6-1.2,5.2-1.6,2.7-.4,5.2-1.1,5.8-1.5.5-.5,3.2-1.3,6-1.9,2.7-.5,7.7-1.7,11-2.6s8.2-2.1,10.8-2.5c2.7-.5,5.4-1.3,6-1.8.7-.6,2.8-1.3,4.7-1.7s3.9-1.1,4.5-1.5c3.1-2.5,13.5-5,20.8-5,8.9,0,12.1,1.3,20.6,8.3,4.9,4.1,14.4,9.7,16.5,9.7.4,0,2.2.6,3.9,1.4,10.9,4.8,22.8,6.6,27.8,4.2,4.1-1.9,7.9-8.2,7.9-12.9,0-1.9,1.1-5.4,2.4-7.8,1.7-3,2.3-5.1,1.9-7.2-.4-2,0-3.7,1.6-5.7,1.1-1.6,2.1-4,2.1-5.4,0-1.3.6-2.6,1.2-2.9,1.9-.6,7.8.2,11.8,1.8,10.2,3.9,14.8,4.8,24.5,4.8,11.3,0,16.5-1.8,22.6-7.5,8.7-8.4,12.5-10.8,17.5-11.2,2.7-.2,5.6-.7,6.6-1.1,1.1-.4,1.8,0,2.2,1.2,1.7,5.4,10.3,11.1,20.8,13.8,7.2,1.8,40.9,2.1,67.3.5,9.3-.6,27.3-1.5,40-2,24.5-1,34.8-2.1,38-3.7,1.1-.6,3.1-1.6,4.5-2.2,3.7-1.6,5.6-3.1,11.3-8.5l5.2-5,37.8.2c20.9.1,38.2.4,38.7.7.4.3,1,1.9,1.3,3.7,1,5.8,1.8,9.2,3.7,14.3,1,2.7,2.6,7.7,3.5,11,1,3.3,2.1,6.7,2.6,7.6.4.9,1.1,3.4,1.5,5.4.4,2.1,1.3,5,2,6.4.8,1.4,1.4,3.6,1.4,4.8s.4,2.4.9,2.7,1.2,2.2,1.6,4.2c.3,2,1,4.4,1.5,5.3,1.1,2.2,5,15.3,5,16.7,0,.6.7,1.7,1.5,2.4s1.5,2.7,1.5,4.5.7,4.6,1.5,6.1c.8,1.6,1.5,3.6,1.5,4.4s1.8,3.5,4,5.9c2.2,2.5,4,5.2,4,6.2,0,3.2,1.2,4.9,5.1,7.1,3.2,1.8,3.9,2.7,3.9,5.2,0,3.9.7,4.9,4.7,7,6.1,3.1,10.9,1.8,17.3-4.6,1.9-1.8,3.9-2.8,5.9-2.8,1.6,0,3.2-.4,3.5-.9.3-.4,2.4-1.1,4.6-1.5,2.2-.3,4-1,4-1.4s1.2-1.3,2.7-2c5.6-2.5,6.9-3.5,9.7-7.6,2.4-3.3,2.9-5,2.8-8.9q-.2-5,6.8-12.6c9.6-10.4,27.5-39.1,34-54.6,1.1-2.8,2.5-5.7,3-6.6s1.2-3.4,1.6-5.5c.3-2.2,1-4.4,1.5-4.9.4-.6.9-2.8,1.1-5,.2-3,.9-4.2,2.6-5.1,3.4-1.7,5.5-5.2,7-11.4.7-3,1.9-8.4,2.7-12,.9-3.6,2-10.1,2.5-14.5.6-4.4,1.4-10.3,2-13.1Z"/>
  <path class="b" d="m776.05,131.26c.7.7,1.2,2.5,1.2,4,0,2.1-.5,2.8-1.9,2.8-2.4,0-3.5-1.5-2.4-3.3.4-.6.6-2,.5-3-.4-2,.9-2.2,2.6-.5Z"/>
  <path class="b" d="m770.35,154.86c.5-.7.9-.9.9-.3-.1.5-.6,1.8-1.4,2.7-1,1.4-2.3,1.6-7.2,1l-5.9-.6,6.4-.8c3.5-.4,6.8-1.3,7.2-2Z"/>
  <path class="b" d="m769.85,142.46c.8,2.1-2.1,2.1-6,.1-1.5-.8-3.7-1.5-4.7-1.5-1.1,0-1.9-.6-1.9-1.4,0-.7-.6-1.9-1.4-2.5-.7-.6-1.9-3.9-2.6-7.2-1.1-5.2-1.1-6.2.1-7,2-1.2,2.6-1.1,3.3.7.3.9.6,3.4.6,5.7,0,3,.7,5.1,2.5,7.2,2.3,2.8,2.6,2.9,3.9,1.2,2.1-2.7,5.6-2.2,5.6.7,0,1.3.3,3.1.6,4Z"/>
  <path class="b" d="m759.45,165.16c3.6-1.3,8.8-2.3,8.8-1.7,0,.4-.4,1.4-.9,2.4-.5.9-1.7,3.7-2.7,6.2s-3.1,6.3-4.5,8.5-3.7,6-5,8.5-3,4.9-3.7,5.3c-.6.4-1.2,1.2-1.2,1.8,0,1-.9,2.3-4.1,5.8-.8,1-1.8,2.5-2.2,3.4-.3.9-1.1,1.7-1.7,1.7-.5,0-1,.6-1,1.2,0,.7-1.1,2.4-2.5,3.7l-2.5,2.3-.9-2.3c-.7-1.7-.5-2.7.5-3.5.8-.6,1.4-1.6,1.4-2.3,0-.6.6-1.1,1.4-1.1s1.6-1,1.8-2.3c.2-1.4.9-2.1,2.1-2.1,1.2.1,1.6-.3,1.2-1.5-.3-1,.7-4,2.1-6.7,7-13.1,11.4-22.6,11.4-24.8,0-.9,1-2,2.2-2.5Z"/>
  <path class="b" d="m754.05,149.26c2,2,1.5,5.8-.8,5.8-1.4,0-2-.7-2-2.3,0-3.3,1.3-5,2.8-3.5Z"/>
  <path class="b" d="m753.05,113.26c.9-.3,1.3.2,1,1.2-.1,1-.8,1.7-1.3,1.7-1.5-.1-1.2-2.4.3-2.9Z"/>
  <path class="b" d="m752.05,159.76c3,1.2,3.4,4.3,1.2,8.9-3.3,6.7-5.2,5.9-4.8-2.3.3-6.5.9-7.7,3.6-6.6Z"/>
  <path class="b" d="m746.05,211.56c1.6-3.2,7.2-9.9,7.2-8.7,0,1.5-3.4,7.2-4.3,7.2-.4,0-.7.7-.7,1.5,0,.7-.6,1.8-1.3,2.2-.6.4-2.7,3-4.6,5.8-3.5,5.1-5.8,7.9-14.4,18.2-8.6,10.3-11.9,13.4-13.3,12.9-.8-.3-1.4-.9-1.4-1.4,0-.6,4.4-5.4,9.7-10.9,9.5-9.6,17.3-18.5,17.3-19.8,0-.3,1.1-1.6,2.3-2.8,1.3-1.2,2.9-3.1,3.5-4.2Z"/>
  <path class="b" d="m749.25,151.66c0,2.3-4,1.3-5.8-1.4-1.3-2-1.3-2.2.4-2.2,1.1,0,2.7.5,3.6,1.1,1,.5,1.8,1.7,1.8,2.5Z"/>
  <path class="b" d="m747.35,121.06c.6,0,.9.8.7,1.7-.2,1-1.3,2.2-2.6,2.8-.18.08-.34.16-.5.24l-.72-.89c.4,0,.7-.33,1.12-.95.5-.8.9-1.7.9-2.2,0-.4.5-.7,1.1-.7Z"/>
  <path class="b" d="m746.65,138.06c1,0,1.6.9,1.6,2.1,0,2.4-2.3,2.1-2.8-.4-.2-1,.3-1.7,1.2-1.7Z"/>
  <path class="b" d="m747.15,180.56c1.2,1.2,1,1.5-1.3,2.1-1.9.4-5.7-.5-12.9-3.1-5.6-2.1-10.8-4.3-11.6-4.9-1.8-1.4-5.1-3.3-7.9-4.6-5.8-2.6-13.9-6.3-15.4-7.1-2.6-1.3-5.4-1.1-6.8.6-1.8,2.2-2.4,1.2-2.4-4.5-.1-4.7,0-5,2.4-4.9,1.4,0,3.6.5,5,1.2,1.4.6,9,4.9,17,9.7,15.1,8.8,17.8,10.1,27,12.6,3,.8,6.1,2.1,6.9,2.9Z"/>
  <path class="b" d="m745.55,105.36c.5,1.3-.3,7.7-.9,7.7-.2,0-2.8-1.9-5.7-4.3-2.9-2.3-7.4-5.8-9.9-7.7-3.2-2.3-4.7-4.3-4.8-5.8,0-1.2,0-2.5-.1-2.9-.1-1.3,1.5-1.1,4.6.6,4.8,2.5,16.2,11,16.8,12.4Z"/>
  <path class="b" d="m740.05,162.06c5,0,5.3.2,5,2.2-.3,2.1-.8,2.3-6.8,2.3-6.8,0-13.2-2.4-21.1-7.8-.99-.66-2.07-1.32-3.06-1.88l.62-1.08c.29.16.69.26,1.14.26.9,0,3,.6,4.7,1.4,5.8,2.7,14,4.6,19.5,4.6Z"/>
  <path class="b" d="m744.25,128.06c.5,0,1,2,1,4.5,0,4.8-1.4,6-2.5,2.2-.3-1.2-1.3-3.9-2.2-6l2.82-.93c.15.14.44.23.88.23Z"/>
  <path class="b" d="m744.23,124.91l.72.89c-1.4.72-2.02,1.61-1.58,2.03l-2.82.93c-1.9-4.4-.6-7.1,2.2-4.7.67.58,1.11.85,1.48.85Z"/>
  <path class="b" d="m731.75,109.86c6.4,3.3,9.7,6.5,9,8.5-1.2,2.9-4.1,1.9-7.6-2.8-1.9-2.5-4.5-4.8-5.9-5.2-2.9-.7-4-2.1-3.3-4,.7-1.7,2-1.7,3,.1.4.7,2.6,2.3,4.8,3.4Z"/>
  <path class="b" d="m738.85,150.96c7.3,6.9-4.6,5.4-22-2.8-4.8-2.3-8.9-4.1-9.1-4.1s-2.4-1.4-4.8-3c-2.5-1.7-5.2-3-6-3-4.5,0-5.8-2.2-3.5-6.2,3.8-6.5,7.6-7.3,12.3-2.6,2.8,2.8,3.4,2.9,9.2,2.5,5.4-.4,6.7-.1,9.5,1.9,7.2,5.2,8.8,6.7,8.8,8.4,0,1,.7,2.3,1.5,3s1.5,1.8,1.5,2.4,1.2,2.2,2.6,3.5Z"/>
  <path class="b" d="m736.25,186.25c2.2.3,2.5.8,2.3,3.7-.1,1.9-.6,4.4-1.1,5.5-.6,1.2-1.2,2.6-1.4,3.3-1.1,4.1-38.8,44.3-41.5,44.3-.7,0-1.8-1.2-2.5-2.8-1.7-4.3-5.4-12.9-8.1-19.2-2.6-5.9-10.8-23.4-11.7-25-5-8.9-7.7-15.1-6.9-15.6,2-1.2,6,.7,10.6,5.1,5.3,5.1,10.3,6.2,12.3,2.5.6-1.1,1.9-2,2.9-2,.9,0,2.7-1,3.9-2.3,1.8-1.9,2.2-3.5,2.2-8.5,0-3.3.3-6.3.7-6.5.5-.3,4.4,1.4,8.8,3.7,4.5,2.3,10.4,5.6,13.3,7.4s5.7,3.2,6.3,3.2,2.5.6,4.2,1.4c1.8.8,4.3,1.6,5.7,1.8Z"/>
  <path class="b" d="m733.95,214.76c1.6.6,1.7,3.3.3,3.3-1.1,0-2.6-2.8-1.9-3.4.2-.2,1-.1,1.6.1Z"/>
  <path class="b" d="m731.25,219.06c.5,0,1,.2,1,.5,0,1.2-4.2,4.5-5,4-1.7-1-1.1-2.5,1-2.5,1.1,0,2-.5,2-1,0-.6.4-1,1-1Z"/>
  <path class="b" d="m726.65,247.56c2.1-2.2,3.4-3.3,2.9-2.4-1.3,2.5-5.5,7.8-9.1,11.5-1.7,1.8-3.2,3.7-3.2,4.3,0,.5-.6,1.4-1.3,1.8-1.8,1.1-6.7,7.8-6.7,9.1,0,2.1,4,1.3,6.4-1.3,2.8-3,3.9-2.3,2.3,1.3-1.9,4.7-3.5,5.4-7.8,3.1-4.8-2.4-5.3-5.9-1.2-9.2,2.4-2,6.1-5.7,17.7-18.2Z"/>
  <path class="b" d="m729.25,119.06c0,1-.7,2.3-1.5,3-1.3,1-1.9,1-3.5-.5-1.1-1-2-2.4-2-3.2,0-4-22.3,1.3-26.3,6.2-.5.6-.7.2-.5-.9.2-1,2.3-3.6,4.8-5.6,4-3.3,5.3-3.8,11.5-4.3,4.2-.4,7.7-.2,8.8.4,1,.6,2.5.8,3.4.5,1.9-.8,5.3,2.1,5.3,4.4Z"/>
  <path class="b" d="m716.15,87.06c4.7,0,6.1,1.4,6.1,6.1,0,5.1-2,6.9-6.5,5.9-5.5-1.2-6.5-2.6-6.5-8.6,0-5,1-6.8,2.5-4.4.3.5,2.3,1,4.4,1Z"/>
  <path class="b" d="m717.45,233.26c1.7-1.7,3.1-1.5,2.4.4-.3.9-.6,1.8-.6,2s-.7.4-1.5.4c-1.8,0-1.9-1.2-.3-2.8Z"/>
  <path class="b" d="m718.35,123.06c1,.7,1,1.1-.1,2.5-1,1.2-2.3,1.5-5.4.9-2.3-.3-4.8-1-5.6-1.4-1.3-.8-1.3-.9,0-1.4,3.2-1,9.8-1.3,11.1-.6Z"/>
  <path class="b" d="m717.75,106.86l-5.3.1c-2.9.1-5.2-.3-5.2-.9,0-1.4-7.6-1.2-10,.2-2.7,1.7-3.7.2-1.5-2.2s9.9-2.8,11.2-.6c.4.8,3.1,1.9,5.8,2.4l5,1Z"/>
  <path class="b" d="m714.71,155.8l-.62,1.08c-1.11-.62-2.11-1.11-2.74-1.32-1.2-.3-2.1-1.1-2.1-1.6,0-.9.4-1,3.2-.2,1,.2,1.8.9,1.8,1.4,0,.25.18.48.46.64Z"/>
  <path class="b" d="m713.85,251.46c.7,1.8-19.2,21.9-27.4,27.5-3.2,2.2-3.3,2.2-8,.5-2.6-1-5-2.2-5.3-2.7-.9-1.2.2-11,1.3-12.2.6-.6,1.9-.4,3.9.8,3.6,2,9.4,2.3,10.6.4.4-.6,2.5-2.1,4.6-3.1,2.1-1.1,4.8-2.9,6.1-4,3.4-3.1,11.5-8.6,12.7-8.6.5,0,1.2.6,1.5,1.4Z"/>
  <path class="b" d="m710.85,240.16c.6,1.1-9.4,11.3-15.4,15.7l-3.2,2.2.3-3.7c.3-5,.9-5.7,6.5-8.4,2.6-1.2,5-2.8,5.5-3.5.4-.7,1.4-1.1,2.2-.8.9.4,1.5,0,1.5-1,0-1.8,1.6-2.1,2.6-.5Z"/>
  <path class="b" d="m705.45,77.46c2,1.7,2.4,6.1.8,7.1-.6.4-3.6-.8-6.8-2.7-11.7-6.7-28.5-15.3-32-16.3-1.2-.3-2.2-1-2.2-1.5,0-.4-1.2-1.1-2.7-1.5-1.5-.3-3-1-3.3-1.4-.4-.7-3.7-2.3-21.5-10.6-2.8-1.2-8-3.7-11.6-5.4s-6.8-3.1-7.2-3.1c-.3,0-1.8-.5-3.4-1.2-1.5-.6-4.8-1.8-7.3-2.7-4-1.4-4.5-1.9-4.5-4.6,0-3.5,2.5-4.3,6.5-2,1.4.8,3.1,1.4,3.9,1.5.8,0,3.2.9,5.5,1.9,8.3,3.9,11.4,5.1,12.9,5.1.9,0,1.8.4,2.1.9s1.8,1.2,3.3,1.5c1.6.4,4.1,1.3,5.8,2,1.6.8,5.5,2.5,8.5,3.9,22.7,10.2,47.3,23.7,53.2,29.1Z"/>
  <path class="b" d="m707.25,91.66c0,2.4-4,1.6-8-1.6-2.1-1.7-4.2-3-4.8-3-.5,0-1.2-.6-1.5-1.4s-1.5-1.6-2.7-1.8c-1.1-.2-2.1-.8-2.1-1.3,0-1.7,2.7-1.7,4.1,0,.7.8,2,1.5,2.9,1.5s2.2.5,2.8,1.1c1.4,1.4,5.2,3.6,7.5,4.5,1,.3,1.8,1.3,1.8,2Z"/>
  <path class="b" d="m701.95,285.76c.7.2,1.3,1.4,1.3,2.5,0,1.7-.4,1.9-2.3,1.3-1.2-.4-4.3-1-7-1.2-3.1-.3-4.7-1-4.7-1.9,0-1,1.4-1.4,5.7-1.3,3.2,0,6.4.3,7,.6Z"/>
  <path class="b" d="m702.75,108.96c.3.5.1,1.2-.4,1.5-1.2.8-4.1-.3-4.1-1.5s3.7-1.2,4.5,0Z"/>
  <path class="b" d="m699.55,94.76c1.1,1,.8,4.3-.3,4.3-.9,0-3-3.1-3-4.4,0-.8,2.5-.7,3.3.1Z"/>
  <path class="b" d="m696.85,274.56c.9-2.1,3.4-1.9,3.4.4s-2.4,4.4-4.6,3.9c-2.3-.4-3-2.8-1-2.8.9,0,1.9-.7,2.2-1.5Z"/>
  <path class="b" d="m697.25,145.66c1,1.1.9,1.4-.8,1.4-2.5,0-3.7-1.6-1.8-2.3.8-.3,2,.1,2.6.9Z"/>
  <path class="b" d="m692.25,108.06c.5,0,1,.7,1,1.5s-.5,1.5-1,1.5c-.6,0-1,.7-1,1.5s-.5,1.5-1,1.5c-.6,0-1-.7-1-1.5s.4-1.5,1-1.5c.5,0,1-.7,1-1.5s.4-1.5,1-1.5Z"/>
  <path class="b" d="m690.55,96.16c2.2,2,1.3,4.7-1.9,5.5-1.7.4-4.6-.8-10.7-4.5-4.7-2.8-8.9-5.1-9.5-5.1s-1.2-.4-1.4-1c-.4-1.2-17.7-10.3-34.7-18.3-3.8-1.8-5.8-3.4-6.7-5.5-1.9-4.7.5-5.5,6.6-2.2,1.9,1,6,3,9,4.3,20.5,9.2,44.3,22.1,49.3,26.8Z"/>
  <path class="b" d="m689.75,142.06c.8,1.3-2,2.4-3.6,1.5-.8-.6-.7-1,.2-1.6,1.8-1.1,2.6-1.1,3.4.1Z"/>
  <path class="b" d="m687.25,115.06c.6,0,1,.5.8,1.2-.6,1.6-3.6,3.4-4.4,2.6-.8-.9,2-3.8,3.6-3.8Z"/>
  <path class="b" d="m685.35,242.76c3.3,6.4,2.2,7.7-2.3,2.7-5.4-6-14.1-14.5-17.5-17.1-1.8-1.4-3.5-3.5-3.8-4.6-.6-2-5-13.2-8-20.2-.7-1.7-2.1-5-3-7.5-1-2.5-2.6-6.2-3.7-8.3s-1.7-4.4-1.4-5.2c.7-1.9,9.9-2.1,11.3-.3.5.7,1.8,3.3,2.8,5.8,2.7,6.7,6.4,15,8.6,19.3,1,2.1,1.9,4.4,1.9,5.1s.7,1.9,1.5,2.6,1.5,2.3,1.5,3.5.7,2.8,1.5,3.5,1.5,1.8,1.5,2.5,1.4,3.9,3.1,7.1c1.8,3.2,4.4,8.3,6,11.1Z"/>
  <path class="b" d="m686.25,79.06c1.2.8,1.2,1-.2,1.5-2,.8-4.1-.2-3.3-1.6.8-1.1,1.6-1.1,3.5.1Z"/>
  <path class="b" d="m685.55,150.86c1,1.1,1.3,2.3.7,3.2-.4.8-1.1,3.5-1.5,6s-1.1,4.9-1.5,5.5c-.4.5-1,4.3-1.4,8.4-.7,8-1.1,9-2.6,7.5-.7-.7-.5-4.8.5-11.9.9-6.1,1.9-12.9,2.2-15.3.7-5,1.5-5.8,3.6-3.4Z"/>
  <path class="b" d="m684.95,133.76c2.6.5,3.1,2.8.7,3.7-2,.8-10.2.8-13.2,0-1.2-.4-2.2-1.2-2.2-1.9,0-1.9,8.6-3,14.7-1.8Z"/>
  <path class="b" d="m680.95,287.36c4.9,2.5,6,5.4,1.5,4.1-1.5-.4-5.1-.8-8-1-6.2-.3-7-.7-4.9-2.9,2.6-2.5,6.8-2.6,11.4-.2Z"/>
  <path class="b" d="m679.45,104.56c2.1,1.1,3.8,2.7,3.8,3.5,0,.9-2.3,3.7-5,6.4-2.8,2.7-5,5.6-5,6.6,0,2.4-3.2,5-6.3,5-1.7,0-2.7.5-2.7,1.5,0,2.1-1.6,1.9-4.1-.6-1.7-1.7-2.7-1.9-6.7-1.3-2.6.3-5.5,1-6.4,1.5-2.9,1.5-3.8,1-3.8-2.3,0-1.8-.6-5-1.4-7.3-.8-2.2-2.2-6.7-3.1-10-1-3.3-2.4-7.4-3.2-9.2-.7-1.7-1.3-3.7-1.3-4.5,0-1.8-3.9-12-5.2-13.6-1.8-2.1.4-3.3,3.2-1.7,1.4.7,5.2,2.7,8.5,4.4,7.6,3.9,16.8,9,27,15,4.4,2.6,9.7,5.6,11.7,6.6Z"/>
  <path class="b" d="m680.05,306.96c.9.5,0,1-2.7,1.5-4.5.7-9.1-.1-9.1-1.5,0-1.1,10.1-1.2,11.8,0Z"/>
  <path class="b" d="m675.05,146.56c3.8-.7,5.3,1.5,3.2,4.9-1.2,1.8-2.8,9.2-4.7,21.3-.5,3-.8,3.3-4.2,3.3-4.8-.1-6.7-1.7-8.6-7.4-.9-2.6-3.2-7.2-5.1-10.1-1.9-3-3.4-5.8-3.4-6.3s-.6-1.5-1.4-2.1c-1.8-1.5-3-6.1-1.9-7.2.4-.4,1.6-.3,2.6.2,1,.6,4.6,1.2,8,1.4,3.4.1,7.5.8,9.2,1.5,1.6.6,4.5.9,6.3.5Z"/>
  <path class="b" d="m674.95,247.66c2.6,2.4,3,5.6.9,7.3-.7.6-3.4,1.4-6,1.7l-4.6.7v-3.9c-.1-3.8-1.1-9.5-2.5-14.2-1.2-3.7,2-2.7,6.2,2,2.1,2.3,4.8,5.2,6,6.4Z"/>
  <path class="b" d="m673.15,73.06c1.2,0,2.1.4,2.1,1,0,.5-.6,1-1.4,1s-1.8-.5-2.1-1c-.3-.6.3-1,1.4-1Z"/>
  <path class="b" d="m670.25,265.66c0,1.7-2.2,1.4-2.8-.4-.2-.7.3-1.2,1.2-1.2s1.6.7,1.6,1.6Z"/>
  <path class="b" d="m665.25,278.96c4.7.8,4.7,3.5.1,3.9-4.5.5-8.1-.5-8.1-2.2,0-1.3,2.3-2.8,3.8-2.5.4.1,2.3.4,4.2.8Z"/>
  <path class="b" d="m663.25,68.06c0,.5-.9,1-1.9,1-1.1,0-2.3-.5-2.6-1-.4-.6.5-1,1.9-1s2.6.4,2.6,1Z"/>
  <path class="b" d="m662.15,267.96c2,1.3.7,3.8-2.3,4.3-3.4.7-4.3-.8-2-3.3,1.9-2.1,2.3-2.2,4.3-1Z"/>
  <path class="b" d="m660.05,254.46c1.4,2.9,1.3,3.1-1.4,5.4-1.6,1.3-4.1,3.5-5.6,4.9-3.1,2.7-4.8,2.3-4.8-1,0-2.7-4.7-20.1-6.6-24.4-.8-1.7-1.4-3.6-1.4-4.3,0-.6-1.3-5.1-2.9-9.8-1.6-4.8-3.7-11.4-4.6-14.7-2.5-8.3-4.5-14.5-6-18-3.2-7.8-3.6-9.5-3-10.5s10.9-1.1,12.4,0c1.1.8,5.8,13.3,6.8,18,.3,1.4.9,2.9,1.3,3.5.5.5,1.8,3.9,3,7.5,1.3,3.6,2.6,6.9,3,7.5,1.7,2.4,4.9,13.8,6.6,23,1,5.5,2.4,11.3,3.2,12.9Z"/>
  <path class="b" d="m656.95,63.76c2.4.9,1.3,2.3-1.7,2.3-2,0-3-.5-3-1.5,0-1.5,2.2-1.9,4.7-.8Z"/>
  <path class="b" d="m647.85,163.16c1.4,2.2,6.3,12.3,6.1,12.5-.1.1-2.5.4-5.2.6l-5,.3-3.3-6.5c-1.7-3.5-3.2-6.8-3.2-7.2,0-1.2,9.8-.9,10.6.3Z"/>
  <path class="b" d="m648.25,60.26c3.7.5,3.7,2.8.1,2.8-2.1,0-3.1-.5-3.1-1.5s-1-1.5-2.9-1.5c-1.6,0-3.4-.7-4.1-1.5s-2.2-1.5-3.4-1.5c-1.1,0-3-.7-4-1.5-1.1-.8-3-1.5-4.2-1.5s-2.7-.7-3.4-1.5-1.8-1.5-2.6-1.5c-1.7,0-2.9-2-1.8-2.9.5-.4,1.9-.5,3.1-.3s2.7,1,3.3,1.8c.7.8,2.3,1.4,3.5,1.4s2.8.7,3.5,1.5,2.1,1.5,3.1,1.5c.9,0,2.4.7,3.3,1.5.8.8,2.1,1.5,3,1.5.8,0,2.1.6,2.9,1.4.7.8,2.4,1.6,3.7,1.8Z"/>
  <path class="b" d="m647.15,141.36c1.5,1.9.4,2.7-3.7,2.7-2,0-4.3.6-5.1,1.4-1.2,1.1-5,1.5-14.6,1.7l-12.9.2-.8-2.8c-.4-1.6-.6-3-.5-3.1s8.4-.4,18.3-.8c14.7-.5,18.3-.4,19.3.7Z"/>
  <path class="b" d="m643.25,152.06c0,.5-1.8,1-3.9,1s-4.3-.5-4.6-1c-.4-.6,1.2-1,3.9-1,2.5,0,4.6.4,4.6,1Z"/>
  <path class="b" d="m635.75,124.46c2.6,3.4,1.9,4.6-2.9,4.6-5.8,0-7.6-.8-7.6-3.2,0-1-.7-4.3-1.6-7.1-.8-2.9-2.2-7.7-3.1-10.7s-1.9-6.4-2.3-7.5c-2.3-5.9-4.4-12.1-5.1-14.9-.4-1.7-1.7-5.6-2.8-8.6-2.2-5.6-2.7-9.1-1.4-8.9.5.1,1.7.4,2.7.6,1.1.3,3.7,1.6,5.7,2.9,3,1.8,3.9,3.2,4.4,6.1.4,2.1,1.3,5.8,2,8.3.8,2.5,2.1,7.2,3,10.5,2.5,9,4.6,15.6,6.1,19.3.8,1.8,1.4,4,1.4,5,0,.9.7,2.6,1.5,3.6Z"/>
  <path class="b" d="m632.95,172.16c.9,1.5,1.4,3.1,1.1,3.4-.3.4-3,.7-5.8.9-5.7.2-9-1.8-9-5.6,0-1.1-.7-3.2-1.5-4.7-.8-1.6-1.1-3.1-.8-3.5.4-.3,3-.6,5.9-.6,4.3,0,5.6.4,6.8,2.2.9,1.2,1.6,2.9,1.6,3.6,0,.8.8,2.7,1.7,4.3Z"/>
  <path class="b" d="m624.25,152.06c0,1.2-1.7,1.2-4.5,0-1.7-.7-1.5-.9,1.2-.9,1.8-.1,3.3.3,3.3.9Z"/>
  <path class="b" d="m619.25,127.16c0,1.6-.8,1.9-5.8,1.9-3.1,0-6.2-.4-6.8-.8s-1.6-2.7-2.2-5.2c-2.68-11.1-6.53-23.17-20.31-63.86l2.8-.94c.79,1.77,3.39,4.5,10.51,12,4,4.2,6,7.2,6.7,10.1.5,2.3,1.7,6.7,2.6,9.7s2.1,7.3,2.7,9.5c.5,2.2,1.3,4.9,1.8,6,1.5,3.7,4.2,12,4.7,14.7.3,1.5,1.1,3.3,1.9,3.9s1.4,2,1.4,3Z"/>
  <path class="b" d="m617.65,62.26c.6,2.5.4,2.8-1.8,2.8-1.4,0-2.8-.5-3.1-1-.3-.6-1.4-1-2.3-1-2.7,0-3.9-1.3-4.7-4.8-.6-2.8-.4-3.2,1.4-3.2,1.1,0,2.2.4,2.6.9.3.5,1.9,1.2,3.5,1.6,3.3.7,3.5.9,4.4,4.7Z"/>
  <path class="b" d="m611.35,173.66c2.9,1.7-.3,2.4-11.4,2.2-6.7-.1-10.2-.3-7.7-.5s5.5-.5,6.6-.8c2.4-.5,3.9-4.5,2.9-7.6-.6-1.8-1.8-1.9-22-1.9-5.48,0-9.56.01-12.64.05l-.02-2.72c37.93-.39,40.17-.14,41.06,1.37.5,1,1.2,3.5,1.6,5.6.4,2,1.1,4,1.6,4.3Z"/>
  <path class="b" d="m602.05,143.46c.6,1.3.8,2.7.5,3-.4.3-57.4.6-126.9.6-110,0-126.5-.2-129-1.5-2.4-1.2-9.1-1.5-40.5-1.5s-37.9-.3-38.8-1.3c-.6-.8-.8-1.7-.4-2,.3-.4,18.2-.6,39.7-.5,21.5.2,96.5.4,166.7.5l127.6.3,1.1,2.4Z"/>
  <path class="b" d="m596.05,151.06c4.5,0,8.2.4,8.2.8,0,1-14.6.9-15.6-.1-.4-.4,2.9-.7,7.4-.7Z"/>
  <path class="b" d="m596.95,53.76c3.8.4,4.3.7,4.3,2.9,0,3.1-2.6,3.2-8.1.4-3.6-1.9-4.6-4.3-1.6-3.8.7.1,3.1.3,5.4.5Z"/>
  <path class="b" d="m596.45,27.26c2.1,1.7,3.2,5.4,1.8,6.3-1.3.8-8-1.3-8-2.6,0-1.9,2.1-4.9,3.3-4.9.7,0,2,.6,2.9,1.2Z"/>
  <path class="b" d="m596.55,39.86c.9.2,1.5.8,1.2,1.3-.8,1.2-4.5,1.2-4.5,0,0-1.3,1.2-1.8,3.3-1.3Z"/>
  <path class="b" d="m596.05,168.76c3.9,1.5-1.9,2.3-17.8,2.3s-21.7-.8-17.4-2.4c1.9-.7,33.4-.7,35.2.1Z"/>
  <path class="b" d="m587.15,37.06c1.2,0,2.1.4,2.1,1,0,.5-.6,1-1.4,1s-1.8-.5-2.1-1c-.3-.6.3-1,1.4-1Z"/>
  <path class="b" d="m585.25,49.76c1.5,2,2,3.6,1.6,5.6-.22,1.15-.38,1.85.09,2.9l-2.8.94c-.13-.37-.26-.76-.39-1.14-.8-2.5-2-5.3-2.5-6.2-2.8-4.9.5-6.5,4-2.1Z"/>
  <path class="b" d="m571.25,151.36c9.1-.1,15.6.1,14.5.5s-8.5.5-16.5.1l-14.5-.5,16.5-.1Z"/>
  <path class="b" d="m572.15,175.26c15.4.2,15.3.2-5.9.8-11.8.3-22.1.3-22.8.1-1-.3-.9-.8.3-2.1,1-1.1,1.5-3.1,1.3-5.2-.26-2.79-.37-3.22-3.3-3.22l-.03-2.99c3.19-.03,6.43-.06,9.73-.09,5.79-.07,10.99-.12,15.64-.17l.02,2.72c-8.57.14-9.39.61-10.86,2.15-1.1,1.2-2,2.9-2,3.8,0,3.5,2.1,4,17.9,4.2Z"/>
  <path class="b" d="m550.95,151.16c2.5,0,2.6.1.8.9-2.7,1.2-3.5,1.2-3.5,0,0-.6,1.2-1,2.7-.9Z"/>
  <path class="b" d="m541.72,162.65l.03,2.99c-.44,0-.93.01-1.5.02-2.5.1-8.1.7-12.5,1.2-4.9.7-37.8,1.1-86,1.1-72.1.1-78.2.2-80.5,1.8-3.7,2.5-5.9,5.5-6,7.8,0,4.7,7.5,12.2,13.8,13.8,2.2.5,7.1-.6,15.7-3.4,1.6-.5,8.3-1.9,14.8-3,10.9-1.8,16.8-1.9,70.5-1.9,32.3,0,59.3.5,60.1,1,1.1.6-.2,1.6-5,3.7-12.4,5.7-14.8,6.1-39.9,6.8-12.9.3-27.1,1-31.5,1.5s-24.4.9-44.5.9c-31.7.1-37-.1-41-1.6-8.4-3.1-15-9.1-18.1-16.4-1-2.7-.9-3.6,1.2-7.7,1.3-2.6,2.2-5.7,2-7-.2-1.7.3-2.2,2.1-2.2,1.3,0,2.9.5,3.4,1,.98.98,41.07.9,182.87-.41Z"/>
  <path class="b" d="m540.65,152.66c.9.8,1.6,2.4,1.6,3.5,0,1.7-.6,2-4.2,1.7-4.8-.4-5.8-1.8-2.9-4.7,2.5-2.5,3.5-2.6,5.5-.5Z"/>
  <path class="b" d="m529.85,153.56c1.4,1,0,1.3-8.2,1.7-12.6.7-27,.5-27.9-.4-.4-.4-.4-1.2,0-1.8,1-1.6,33.9-1.2,36.1.5Z"/>
  <path class="b" d="m489.05,155.26l.3,2.8h-12.4c-10.5,0-12.6-.3-13.1-1.6-.5-1.4,3-5.6,4.4-5.2.3.1,5,.4,10.5.7l10,.6.3,2.7Z"/>
  <path class="b" d="m459.75,153.16c.4.6.4,1.3,0,1.7s-9.3.7-19.9.7c-9.26,0-15.14.19-18.21.58l-.31-2.45c.6-.07,1.3-.25,2.12-.53,4.1-1.5,35.5-1.5,36.3,0Z"/>
  <path class="b" d="m421.33,153.69l.31,2.45c-1.37.16-2.18.37-2.49.62-.9.7-5.4,1.3-10.9,1.4-8.8.2-9.5,0-9.8-1.8-.2-1.1.3-2.5,1-3.1,2-1.6,16.7-2,19-.4.92.72,1.75.97,2.88.83Z"/>
  <path class="b" d="m393.85,153.16c1.5,2.4-2.7,3-19.3,2.6-16.9-.3-20.2-.9-17.3-2.7,2.2-1.4,35.7-1.3,36.6.1Z"/>
  <path class="b" d="m349.75,154.36q2,3.8,0,5.3c-1.6,1.3-3.3,1.4-8.5.8-3.6-.4-35.1-.8-70-.9-65.6-.2-71,.1-80.2,3.9-3.8,1.6-25.7,2.4-27.1.9-.4-.3-.1-1.3.7-2.2,4.4-4.9,1.8-11.2-6.3-15.7-8.5-4.6-5.8-5.9,9.4-4.4,4.4.5,26.4.9,48.9.9h40.9l2.6,2.3c6.2,5.5,4.6,5.3,47.6,5.3h40l2,3.8Z"/>
  <path class="b" d="m330.15,166.46c1.3,1.5.5,4.6-1.3,4.7h-31c-31.1.1-32-.1-31.3-4.1.3-2.2,61.8-2.8,63.6-.6Z"/>
  <path class="b" d="m320.95,191.86c1.7,1,1.7,1.1-.1,3.1-1,1.1-3.4,2.3-5.2,2.7-1.9.3-3.7,1-4,1.5s-3.3.9-6.7.8c-7.4-.1-5.1-1.7,2.5-1.8,2.7-.1,4.8-.5,4.8-1,0-.4,1.4-1.2,3.2-1.7,1.7-.5,3.3-1.5,3.6-2.3.4-1.1-1.1-1.2-7.9-.7-9.31.85-13.02-.27-15.17-4.67l2.87-.23c.24.61.54-.05,1.4-2.2,1.1-2.4,5-5.7,6.3-5.2.1,0,2.3.8,4.9,1.7s5.9,2.6,7.5,3.8c2.4,1.8,2.6,2.3,1.5,3.7-1.1,1.3-1,1.7.5,2.5Z"/>
  <path class="b" d="m313.25,107.06c0,1.2-1.7,1.2-4.5,0-1.7-.7-1.5-.9,1.2-.9,1.8-.1,3.3.3,3.3.9Z"/>
  <path class="b" d="m301.15,124.66c5-1.9,11.5-2.2,10.9-.4-.3.7-2.1,1.4-4.1,1.6-2.2.2-4.2,1.1-5,2.2-1.3,1.9-2.7,2-29.1,1.7l-27.7-.2.5-2.9c1.3-6.5,4.6-7.7,14.1-5,2.7.7,7.6,1.4,10.8,1.4s6.8.5,7.9,1.1c3.8,2,17.2,2.4,21.7.5Z"/>
  <path class="b" d="m308.95,111.76c2.6,1,1.1,2.1-3.8,2.7-5.5.8-8.8-.6-5.9-2.4,1.6-1,7.6-1.2,9.7-.3Z"/>
  <path class="b" d="m297.95,181.06c2.1,0,2.3.3,1.3,1.4-.6.8-1,2.5-.7,3.8.11.62.2,1.06.3,1.3l-2.87.23c-.11-.23-.22-.48-.33-.73-1.7-3.9-.9-6,2.3-6Z"/>
  <path class="b" d="m290.75,119.66c6.4.8,8.5,1.4,8.5,2.5,0,1.9-14.3.7-16.4-1.4-1-.9-3.3-1.7-5.4-1.8-3,0-3.3-.2-1.7-.9,2.5-1.1,3.1-1,7.5.2,1.9.5,5.3,1.2,7.5,1.4Z"/>
  <path class="b" d="m292.85,111.06c1.7,0,2.4.5,2.4,2,0,2.1-2.4,2.7-4.9,1.1-1.9-1.2-.4-3.1,2.5-3.1Z"/>
  <path class="b" d="m289.65,195.06c1.7,0,5.2,2.7,4.5,3.5-.8.7-6.6-.7-15.3-3.8-8.8-3.2-9.8-4.3-6.7-6.8,2.8-2.3,3.7-2.4,4.8-.5,1,1.7,10.8,7.6,12.7,7.6Z"/>
  <path class="b" d="m292.15,182.76c.6,1.2.7,3.2.2,4.9-.9,3.3-2.4,3.4-8.4.3-2.1-1-4.4-1.9-5.2-1.9-2,0-1.9-2.6.1-3.4.9-.3,4-.9,6.9-1.2,4.6-.6,5.4-.4,6.4,1.3Z"/>
  <path class="b" d="m285.55,111.76c1.5,1.4.6,2.3-2.3,2.3-2,0-3-.5-3-1.5,0-1.5,4-2.1,5.3-.8Z"/>
  <path class="b" d="m279.25,81.46v10.4l-3,.4c-1.7.3-3.5-.1-4.1-.8-1.3-1.6-.7-21.6.7-22.1.5-.2,1.3,0,1.7.3.4.4.7,2.2.7,4.1,0,1.8.4,3.3,1,3.3.5,0,1-1.4,1-3,0-1.7.4-3,1-3s1,4.1,1,10.4Z"/>
  <path class="b" d="m276.55,111.66c1.1,1.2-.3,2.4-2.9,2.4-1.5,0-2.4-.6-2.4-1.5,0-1.5,4-2.1,5.3-.9Z"/>
  <ellipse class="b" cx="264.25" cy="112.56" rx="2" ry="1.5"/>
  <path class="b" d="m258.85,199.36c2.8,2.2,3,3.5.5,6.4-1.4,1.7-2.6,2.1-6,1.7-2.5-.2-5.4.2-7,1.1-1.5.7-3.7,1.2-4.8.9-3.1-.8-5.5,6.3-3.7,11,1,2.5,3.3,1.9,4-1.2.4-1.5.9-3.1,1.2-3.6.6-1.1,4.2,6.1,4.2,8.4,0,2.64-2.79,4.36-4.76,3.84-.71-.2-1.32-.68-1.64-1.54-.5-1.3-.9-1.4-1.9-.4-1.32,1.32-.29,2.34,3.3,3.1,1.02.22,2.26.42,3.7.6,6.3.7,7.2,3,1.7,4-4.4.8-15.6-.1-18.1-1.5-1-.5-4.1-1.7-7-2.6-7.3-2.3-7.7-4.5-2.1-11.6,1.5-2,2.8-3.9,2.8-4.3,0-1,12.2-18.1,15.3-21.4,3.6-3.7,6.1-4,12.7-1.3,3.2,1.3,4.6,2.5,4.8,4.2.2,1.2,1.5,3.1,2.8,4.2Z"/>
  <path class="b" d="m257.85,112.16c.6,1-1.1,2.9-2.6,2.9-.3,0-1.1-.4-1.9-.9-1.7-1.1-.5-3.1,1.9-3.1,1,0,2.2.5,2.6,1.1Z"/>
  <path class="b" d="m253.25,209.66c.7-.7,1,.8.9,4.9l-.1,6-1-4.9c-.6-3.3-.6-5.2.2-6Z"/>
  <path class="b" d="m249.25,112.76c0,1.5-.9,2.2-3.1,2.7-7.8,1.5-19.8.2-14.7-1.7,3.1-1.1-.4-1.7-4.3-.8-5.6,1.3-22.1,1.4-25.1.2-1.3-.5-3.6-1.2-5.1-1.6-1.6-.3-2.7-1.1-2.4-1.8.4-1.2,7.5-1.5,17.7-.8,3.9.3,12.4-.8,19.7-2.4,1.8-.4,2.3-.1,2.3,1.3,0,2.4,5.6,4.2,11,3.5,3.5-.5,4-.3,4,1.4Z"/>
  <path class="b" d="m239.65,86.26c.5,6.5.4,6.8-1.7,6.8-3.3,0-5-8.4-3.5-17.5,1.4-8.1,3.4-8.8,4.2-1.3.3,2.9.7,8.3,1,12Z"/>
  <path class="b" d="m231.95,90.56c1.5,6.8.5,8.5-5.2,8.5-4.1,0-7.3-1.9-4.7-2.8,1.23-.41,1.52-2.31.8-2.97l1.58-1.75,1.12,1.02-.7-4.3c-.6-3.9-.5-4.2,1.6-4.2,3.5,0,4.3,1,5.5,6.5Z"/>
  <path class="b" d="m229.85,67.06c2.2,0,2.5.3,2,2.2-.3,1.3-.6,3.5-.6,4.9,0,1.6-.7,3-1.6,3.3-.9.4-7.2.9-14,1.2-12,.5-12.4.5-12.4-1.5,0-2.2,3-9.1,3.9-9.1.3,0,1.9.9,3.6,2s4.7,2,6.8,2c4,0,9.7-2.4,9.7-4,0-.6,1.2-1,2.6-1Z"/>
  <path class="b" d="m224.43,91.54l-1.58,1.75c-.15-.14-.35-.23-.6-.23-.6,0-1.3.7-1.6,1.5-.4.8-1.5,1.5-2.5,1.5-2.8,0-7.9-4-7.9-6.2,0-1.1-.5-1.6-1-1.3-1.5.9-1.2,5.2.6,6.9,1.8,1.9,1.1,3.6-1.5,3.6-1.1,0-2.1.9-2.4,2.1-.5,1.8-1.1,2.1-3.9,1.6-1.8-.3-4.2-.2-5.3.2-1.1.5-2.7.3-3.7-.3-1.3-.8-2.1-.7-3,.2-1.1,1.1-1,1.5.4,2.3,3.9,2.2,1.6,3-7.9,2.7-6-.2-9.8-.7-10-1.4-.6-1.7,7.3-2.7,9.7-1.2,1.5,1,2.2,1,3.2,0,1.7-1.7.5-2.4-5.9-3.3-2.33-.34-3.83-.47-4.94-.35l-.1-1.71c2.89-.16,6.12-.32,9.24-.44,14.2-.6,21.5-2.4,21.5-5.2,0-.7-.7-2.9-1.5-4.9-1.3-3.2-1.4-3.9-.1-5.1,1.4-1.5,7.6-.9,7.6.7,0,.5,1.9,1.1,4.1,1.4,2.6.3,5.2,1.6,7.1,3.4l1.98,1.78Z"/>
  <path class="b" d="m218.25,61.26c1.9,0,2.7.2,1.7.5-.9.2-2.5.2-3.5,0-.9-.3-.1-.5,1.8-.5Z"/>
  <path class="b" d="m205.95,127.36c.7-.3,1.3,0,1.3.6s-.5,1.1-1,1.1c-.6,0-1.9.9-3,2-2.6,2.6-9.8,2.8-10.7.3-1.4-3.5,5.2-6.3,10.2-4.4,1.1.5,2.6.6,3.2.4Z"/>
  <path class="b" d="m196.85,114.16c1.5.5,2.5,1.1,2.3,1.4-.2.2-6.3.5-13.4.6h-.29l-.02-2.12c.21,0,.46-.43.91-1.28,1.1-1.9,7.9-2.5,7.9-.7,0,.6,1.2,1.5,2.6,2.1Z"/>
  <path class="b" d="m185.44,114.04l.02,2.12c-11.53.2-12.71.09-13.01-1.6-.5-2.4,1.5-3.5,6.9-3.5,3.6,0,4.9.4,5.4,1.7.3.85.48,1.28.69,1.28Z"/>
  <path class="b" d="m164.55,170.86c1.5,1.5,2.7,3.5,2.7,4.3,0,.9-2.1,2.6-4.8,3.9-2.6,1.2-6.2,3.7-8,5.3-3,2.9-3.2,3.5-3.2,10.4,0,8.4,2,13.1,8.2,19.4,4.2,4.2,4.2,4.3-3.2,5.4-9.5,1.4-9.2,1.6-10.6-4.5-.7-3-1.3-6.7-1.4-8.3,0-2.8-.9-3.4-2.6-1.7-.7.7-1.6.4-2.9-1-1.1-1.2-3.1-2-4.9-2-3.7,0-11.2,2.7-14.5,5.2-1.8,1.3-2.7,1.5-3.7.7s-2.1-.5-4.4,1.1c-1.6,1.2-3,2.6-3,3.1s-.6.9-1.3.9c-.8,0-2.2.9-3.1,1.9-1,1.1-2.5,1.7-3.3,1.4s-2.4-.1-3.6.4c-1.2.6-4.2,1.6-6.7,2.4s-4.5,2-4.5,2.6c0,2.9-2,1.3-2.6-1.8-1.1-7.2-2.7-7.2-4.8-.3-1.2,3.7-1.6,4-4,3.6-1.4-.3-4.6-1.6-7-2.9-2.4-1.2-5.2-2.3-6.2-2.3s-2.1-.5-2.4-1c-.3-.6-1.7-1-3-1-1.4,0-2.9-.9-3.5-2.1-.7-1.3-1.9-1.9-3.3-1.7-2,.3-2.2.9-2.2,6.3-.1,3.3-.5,6.8-.9,7.7-1.2,2.6-.1,4.7,2.9,5.3,1.4.3,3.6.7,5,1,2,.4,2.5,1.1,2.5,3.4,0,4.4,1,6.1,3.5,6.1,1.3,0,2.6.4,2.9.9.8,1.2-1.8,2.1-5.6,2.1-1.6,0-3.6.7-4.4,1.5-.9.8-2.8,1.5-4.4,1.5-2.3,0-3.3-.7-4.5-3.1-1.8-3.4-15.5-44.6-15.5-46.5,0-.6-.7-2.5-1.5-4-.8-1.6-1.5-3.6-1.5-4.4s-.7-3.3-1.5-5.5c-3-8.5-.9-15.9,4.3-15.3,2.3.3,2.8.9,3.3,4.3,1.8,13.1,14.9,27,30.1,31.9,7.8,2.6,25.9,2.8,30.9.5,1.9-.9,5-2.3,6.9-3.1,6.6-2.8,11.5-5.1,13-6,.8-.4,2.1-1,2.7-1.3,2.9-1.1,4.1-1.7,9.8-5,3.3-1.8,8.2-4.5,11-5.8,2.7-1.4,6.7-3.7,8.8-5.1s4.1-2.6,4.4-2.6c.4,0,2.5-2,4.9-4.5,4.8-5.2,7-5.6,10.7-1.7Z"/>
  <path class="b" d="m141.45,222.16c.8.6-.1.9-2.5.9-2,0-3.7-.2-3.7-.4,0-.9,5-1.2,6.2-.5Z"/>
  <path class="b" d="m105.35,231.06c2.4,0,3.8.4,3.4,1-.3.5-2.2,1-4.1,1s-3.4-.5-3.4-1c0-.6,1.8-1,4.1-1Z"/>
  <path class="b" d="m91.35,233.96c1.9-1.2,6.9-1.1,6.9.1,0,1.6-2.7,2.3-5.7,1.5-2.1-.5-2.4-.8-1.2-1.6Z"/>
  <path class="b" d="m77.35,232.26c.6,2.8.6,5.8-.1,5.8-1.1,0-1.9-4.9-.9-5.6.5-.3.9-.4,1-.2Z"/>
  <path class="b" d="m70.25,240.26c1.9,0,2.7.2,1.7.5-.9.2-2.5.2-3.5,0-.9-.3-.1-.5,1.8-.5Z"/>
  <path class="b" d="m57.15,262.46c1,1.2.8,1.6-1,2.1-1.7.6-2.7.2-4-1.4l-1.8-2.1,2.17-.41c0,.3.45.41,1.43.41,1.1,0,2.6.6,3.2,1.4Z"/>
</svg>