<?xml version="1.0" encoding="UTF-8"?>
<svg id="Layer_1" data-name="Layer 1" xmlns="http://www.w3.org/2000/svg" viewBox="0 0 264.51 62.71">
  <defs>
    <style>
      .cls-1 {
        fill: #fff;
      }
    </style>
  </defs>
  <path class="cls-1" d="M256.63,0c-.8,0-1.2,.4-.9,1,.4,.6-2.7,1-8.4,1-6.6,0-9.1,.3-9.1,1.2,0,1-.2,1-.8,.1-1.2-2-123.2-1.4-125.5,.6-1.1,.9-1.7,1-1.7,.2,0-.6-.7-1.1-1.5-1.1-1.5,0-6.4,2.7-7.5,4.1-.3,.3-1.9,1.1-3.5,1.6-1.7,.6-2.9,1.5-2.8,2.1,.2,.6-1.9,1.4-4.5,1.7-6.3,.9-8.5,1.2-9.7,1.6-.6,.1-2.9-.1-5.3-.5-2.9-.5-4.7-.4-5.7,.4-1.2,1-1.5,1-1.5,0,0-.9-1.1-1-3.8-.5-2,.4-6.4,.9-9.7,1.1s-6.2,.9-6.4,1.5c-.2,.7-.6,.8-1,.1-.4-.6-2.4-.7-5.3-.3-2.6,.4-6.7,.7-9.2,.7-3.2-.1-4.8,.4-5.1,1.4-.5,1.1-.8,1.1-1.4,.2-.5-.9-2-1-5.6-.3-2.8,.5-5.3,.7-5.8,.4-1.6-1-8.7,.9-8.7,2.3,0,.9-.5,1.2-1.2,.8s-.8-.3-.4,.4,.1,1.2-.8,1.2c-2.2,0-3.9,3.8-3.3,7.5,.3,1.8,.3,3.6-.1,4-1,1-.1,7.9,1.1,8.7,.9,.6,.9,.8,0,.8-1.6,0-.4,8.3,1.5,9.4,1.1,.6,1.1,1,.2,1.6s-.9,1.2-.1,2.9c.7,1.2,1.6,1.9,2.2,1.6,.5-.4,.9,.1,.9,.9,0,2.2,5.4,3.1,8.5,1.5,.6-.3,3-1.2,5.5-1.9,2.5-.7,4.9-1.8,5.5-2.4,.5-.6,1.6-1.1,2.2-1.2,2.9-.2,3.4-.4,2.9-1.3-.5-.8,1.1-1.3,8.2-2.7,2.8-.5,8.2-3.5,8.2-4.5,0-.6,.4-.8,.8-.5,1.3,.8,8.4-1.6,8.9-3.1,.6-1.6,13.3-1.9,13.3-.3,0,.5,1.8,1,4.1,1s3.8-.4,3.4-1c-.3-.6-.1-1.1,.4-1.1,.6-.1,1.5-.2,2.1-.3,.5,0,3-2.3,5.5-4.9,5.3-5.6,10.8-7.4,13.1-4.2,.8,1.1,1.4,1.5,1.4,.9,0-.5,.5-.2,1,.6,.6,1,2.8,1.5,6.6,1.6,5.7,.1,12.1-1.6,10.8-2.9-.4-.4,.1-.9,1-1.3,.9-.3,1.7-1.6,1.7-2.8,.1-1.8,.2-1.8,.6-.3,.4,1.7,.6,1.7,1.7,.2,1.6-2.2,7.4-3.4,13-2.5,2.5,.4,4.8,.5,5,.2,.3-.2,4.9-.4,10.3-.4,5.4-.1,10.3-.5,11-1s1.4-.5,1.7,.1c.4,.6,1.2,.8,1.9,.6,1.8-.6,16.5-1.6,22-1.5,2.7,.1,5.5-.4,6.3-1.1,1.1-.9,1.4-.9,1.4,0,0,1,6.2,1,9,.1,.3-.1,2.5-.2,5-.2,4.1,.1,4.2,0,1.5-.8-2.5-.6-2-.8,3-.9,5.5-.1,9.7-1.6,11.5-4.2,.3-.4,2.7-.3,5.3,.1,3.8,.6,5,.4,5.7-.9,.5-.9,1-1.1,1-.4,0,1.5,20,1.7,20,.2,0-.6,.4-.8,1-.4,.5,.3,1.8-.3,2.9-1.4,1.3-1.3,1.6-2.1,.8-2.5-.8-.3-.7-.8,.4-1.5,1.5-.9,1.5-1.5,.4-4.8-.9-2.6-2-3.9-3.4-4.1-1.2-.2-2.1-.8-2.1-1.3S257.53,0,256.63,0Zm.9,3c2.2,0,4.2,7.2,2.7,9.9-1.1,2.2-1.3,2.2-19.6,1.5-12.2-.4-18.4-.3-18.4,.4,0,2.1-6.9,4-17,4.6-30.3,1.8-61,3.6-72.8,4.2-12.8,.6-13.2,.7-13.2,2.9,0,7-14.1,8.8-19.9,2.5l-2.6-2.9-5.5,2.5c-6.3,2.9-9.5,5.6-11.7,9.8-1.4,2.7-1.7,2.8-6.5,2.3-2.8-.4-6-1.3-7.2-2-2.2-1.5-4-.8-44.6,16.2-11,4.6-11.6,4.8-13.3,3.1-2.4-2.2-3.5-7.2-4.2-19.5-.8-12.5,.2-14.9,6-15.3,2.2-.1,16.1-1.3,31-2.7,14.8-1.3,31-2.3,36-2.2,9.7,.2,18.6-1.9,22.1-5.1,1.3-1.3,3.2-1.8,5.9-1.6,2.2,.2,3.2,.1,2.2-.2-.9-.3-1.7-1.2-1.7-2,0-2.2,2.9-2.8,4.9-1,1,.9,2.2,1.6,2.7,1.6s.3-.4-.4-.9c-.9-.5,.8-1.4,5.2-2.5,5.7-1.4,14.6-1.6,72.6-1.6,43.3,0,66-.3,66-1,0-.6,.6-1,1.3-1Z"/>
  <path class="cls-1" d="M253.43,7c-4.5,0-5,.2-4.5,2,.4,1.6,1.4,2,4.9,2,2.3,0,4.6-.5,4.9-1,.3-.6,.1-1-.5-1s-.8-.5-.5-1c.4-.6-1.3-1-4.3-1Z"/>
  <path class="cls-1" d="M242.73,7c-3.8,0-4.5,.3-4.5,2s.7,2,4.5,2,4.5-.3,4.5-2-.7-2-4.5-2Z"/>
  <path class="cls-1" d="M232.33,7c-4.4,0-4.9,.2-4.4,2,.4,1.6,1.4,2,4.9,2,3.7,0,4.4-.3,4.4-2s-.7-2-4.9-2Z"/>
  <path class="cls-1" d="M190.23,7c-28.1,0-36,.3-36.1,1.2,0,1-.2,1-.6,0-.3-.7-2.4-1.2-5.4-1.2-4,0-4.9,.3-5,1.7-.1,1.7-.2,1.7-.6,0-.4-1.4-1.6-1.7-7.9-1.7h-7.4s0,3.1,0,3.1v3s15.2-.6,15.2-.6c24.4-1,77-1.1,80.2-.1,2.1,.6,2.7,.6,2.2-.3-.4-.6-.2-1.1,.3-1.1,.6,0,1.1-.9,1.1-2,0-2-.7-2-36-2Z"/>
  <path class="cls-1" d="M124.23,7c-.6,0-1,1.3-1,3,0,1.6,.4,3,1,3,.5,0,1-1.4,1-3,0-1.7-.5-3-1-3Z"/>
  <path class="cls-1" d="M119.33,9c-2.7,0-3.3,1.2-1.4,3.2,1.5,1.7,1.5,2-.7,4.3-3.3,3.5-2.1,5.5,3.5,5.5,2.6,0,4.4-.3,4.2-.8-.4-.6,6-.8,8.8-.2,2.2,.5,8.1-.2,8.9-1,.5-.6,.4-1.5-.4-2.5-.9-1.1-3.2-1.5-8.4-1.5-8,0-12-1.5-12.4-4.8-.2-1.3-1-2.2-2.1-2.2Z"/>
  <path class="cls-1" d="M144.43,18.5c.1,1.4,.8,2.5,1.4,2.5,1.7,0,2.4-2.6,1.1-3.9-1.8-1.8-2.7-1.3-2.5,1.4Z"/>
  <path class="cls-1" d="M112.23,24.2c-3.3,.1-3.7,.4-3.5,2.7,.3,4.3,.4,4.3,3.2,3.6,3.7-.9,5.5-2.8,4.7-4.9-.5-1.2-1.6-1.6-4.4-1.4Z"/>
  <path class="cls-1" d="M8.13,25c-1.2,0-1.6,.5-1.3,1.4,.3,.8,.1,1.7-.4,2-.9,.5-.9,4.4,.1,19,.3,3.2,1,6.2,1.7,6.6,.6,.4,1,1.1,.8,1.6-.1,.5,1,1.1,2.6,1.2,2.6,.3,2.8,.2,1.7-1.2-.7-.9-1-2.5-.6-3.8,.4-1.6,.3-1.9-.3-1-1,1.5-1.9-3.6-2.6-15.8-.2-5-.1-6.2,.4-3.5l.7,4,.1-3.7c.1-2-.1-4.3-.4-5.2s-1.5-1.6-2.5-1.6Z"/>
  <path class="cls-1" d="M105.23,26.2c-2.3,.5-2.4,3.5-.2,4,1.6,.4,1.9,.1,1.8-1.8-.1-1.6-.6-2.3-1.6-2.2Z"/>
</svg>