<?xml version="1.0" encoding="UTF-8"?>
<svg id="Layer_1" data-name="Layer 1" xmlns="http://www.w3.org/2000/svg" viewBox="0 0 265.78 137.67">
  <defs>
    <style>
      .cls-1 {
        fill: #fff;
      }
    </style>
  </defs>
  <path class="cls-1" d="m105.82.06c-3.3-.2-4.1.1-4.1,1.5,0,1.1-.3,1.3-.8.5s-1.2-.8-2.7.3c-1.6,1.2-1.7,1.7-.7,2.3,1.1.7,1.1.9-.2,1.4-.9.4-1.6,1.2-1.6,2,0,.7-1.1,2.3-2.5,3.5-2.7,2.3-3.7,5.4-1,3.2,1.5-1.2,5.5-.5,5.5,1.1,0,.8-11.1,1.3-22.4.9-3.1-.1-5.2.3-5.7,1.2-.6.9-.9.9-.9.1,0-.9-2.9-1.2-10-1.2-8.6,0-10.2-.3-12-2.1-1.5-1.5-3.2-2-6.8-1.9-2.6,0-6.1-.1-7.9-.3-2.1-.3-3.4.1-3.8,1-1.3,3.4-.6,3.7,8,3.4,7.1-.3,8.6-.1,9.1,1.3.6,1.5,6.7,1.6,69.7,1.4,50.2-.1,69.2.2,69.5,1,.2.6.9,1.1,1.5,1.1.7,0,1.7.8,2.3,1.8,1.4,2.2,1.7,11.9.4,12.7-.6.3-1,3.3-1,6.6s-.4,5.9-1,5.9-1,.6-1,1.4c0,1.1-6.3,1.5-34.8,2-20.2.5-36.3,1.2-38.5,1.9-4.3,1.2-5.7,3.5-5.7,9.7,0,4.9-3.7,9.6-8.8,11-2,.5-8.7,1-14.7,1-13.7,0-16.5,1.3-18.8,8.7-4.9,16.1-11.9,36.9-12.6,37.6-.5.5-1.2.4-1.5-.2-.4-.6-.2-1.1.5-1.1.8,0,.8-.4.1-1.2-.7-.9.3-5.1,3.4-14.3,2.4-7.1,4.4-13.7,4.4-14.6,0-1,.4-1.9.8-2.1s1.7-2.6,2.8-5.3c1.2-2.9,2.9-5.4,4.2-6,2.7-1.2,2.9-2.5.3-1.8-1,.2-3.5,2.1-5.4,4.1-3,3.1-4.5,6.6-9.7,22.7-3.4,10.4-6.4,19.6-6.7,20.2-.3.9.7,1.3,3.5,1.3s4.2.5,4.6,1.6c.9,2.3.7,7.2-.3,7.8-.7.5-13-2-34.9-6.9-1.9-.5-2.1-.9-1.2-2.5,1.8-3.4,1.2-4-4.4-4-7.7,0-8.6-.5-8.6-5.1,0-4.3,11.6-30,15-33.1,2-1.9,6-11.7,6-14.9,0-2.8-2.6-7.5-5.2-9.3-1.4-1-4.4-1.6-7.6-1.6-4,0-5.4-.4-5.9-1.7-.9-2.3,4-6.3,7.9-6.3,1.8,0,4.7-.5,6.5-1.2,4.1-1.5,4.4-4.4.7-8.7-2-2.4-3.6-3.2-7.5-3.7-5.5-.7-6.7-1.7-4.8-4,.9-1.1,2.2-1.4,4.2-1,2.1.4,4,0,6.4-1.5,2.7-1.7,3.6-1.9,4.8-.9.8.7,1.5,1.9,1.5,2.6,0,2.6,1.5,1.4,3.2-2.6.9-2.2,1.3-4,.8-4-.4,0-1.3-1.4-1.9-3.1-1.1-3.2-3.2-3.5-3.7-.5-.4,2.5-2.4,4.6-4.5,4.6-1.1,0-1.9.7-1.9,1.5,0,1.1-1.1,1.5-3.9,1.5-6.1,0-7.1.7-7.1,5,0,4,1.1,5,5.6,5,1.4,0,2.2.4,1.9,1-.3.5.3,1,1.5,1,3.2,0,2.3,4.2-1,4.6-1.4.1-3.8.7-5.5,1.4-2.2.9-2.6,1.3-1.5,2s.8,1-1.2,1.5c-1.9.5-2.7,1.5-3,3.6-.3,1.6-.1,3.4.3,4.1.8,1.3,1.1,1.4,5.1,1.7,2.2.2,2.2.3.3,1.1-1.7.7-1.4.9,1.5,1.1,1.9.1,4,.3,4.7.3,2.5.3,7.8,9.6,5.4,9.6-.5,0-1.4,1.5-2,3.3-.7,1.9-2.1,4.4-3.3,5.7-2.8,3-6,9.2-5.4,10.6.2.6-.5,1.6-1.5,2.2-1,.7-1.9,2.3-1.9,3.7s-.3,2.5-.8,2.5c-1.2,0-5,9.2-5.7,14.1-.8,5.4.6,8.9,3.5,8.9,1.1,0,2.4.9,3,2s1.5,1.8,2.1,1.5c.5-.4,2.3.7,3.9,2.4,1.7,1.6,3,2.7,3,2.4s.6,0,1.4.6c.7.6,4.2,1.4,7.7,1.8,3.5.3,5.8.8,5.1,1.1-.6.2-1.2.8-1.2,1.3,0,.6.4.8.9.4.6-.3,4.4.2,8.7,1,4.2.9,8.2,1.4,9,1.1.7-.3,1.6-.1,1.9.4,1,1.6,3,1.1,6.1-1.5,1.9-1.7,2.4-2.5,1.4-2.6-1,0-1.1-.2-.3-.6,1.5-.6,1.8-8.9.3-9.8-.6-.4-.7-1.3-.1-2.3.5-.9,1.2-4.1,1.6-7,.4-2.8,1.1-5,1.5-4.7,1,.6,3.2-6.4,2.4-7.7-.3-.4-.1-.8.5-.8.5,0,1.3-1.5,1.6-3.2.4-1.8,1.2-3.9,1.7-4.6.7-.8.7-1.2-.3-1.2-.8,0-.4-.8.9-2,1.3-1.3,2.2-3.3,2.2-5.2,0-2.5.3-2.8,1.4-1.9,1,.8,1.6.8,2.5-.2.6-.8.8-1.7.4-2-.3-.4,1-.7,3-.7,2.1,0,3.7.2,3.7.5,0,.3-.9,2.4-2,4.6-1.2,2.2-1.8,4.4-1.5,4.9s-.3,1.8-1.5,3c-1.1,1.1-2.1,3-2.2,4.2-.2,3.7-.3,4.2-1.1,5.5-1,1.7.8,5.8,3.5,7.7,1.2.9,3.7,1.6,5.6,1.6,1.8,0,3.1.4,2.8.8-.6,1.1,4.1,5.6,6.9,6.7,2.7,1.1,4,1.3,10.5,2.1,3,.3,6.1,1,6.7,1.6.7.6,1.9.8,2.7.5.7-.3,1.7-.2,2.2.3,1.7,1.5,8.3,2.9,9,1.8.4-.7.9-.6,1.4.2,1,1.6,5-.8,4.3-2.5-.2-.7.4-1.5,1.5-1.7,1.5-.4,1.8-1.2,1.4-4.4-.3-2.1-.9-4.2-1.3-4.5-.5-.3-.3-2.7.6-5.4,1.1-3.8,1.2-5.1.2-5.7-.8-.5-.7-.8.5-.8s1.8-.8,1.8-2.4c0-3.5,1-5.7,2.4-5,.6.3.2-.2-.9-1.1q-2-1.6.1-2.1c2.5-.7,5-8.4,3.1-9.6-.8-.5-.6-.8.5-.8,1.6,0,2.3-1.7,1.9-4.3,0-.4.3-.7.8-.7s1.4-1.4,2-3c.9-2.8,1.4-3,5.8-3,2.7,0,5.4-.5,6.1-1.2.9-.9,1.2-.9,1.2,0,0,1.2,7.1,1.7,8.3.6.3-.3,2.7-.7,5.2-.9,3.1-.2,5.1-.9,6-2.1.8-1.1,1.5-1.5,1.5-1,0,.5,1.1-.1,2.5-1.4,2.4-2.2,2.4-2.5.8-3.1-1.1-.4-2.6.1-4,1.3-2.9,2.7-8.6,3.7-20.8,3.8-15.3,0-14.9-.3-22.3,22.7-3.3,10.3-6.3,19.8-6.7,21-.7,2.5-2.3,3-3.1,1-.6-1.8,10.2-34.2,13.2-39.5,1.6-2.6,3.7-4.7,5.9-5.6,3-1.3,5.6-4.2,5.5-6.3-.1-.4-.6.2-1.3,1.4-1.3,2.3-12.8,8.7-12,6.7.5-1.3,6.3-4.4,8.1-4.4.6,0,1.3-.4,1.6-.9.4-.5-.3-.7-1.4-.4-2,.5-5-1.2-5-2.8,0-1.3,13.7-1.1,14.5.1.4.6,1.1.8,1.6.4.5-.3.7-1,.4-1.5-1.4-2.1,2.9-.7,4.7,1.6,1.6,2,2.8,2.5,6.4,2.5,4.7,0,8.3-1.4,9.7-3.6,1.1-2,4.8-1.8,4.1.1-.9,2.4,4.3,1.9,5.8-.5.7-1.1,1.8-2,2.4-2,1.9,0,4.5-3.6,3.8-5.4-.4-1.1-.1-1.6,1-1.6.9,0,2.5-.9,3.5-1.9,1.6-1.6,2.1-1.7,2.5-.5.3.7,1.1,1.1,1.8.9.7-.3,7.1-.6,14.1-.8,9.5-.1,13-.6,13.6-1.6.5-.8,1.1-.9,1.5-.3.9,1.4,8.5.9,9.5-.6.7-1.1.9-1.1,1.4.1.5,1.3,2.2,1.5,9.4,1.1,5.7-.3,9.1-.9,9.8-1.7.5-.8,1.5-1.2,2.1-1s1.4-.3,1.7-1.2c.4-.8.1-1.5-.5-1.5-.7,0-.4-.6.5-1.3,1.2-.8,1.9-2.9,2-5.9.2-2.6.6-5.1,1-5.4,1.3-1.3.8-8.4-.6-8.4-.9,0-.8-.3.2-.9,3-1.9-1-8.9-5.5-9.7-3.3-.6-4.5-1.4-2.1-1.4,1,0,1.7-.4,1.7-.9,0-1.4-4.9-2.2-9.4-1.6-2.2.3-5.5.8-7.1,1-4.6.6-4.4.8,1,1.5,2.7.4-10.5.7-29.5.7s-33.3-.2-31.8-.4c1.6-.2,2.8-.8,2.8-1.3,0-.5-6.8-.9-15-.9s-15,.4-15,.9c0,.5.8,1.1,1.7,1.3,1,.3-6.4.5-16.5.6-14.3.1-18.2-.2-18.2-1.2,0-1.7-6.4-4-8.9-3.2-1.1.3-2.2.2-2.4-.2-.3-.4-2.4-.9-4.6-1Zm-6,4.7h9c7.4,0,8.9.3,8.9,1.6,0,1.4,7,1.5,69.5,1.2,56.7-.2,69.6-.1,70,1,.3.7.9,1,1.5.7.5-.3,1,.1,1,.9,0,.9.4,1.6,1,1.6,1.3,0,1.3,11.7,0,12.5-.6.3-1,3.3-1,6.6s-.4,5.9-1,5.9-1,.7-1,1.5c0,1.2-1.8,1.5-10.3,1.5-5.7,0-20.6.3-33,.7l-22.6.6.6-8.1c.5-7.5.4-8.5-1.8-11.6-1.3-1.9-3.9-4.4-5.9-5.5-2.9-1.6-3.2-2.1-1.7-2.6,2.1-.9,2.3-3.5.2-3.5-.8,0-1.7,1.1-2.1,2.5-.8,3.3-6,4.7-16.2,4.3l-7.7-.3-1-3.3c-.7-2.4-1.5-3.2-3.2-3.2-1.6,0-2.1.4-1.7,1.5.4.8,1,1.3,1.5,1,1-.7,3.1,3,2.2,3.9s-55.3.8-55.3-.2c0-.4.7-1.6,1.5-2.6,1.8-2.3,1.9-3.7.4-3.4-.6.2-1.3-.9-1.4-2.5l-.4-2.7Zm25,51h10.8s-2,4.7-2,4.7c-1.1,2.5-1.7,5.3-1.4,6.1s-.1,2.2-.9,3.1-4,9.7-7.1,19.6c-3.2,9.9-6.1,18.8-6.6,19.7-.8,1.6-.5,1.8,2.5,1.8,2.5,0,3.8.6,4.6,1.9,1.5,2.9,1.2,7.1-.5,7.7-.8.3-9.3-1.1-18.9-3.2l-17.4-3.7.9-2.4c.5-1.3.9-2.6.9-2.7,0-.2-3.2-.7-7-1l-7-.7v-4.1c0-2.7,1.5-7.2,4.7-13.9,4.6-9.8,4.6-9.9,8.2-9.9h3.6s-5.2,11-5.2,11c-5.7,11.7-6.6,15-4.4,15.8.9.3,1.1,0,.6-.7-.4-.7.1-1.8,1.1-2.6,1.1-.8,1.6-1.5,1.2-1.5-.3,0,1.3-4.4,3.8-9.8,2.4-5.3,4.4-10.2,4.4-10.8,0-.7,1.5-1.5,3.4-1.8,5.6-1.1,11.3-5.9,12.6-10.7.6-2.3,1.2-5.1,1.2-6.3.1-1.1.8-2.9,1.6-3.9,1.3-1.4,3.3-1.7,12.3-1.7Z"/>
  <path class="cls-1" d="m111.22,7.06c-3.3,0-4.8.2-3.3.4s4.2.2,6,0,.6-.4-2.7-.4Z"/>
  <path class="cls-1" d="m107.22,9.56c-1.4.2-2.5,1-2.5,1.7,0,1.8,5,3.8,6.4,2.6.7-.6,7.2-1.1,14.4-1.2,11.2-.1,13.1-.3,12.1-1.5-1.4-1.7-18.4-2-19.4-.4s-8.5,1.3-8.5-.4c0-.9-.8-1.2-2.5-.8Z"/>
  <path class="cls-1" d="m255.72,9.76h-5.2c-2.8,0-4.8.3-4.4.7.4.5,1.1.8,1.4.8.4,0,1.9,1.1,3.4,2.4,2.6,2.3,2.6,2.4.7,4.4-1,1.1-1.9,2.4-1.9,2.7,0,.4-2.3.5-5.1.2-3.7-.3-5.4-.1-6,.9s-.9,1-.9.1c0-1.7-5.1-1.5-7.4.3-1.8,1.3-.5,1.5,11.7,1.5h13.7s0-7,0-7v-7Z"/>
  <path class="cls-1" d="m222.22,23.56c-2.5.2-4.5.8-4.5,1.4,0,.5-.5.6-1.1.2-2.1-1.2-8.9-1-8.9.3,0,.7-.5,1.3-1,1.3-.6,0-1-.5-1-1,0-.6-2.1-1-4.8-1-3.1,0-4.2.3-3.3.9,1.1.7.9,1-1,1.4-1.3.2,3.8.5,11.3.6,8.5,0,13.8-.3,13.8-.9,0-.5,1.1-1.2,2.5-1.6,1.4-.3,2.5-.9,2.5-1.3,0-.3-2-.5-4.5-.3Z"/>
  <path class="cls-1" d="m255.72,25.76h-12.9c-7.1,0-14.3.3-16,.6-3,.6-3.1.9-3.1,5.5,0,3.6.4,4.9,1.4,4.9s1.6-1.3,1.8-3.8l.3-3.7h5c3.5,0,5.2-.5,5.7-1.5.5-1.2.7-1.2.7.2.1,1.4.8,1.7,4.3,1.3,2.4-.3,5.6-.2,7.1.1,2.5.5,2.8,1,2.5,3.4-.3,2.1,0,3,1.4,3.3,1.6.5,1.8-.2,1.8-4.9v-5.4Z"/>
  <path class="cls-1" d="m220.72,29.76h-11.4c-11.6,0-14.6.4-14.6,2.2,0,.5.4.6,1,.3.5-.3,1-.2,1,.4,0,.5-.6,1.2-1.3,1.4-.6.3,4.8.6,12,.6l13.3.1v-2.5s0-2.5,0-2.5Z"/>
  <path class="cls-1" d="m207.42,36.76c-8.9,0-12.7.3-11.7,1,2,1.3,25,1.3,25,0,0-.6-5.1-1-13.3-1Z"/>
  <path class="cls-1" d="m100.62,98.36c-1.1,1.4-1,1.8.6,3,1,.8,2.3,1.4,2.7,1.4,1.2,0,2.1-2.8,1.4-4.5-.7-2-3-1.9-4.7.1Z"/>
  <path class="cls-1" d="m228.72,3.76c0,.5,2.1,1,4.6,1s4.3-.3,4.1-.8c-.8-1.1-8.7-1.4-8.7-.2Z"/>
  <path class="cls-1" d="m218.22,3.76c-.4.6,1.2,1,3.9,1,2.5,0,4.6-.4,4.6-.8,0-1.2-7.8-1.4-8.5-.2Z"/>
  <path class="cls-1" d="m211.82,3.26c-2.3,0-4.1.3-4.1.7,0,.5,2.1.8,4.6.8s4.3-.3,4-.8c-.2-.4-2.3-.7-4.5-.7Z"/>
  <path class="cls-1" d="m201.22,2.96c-2.5-.1-4.5.2-4.5.8,0,.5,2,1,4.5,1s4.5-.4,4.5-.8c0-.5-2-1-4.5-1Z"/>
  <path class="cls-1" d="m186.12,3.96c-.4.5,1.4.8,3.9.8s4.7-.4,4.7-.9c0-1-7.5-.9-8.6.1Z"/>
  <path class="cls-1" d="m144.12,4.06c-.4.4,1.4.7,3.9.7s4.7-.4,4.7-.9c0-1-7.6-.8-8.6.2Z"/>
  <path class="cls-1" d="m133.72,3.76c0,.5,2.1,1,4.6,1s4.3-.4,4-.8c-.7-1.2-8.6-1.4-8.6-.2Z"/>
  <path class="cls-1" d="m127.22,2.76c-2.5,0-4.5.4-4.5,1,0,.5,2,1,4.5,1s4.5-.5,4.5-1c0-.6-2-1-4.5-1Z"/>
  <path class="cls-1" d="m183.72,21.76h-4c-4.6,0-5.7,2.5-1.4,3.6,2,.5,2.4,1.2,2.2,3.2-.2,1.4-1.2,3-2.3,3.6s-2.4,1.5-2.8,2.1c-.6.6-1,.6-1.4-.3-.3-.7-2.3-1.2-4.9-1.2-2.8,0-4.4.5-4.5,1.2,0,1-.2,1-.6,0-.6-1.5-3.9-1.6-4.8-.2-.4.6-1.5.8-2.6.5-1.2-.4-1.9-.2-1.9.7s3,1.2,14.5,1l14.5-.3v-7s0-6.9,0-6.9Z"/>
  <path class="cls-1" d="m111.72,21.96c-2.3,0-3,.4-3,1.9,0,1-.9,2.8-2,3.9-1.7,1.7-3.3,2-10.3,2-9.3,0-12.7-1.5-12.7-5.6,0-1.4-.6-2.4-1.5-2.4-1,0-1.4,1-1.3,3.4.1,2.6.9,4,3.2,5.8,3.2,2.3,3.6,2.4,10.8,2.7q4.3.2,1.8,1.6l-2.5,1.4,3.2.1c2.4,0,3.1-.4,2.7-1.4-.3-.8-.1-1.7.5-2.1.6-.3,1.1-.2,1.1.4,0,.7.9.7,2.7-.1,4-1.7,6.3-3.8,6.3-5.8,0-1,.9-2,2-2.3s2-1.2,2-2c0-.9-1.1-1.4-3-1.5Z"/>
  <path class="cls-1" d="m46.22,22.76c-.3.5-2.4,1-4.6,1s-3.9-.5-3.9-1c0-1.6-4.7-1.1-5.4.6-.8,2.2-.8,2.4.7,2.4.9,0,1.4,1.2,1.5,3.2.1,4.4-.5,5-3.2,3.3-2.2-1.5-2.4-1.4-3,.7-.3,1.3-.6,3.3-.6,4.6,0,2.2.1,2.2,3,.7,2.8-1.4,3.1-1.4,5,.5,1.1,1.1,2.2,2,2.5,2,.2,0,.5-3.5.7-7.7l.3-7.7h12.5s12.5-.1,12.5-.1l.3,7.7.3,7.8h15.5c10.4,0,16.1-.4,17.4-1.2,1.5-1,2.2-1,3.2,0,1.7,1.7,6.6,1.5,8.4-.3,1.4-1.3-.7-1.5-18.6-1.5-15.8,0-20-.3-19.4-1.3.5-.8.2-.8-.9.2-1.6,1.2-1.7.9-1.7-3.7,0-3.8-.4-5.4-1.8-6.1q-1.6-1,0-1.1c2.6,0,2.2-2.8-.5-3.3-4.6-.9-19.6-.7-20.2.3Z"/>
  <path class="cls-1" d="m51.02,29.96c-.2,2.1-.2,5.5,0,7.5.2,2.1.4.4.4-3.7s-.2-5.8-.4-3.8Z"/>
  <path class="cls-1" d="m54.02,30.46c-.2,1.8-.2,5,0,7,.2,2.1.4.6.4-3.2s-.2-5.5-.4-3.8Z"/>
  <path class="cls-1" d="m60.02,31.46c-.2,1.8-.2,4.8,0,6.5.2,1.8.4.4.4-3.2s-.2-5-.4-3.3Z"/>
  <path class="cls-1" d="m57.02,31.46c-.2,1.8-.2,4.8,0,6.5.2,1.8.4.4.4-3.2s-.2-5-.4-3.3Z"/>
  <path class="cls-1" d="m21.72,30.76c-2.9,1.5-2.8,2.3.2,5.2l2.8,2.7.6-2.4c.3-1.3.1-3.3-.6-4.4-.9-1.7-1.5-1.9-3-1.1Z"/>
  <path class="cls-1" d="m112.72,36.76c0,1.1.7,2,1.5,2s1.5.4,1.5,1,6,1,16.1,1c14.9,0,16.3-.2,18.7-2.1s2.5-2.1.5-1.5c-3.4,1.1-38.1,1-35.4-.1,1.1-.5,1.1-.7,0-1.4-2.2-1.4-2.9-1.1-2.9,1.1Z"/>
  <path class="cls-1" d="m183.72,37.76h-13.4c-7.3,0-14.6.5-16.2,1-2.8,1-2.9,1.3-2.6,6,.2,2.8.8,5,1.4,5,.5,0,.7-.3.5-.8-.3-.4-.1-2.5.3-4.7.7-3.9.8-3.9.9-.8,0,1.8.6,3.3,1.2,3.3s.8-.8.4-1.9c-.7-2.4,1.8-4.5,5-3.9,1.4.3,2.5.1,2.5-.4,0-.5.5-.6,1.2-.2.6.4,2.8.7,4.8.7s4.2-.3,4.8-.7c.7-.4,1.2-.2,1.2.3,0,.6.9,1.1,1.9,1.1,2,0,3.5,2.5,2.5,4.1-.3.5.4.9,1.5.9,1.8,0,2.1-.6,2.1-4.5v-4.5Z"/>
  <path class="cls-1" d="m96.22,41.96c-.5-.1-.4.3.3,1,1.6,1.6,1.5,5.5-.1,6.1-.6.3,1.8.6,5.4.6,4.3.1,7.2-.4,8.5-1.4,1.5-1.1,5.7-1.4,20.1-1.5,17.6,0,18.3-.1,18.3-2s-.8-2-25.8-2.3c-14.1-.1-26.1-.3-26.7-.5Z"/>
  <path class="cls-1" d="m59.72,42.16c-5.2,0-7.4.1-4.8.3,2.7.2,6.9.2,9.5,0,2.7-.2.5-.3-4.7-.3Z"/>
  <path class="cls-1" d="m37.32,45.26c-3.2,1.2-5.5,2.5-4.9,2.8.5.3,1.5.2,2.3-.4.8-.5,2.2-.9,3-.8.9,0,.5.6-1,1.4-2.9,1.6-1.9,2,1.1.4,1.1-.5,1.7-1.4,1.5-1.8-.3-.4,1.3-1.4,3.5-2.1,2.2-.8,4.3-1.8,4.6-2.3.6-1-1.3-.5-10.1,2.8Z"/>
  <path class="cls-1" d="m34.22,41.96l-3.2-.1c-1.7-.1-3.5.4-3.8,1-1.1,1.6-.3,1.7,3.5.3l3.5-1.2Z"/>
  <path class="cls-1" d="m80.32,44.36c-.9.3-1.6,1.2-1.6,2,0,1.1,1.9,1.4,8.5,1.4s8.5-.3,8.5-1.3c0-.8-.3-1.7-.7-2-.8-.9-12.6-.9-14.7-.1Z"/>
  <path class="cls-1" d="m45.72,44.76c-1,.7,2.3,1,10.3,1s11.6-.4,11.2-1c-.8-1.3-19.5-1.3-21.5,0Z"/>
  <path class="cls-1" d="m29.52,44.76l-3.6,1.6c-2,.9-4.3,1.8-5,2.1-2.1.9-1.3,2.2,2,3.6,1.8.8,4.5,2.6,6,4.1,2.2,2.2,3,2.5,4.6,1.7,1.1-.6,2.5-2.5,3.1-4.2q1.4-4.2-1-2.9c-2.9,1.6-4.6.7-5.4-2.9l-.7-3.1Z"/>
  <path class="cls-1" d="m68.72,46.76c-2,.6-1.4.8,2.7.9,2.9.1,5.3-.3,5.3-.9,0-1.2-4.4-1.2-8,0Z"/>
  <path class="cls-1" d="m130.42,48.76c-14.7.1-18.6.4-20.2,1.6s-5,1.4-18.1,1.2c-13.9-.2-16.5,0-18.8,1.5-2,1.4-2.6,2.5-2.6,5.5,0,2.1.7,4.8,1.6,6.1,1,1.4,1.3,2.6.7,3-.5.3-1.2,1.4-1.6,2.4-.5,1.2-1.5,1.7-2.9,1.5-3.1-.4-3.8-5.3-1-6.2,1.6-.5,1.8-1.4,1.4-5.5-.4-4.3-.1-5,2.3-6.9,1.5-1.2,3.5-2.3,4.4-2.3.9-.1,0-.5-1.9-.8-1.9-.4-3.9-.4-4.4.1-.8.6-7.4,20-9.4,27.3-.5,2-.4,2,1.9-.1,3-2.6,10.9-6.5,10.9-5.3,0,.4-.8,1.3-1.8,1.8-.9.6-1.2,1.1-.6,1.1,2.8,0,4.4-3.6,4.1-9.9-.2-5.8,0-6.5,2.6-8.7,2.7-2.3,3.4-2.4,17.2-2.4,10.3,0,14.8-.4,15.6-1.3.9-.9,5.9-1.1,20-.9,16.7.3,18.9.2,18.9-1.2s-2.3-1.6-18.3-1.6Z"/>
  <path class="cls-1" d="m40.52,48.96c-.7.3-2,2.2-2.8,4.4-2.1,5.5-2.7,6.2-5.8,6.9-2.5.5-2.7.9-2.4,3.9.3,2.7-1.7,8.1-8.8,24.3-10.9,24.6-12.2,28-10.9,28.8.5.4.9-.1.9-.9,0-.9.7-1.6,1.5-1.6s1.5.9,1.5,2,.7,2,1.5,2c2.1,0,1.9-1.6-.5-3.8q-2-1.9,1.6-9.8c2-4.3,7.4-16.6,12-27.2,4.6-10.6,9.5-21.5,11-24.3,1.6-3.2,2.1-5,1.2-4.7Z"/>
  <path class="cls-1" d="m52.62,49.86c-.4,0-1.2.6-1.9,1.5-1.9,2.2,1.2,5.4,3.8,3.8,2.4-1.5,2.7-4.1.5-4.7-1-.3-2.1-.5-2.4-.6Z"/>
  <path class="cls-1" d="m12.22,50.36c-3.8,1.5-.3,4.5,5,4.3,1.6,0,1.4-.3-.8-1.1-1.5-.5-2.7-1.6-2.7-2.4s-.6-1.1-1.5-.8Z"/>
  <path class="cls-1" d="m88.02,54.86c-.6,0-2.1,1.5-3.3,3.4-2.5,4.1-2.1,7.6,1.5,11.7,2.2,2.5,2.8,2.7,7.6,2.1,7.3-.9,9.8-3.8,8.9-10.3-.3-2.9-4-5.4-8.7-6.1-2.7-.3-5.3-.7-6-.8Zm4.3,3.6c-.4.4.8,1.2,2.6,1.9,5.8,1.9,4.4,8.4-1.8,8.4-5,0-7.1-5.8-3.2-9.1,2-1.8,3.9-2.7,2.4-1.2Z"/>
  <path class="cls-1" d="m22.72,56.76c-1.1,0,3.2,6.9,4.2,7,1.4,0,.9-1.7-1.3-4.4-1.1-1.4-2.4-2.6-2.9-2.6Z"/>
  <path class="cls-1" d="m76.62,59.46c-.9,1.7-.9,2.6.1,3.8,1.5,1.8,3.3,2,2.7.2-.2-.6-.9-1.1-1.4-1-.6.1-.8-1-.6-2.5q.3-2.6-.8-.5Z"/>
  <path class="cls-1" d="m146.92,60.56c-.2.8.8,1.2,2.9,1.2,3.1,0,3.2-.1,1.3-1.5-2.1-1.6-3.6-1.5-4.2.3Z"/>
  <path class="cls-1" d="m80.22,64.76c-.8.7-2.2,1-3,.6-1.6-.6-1.9.2-.7,2.1.5.8,1.3.6,3-.7,1.2-1,2.2-2.1,2.2-2.5,0-.4-.7-.2-1.5.5Z"/>
  <path class="cls-1" d="m75.42,71.76c-.4,1.7,0,2,2.6,1.9,3,0,3.1-.1.9-1.1-1.2-.6-2.2-1.5-2.2-2,0-1.5-.8-.8-1.3,1.2Z"/>
  <path class="cls-1" d="m28.72,110.36c-1.1,1.2-1,1.8.3,3.1.8.9,2.3,1.3,3.1,1,1.9-.8,2.1-4.3.3-5-2-.9-2.4-.8-3.7.9Z"/>
</svg>