<?xml version="1.0" encoding="UTF-8"?>
<svg id="Layer_1" data-name="Layer 1" xmlns="http://www.w3.org/2000/svg" viewBox="0 0 264.33 121.31">
  <defs>
    <style>
      .cls-1 {
        fill: #fff;
      }
    </style>
  </defs>
  <path class="cls-1" d="m122.35,1.38c-.5,1.1-.8,1.3-.8.4-.1-1-1.4-1.2-5.6-.9-3.1.3-5.8.1-6-.3-.6-.8-8.5,1-8.5,2,0,1.1-7.8,1.2-8.5.1-.5-.8-1.1-.7-2.1.1-1.1.9-1.4.9-1.4-.2,0-.7-1-.3-2.5,1.1-2.7,2.6-2.7,5.1-.1,11.3,1.5,3.4,1.5,4,.1,6.7-.8,1.6-2.7,3.7-4,4.6-1.4.9-2.2,2-1.9,2.5s-.3.9-1.3.9c-2.8,0-9.4,2.6-10.3,3.9-.5,1-.8,1-1.2-.1-.4-1-1.8-1.3-4.7-1-2.2.2-4.1.7-4.1,1.1,0,.3-1,.7-2.3.8-9.3.9-9.7.8-9.7-.5,0-1.1-.8-.9-3.2.7-3.4,2.1-4.8,4.1-2.8,4.1.6,0,.8.5.5,1-.6,1,1.3,7.7,2.6,9.4,2,2.3-7.4,12.1-12.5,13-2.9.6-3.7,1.3-4.5,3.9-.7,2.3-.9,2.6-1,1.1-.1-2.1-.2-2.1-3,.5-1.9,1.7-2.5,2.8-1.7,3.3.6.5.1.8-1.2.8-1.7,0-2.6.8-3.3,3-.6,1.6-1.5,2.8-1.9,2.5-.5-.3-1.4.4-2,1.5-.7,1.3-.7,2,0,2,.5,0,1,.4,1,1,0,.5-.7,1-1.5,1-1.4,0-3.2,3-3.3,5.4,0,.5-.6,1.3-1.4,1.7-1.1.8-1.1,1,0,1.8,1.1.7,1.1.9-.2,1.4-1.1.4-1.6,2-1.7,4.9,0,3.3-.2,3.8-.9,2.3-.6-1.4-.9-1.6-1-.5-.2.8-.2,1.9-.1,2.4s-.2,1.2-.6,1.5c-1.5,1.1-3.2,9.1-1.9,9.1.6,0,.3.5-.7,1.1-1.7,1-1.6,1.2.9,3.6,2.1,1.9,2.9,2.2,3.5,1.1.6-.8.9-.9.9-.2,0,1.5,8.3,2.4,9.2,1,.6-.8,1-.8,1.5,0,.5.6,1.5,1.1,2.3,1.1.9,0,2.8.3,4.3.7,2.3.5,2.7.3,2.8-1.6.1-1.8.2-1.9.6-.5.3,1.1,1,1.6,2,1.3.8-.3,2.6-.6,3.9-.6,1.6,0,2.8-.8,3.6-2.5.6-1.3,1.6-2.2,2.2-1.8.6.3.5,0-.2-.8-1.4-1.6-1.6-3.3-.2-2.4.6.4,1-1,1-3.5s-.4-3.9-1-3.5-1-2-1-6.4c0-5.1.4-7.1,1.3-7.1.7,0,1.8-1.3,2.4-2.9,1.6-4.4,6.3-4.7,8.3-.6.8,1.6,2.5,3.2,3.8,3.5s2.3.9,2.3,1.5c0,.5.9,1,1.9.9,1.1,0,2,.2,2,.6,0,.3,1.9.6,4.2.6,3.3-.1,4.4-.5,4.6-1.9q.4-1.7,1.6-.1c.8,1,1.8,1.4,2.6.9,1-.6.9-.9-.1-1.6-1-.6-.7-.9,1.1-.9,3.9,0,5.2-1.4,5.7-6.4.4-3.5,1-4.6,2.3-4.6,1,0,2.3-.7,3-1.5s2.1-1.5,3.1-1.5c1.1,0,1.9-.4,1.9-.8,0-.4,2.1-.9,4.6-1s5.1-.5,5.7-.9c1.3-.8,2.5-1.1,7.2-1.7,1.6-.2,3.1-.8,3.3-1.5.2-.6,2.6-1.1,5.8-1.1,3.6,0,5.4-.4,5.5-1.3,0-.8.2-.8.5-.1.5,1.3,8.2.2,9.3-1.2.3-.5,2.8-1,5.5-1,2.9-.1,5.2-.7,5.7-1.5s.9-.9.9-.3c0,1.5,7.5,1.1,9.5-.6,1.2-1,1.5-1,1.5,0,0,.8.9,1,2.7.6,1.6-.4,3.4-.8,4.1-.9.8-.2,1.8-1,2.3-1.8.7-1.1.9-1.1.9-.1,0,.9.7,1.1,2,.7,2.3-.7,18.8-1,19.5-.3.2.2,2,.2,3.9,0,2.5-.3,3.3-.8,2.9-1.8-.3-.8.1-1.4,1.1-1.4s1.6-.9,1.7-2.3c.1-1.6.2-1.8.6-.5.5,2,1.9,2.4,2.5.7.2-.7,3.4-1.1,8.6-1.1,6.4.1,8.4-.2,8.9-1.3.3-.8.9-1.3,1.3-1s1.4-.2,2.1-1.1c1-1.3,1-1.7-.2-2.5-1-.6-1-.9-.2-.9.9,0,1.3-1.6,1.3-4.5,0-3.8-.3-4.5-2-4.5-1.8,0-2,.7-2,6v6h-12s-12,0-12,0v3s0,3,0,3h-13.4c-9.6,0-14.4.4-16.9,1.5-2,.8-8.9,1.9-15.4,2.5s-15.4,1.7-19.8,2.5c-4.4.8-12.1,2.1-17,2.9-12.1,2-19.6,3.6-21.7,4.7-.9.5-3.5,1.2-5.8,1.5-3.7.6-4,.9-4,4,0,8.4-4.8,12.4-14.7,12.4-8.2,0-9-.4-11.9-6.1-2.7-5.4-4.4-6-9.5-3.3-6.1,3.1-8.5,13.8-6.5,28.6l.7,5.7-4.7.7c-4.5.6-28.1,0-28.9-.8-.3-.2.6-3.1,1.9-6.3,1.3-3.3,4-10.3,6-15.6s5.1-11.8,6.8-14.4c4.3-6.5,11.8-12.2,18.9-14.3,3.3-.9,5.9-2.2,5.9-2.9,0-.6,1.3-2.2,2.8-3.5,5-4.2,4.7-12.7-.7-19.2-1.1-1.3-.5-2.6,1-2.6.5,0,2,1.2,3.4,2.7l2.5,2.8,5.3-2.8c5.2-2.7,5.4-2.7,24.3-2.7,15.9,0,19.8.3,23,1.7,3.5,1.5,9.4,1.8,54.1,2.1l50.3.4v-2.5c0-1.4.6-2.7,1.4-3,1.9-.7,2.6.1,2.6,3,0,1.6.6,2.3,2,2.3,2.5,0,2.8-4.1.4-6.5-1.5-1.5-1.5-1.7.2-3,1-.7,2.3-1.1,2.8-.8,1.5.9,8.6.9,8.6-.1,0-.5.6-.3,1.4.3.8.7,3,1.1,5,.9,3.6-.2,4.7-1.2,2.3-2.1-.7-.3-.5-.6.5-.6,1.1-.1,1.8-1,1.9-2.4.1-1.6.2-1.8.6-.5.5,2.1,1.9,2.4,2.5.6.3-.8,3.1-1.1,9.1-1,7.7.1,8.7,0,8.7-1.6,0-1.2.2-1.4.8-.4,1.1,1.7,4.7-2.1,3.9-4.2-.3-.8-.1-1.6.5-1.8,1.7-.6-.1-8.8-1.9-8.8-1.3,0-1.3-.3-.3-1.6,1.1-1.3,1-1.6-.8-2.1-1.2-.3-2.2-1.2-2.2-1.9,0-.8-.7-1.7-1.5-2-2-.8-7.5,1.5-7.5,3.1,0,.8-1.6,1.1-5.1.9-3.7-.2-5.2.2-5.6,1.3s-.8,1.2-1.3.2c-.9-1.4-8.8-1.8-9.4-.4-.3.7-.7.7-1.3,0-1-1.2-9.3-1.4-9.3-.2,0,.4-.6.5-1.3,0-1.7-1.1-8.1-1-9,.2-.5.7-1,.7-1.5,0-.4-.6-2.6-1-5-1-3.1-.1-4.2.3-4.2,1.5,0,1.3-.1,1.3-1,0-1.1-1.7-8.7-2.4-9.6-.8-.4.7-.9.7-1.3,0-.4-.6-2.5-.7-5.4-.2-2.6.4-5,.4-5.2,0s-2.7-.7-5.5-.6c-2.7.1-5.1-.2-5.3-.7-.1-.4-1.7-.9-3.4-1.1-1.8-.3-3.7-.7-4.3-1.1-.5-.3-1,.1-1,1.1,0,1.3-.3,1.4-1.4.5-2.2-1.8-5.3-2.3-17.5-2.7-6.3-.2-11.7-.7-12-1s-.9.3-1.2,1.3Zm134.1,6c0,1.7.5,2.3,1.7,2.1,1.6-.3,1.8.5,1.8,5.7v6s-12.3.3-12.3.3l-12.2.3.6,2.4c.4,1.7.2,2.5-.7,2.6-.8,0-6.9,0-13.6-.1-9.5-.1-12.7.2-14.6,1.5-1.5.9-6.6,1.9-13.3,2.5-11,1-21.8,2.5-39.4,5.6-11.3,2-34,3-34,1.6,0-1.1-6.3-1.7-30-3l-13.5-.7,4.7-1.4c2.7-.7,4.8-1.9,4.8-2.7,0-.7,1.4-2.3,3-3.6,1.7-1.2,2.8-2.8,2.6-3.5-.3-.7-.1-2.4.4-3.7.7-1.9.4-3.5-1.3-6.8-1.2-2.4-2.6-4.6-3.2-5-.6-.5-.5-1.2.3-2,1.1-1.1,1.8-.8,3.7,1.4,2.9,3.3,4.3,3.4,9.1.7,3.5-1.9,4.8-2,25.3-1.5,23.6.6,36.1,1.4,36.1,2.4,0,.4,20.2.7,45,.7h44.9s.3-2.4.3-2.4c.5-4.3,3.8-3.8,3.8.6Zm-50,24.3c1.3,0,1.3,2,0,4-.8,1.2-1,1.2-1,.1,0-.9-.4-1-1.3-.4-1.5,1.2-5.7,1.4-5.7.3,0-1,2.5-2,5.1-2,1,0,1.9-.5,1.9-1,0-.6.4-1,1-1Zm-9.7,2.2c.6,1.9-.4,4.9-1.4,4.2-.5-.3-.9-1.4-.9-2.4,0-2.2,1.7-3.5,2.3-1.8Z"/>
  <path class="cls-1" d="m251.85,10.68c-2.1,0-3.3.4-2.9,1,.3.5.1,1-.4,1-.6,0-1.1-.4-1.1-.9,0-.5-2-.9-4.5-.9-3.8.1-4.5.4-4.6,2.2q-.2,1.9-.6-.2c-.4-2-.9-2.2-4.1-1.6-2,.3-4.5.8-5.5,1.1-.9.2-1.7-.1-1.7-.7,0-.7-1.6-1-4.3-.8-3.2.2-4.4.8-4.9,2.3-.6,1.9-.6,1.8-.7-.3-.1-1.9-.6-2.2-4.6-2.2-3.1,0-4.7.5-5.4,1.7-.9,1.5-1,1.6-1.1.2,0-1.7-4-2.1-5.2-.4-.5.6-.8.5-.8-.3,0-2.2-3-1.3-3.1,1v2.3s-1.1-2.1-1.1-2.1c-1.3-2.8-8.2-3.2-9.8-.6-.8,1.5-.9,1.5-1,.1,0-1.2-1.1-1.6-4.5-1.6-3.9,0-4.5.3-4.6,2.1v2.1s-.9-2.1-.9-2.1c-.7-1.7-1.8-2.1-6.4-2.3-5.5-.1-5.6-.1-5.6,2.6v2.8s46.5,0,46.5,0h46.5s0-2.8,0-2.8c0-2.4-.3-2.7-3.6-2.7Z"/>
  <path class="cls-1" d="m135.55,10.68c-1.4,0-1.6,1.5-1.6,11.5,0,8,.3,11.5,1.2,11.5.8,0,1-3,.8-10.5-.2-6.7.1-10.3.7-9.9.5.4.8,1.7.5,3.1-.3,1.5,0,2.2.7,2,1.6-.5,2-4.6.6-6.3-.7-.7-2-1.4-2.9-1.4Z"/>
  <path class="cls-1" d="m132.45,10.58l-11.5.3c-6.3.2-11.5.6-11.5,1,0,.5-.7.8-1.6.8s-1.2-.5-.8-1.3c.6-.9.4-.9-.8.1-1.3,1-1.6,3.3-1.6,11.2-.1,5.5.4,10,.9,10s.9-.7.9-1.5.4-1.5,1-1.5c.5,0,1-.4,1-1,0-.5-.8-.7-1.8-.3-1.2.4-1.4.3-.7-.5,1.5-1.7,12.5-.3,12.5,1.5,0,1.2-1.1,1.4-4.5,1.1-3.8-.3-4.5,0-4.5,1.4,0,1.6,1.2,1.8,11.5,1.8h11.5s0-11.6,0-11.6v-11.5Zm-10.7,4.9c.2-1.3.5-1.7.6-1,.1.9.8,1.1,2.2.7,3.7-1.2,5.7,2.2,4.9,8.3-.4,3.3-.3,5.3.4,5.6.6.2-1.5.5-4.7.5-3.1.1-5.7-.2-5.8-.7,0-.4-.3-1.8-.5-3.2-.6-3.3.5-9.2,1.6-8.5.5.3,1.1-.5,1.3-1.7Zm-14.1-1.1c2.2.5,2.4,4.3.3,4.3-.8,0-1.5-.5-1.5-1,0-.6.5-1,1.2-1,.6,0,.3-.7-.8-1.5q-2-1.5.8-.8Zm7.1,1.5c3.2-.3,3.7,0,3.7,1.7s-.6,2.1-4.1,2.1c-3.3,0-4-.3-3.7-1.8.2-1.2,1.4-1.8,4.1-2Zm-6.6,4.9c2.6-.1,3.2,2.6.8,3.6-2.1.7-3.3-.6-1.6-1.6,1.1-.7,1.1-1,0-1.4-.8-.3-.4-.6.8-.6Z"/>
  <path class="cls-1" d="m208.95,17.68c-30.3,0-46.5.3-46.5,1s16.2,1,46.5,1,46.5-.3,46.5-1-16.2-1-46.5-1Z"/>
  <path class="cls-1" d="m156.45,22.48c0,1.5.6,1.8,3,1.4,3.3-.5,4-1.8,1.2-2.5-3.4-.9-4.2-.7-4.2,1.1Z"/>
  <path class="cls-1" d="m220.25,21.68c-10,0-10.8.1-10.8,1.9s.8,2,11.5,2c8.9.1,11.5-.2,11.5-1.2,0-.8-.3-1.7-.7-2-.3-.4-5.5-.7-11.5-.7Z"/>
  <path class="cls-1" d="m207.45,21.68h-21.8s-21.7,0-21.7,0l-1.3,4c-1.6,5.4-1.5,8,.4,8,.8,0,1.3-.4,1-.9s.4-1.2,1.7-1.6c1.2-.3,1.7-.9,1-1.1-1.7-.8,2.7-5,5.9-5.6,1.6-.3,2.8-.2,2.8.1,0,.3,2,.6,4.5.6s4.5-.4,4.5-.9c0-.5.6-.4,1.2.1.7.6,2,1,2.8,1s2.4.3,3.6.7c1.6.5,2.4.1,3.2-1.6q1.1-2.3,1.1-.1c.1,1.9.6,2.1,4.2,1.7,2.2-.2,4.4-.6,4.9-.9s1.1.1,1.3.7c.3.7.6.1.6-1.5l.1-2.7Z"/>
  <path class="cls-1" d="m137.65,25.78c-.1-.1-.2,1.9-.2,4.3v4.4s3.6-.8,3.6-.8c3.7-.8,5.7-2.7,4.8-4.2-.9-1.3-2.4-.9-2.4.7,0,.8-.4,1.5-.9,1.5s-.7-.9-.4-2c.4-1.4-.1-2.2-1.8-2.9-1.3-.5-2.5-1-2.7-1Z"/>
  <path class="cls-1" d="m91.75,31.38c-.4,1.1,2.6,2.7,3.5,1.9.2-.3.2-1.2-.2-2.1-.6-1.8-2.7-1.6-3.3.2Z"/>
  <path class="cls-1" d="m91.65,42.38c-1.5.3-1.7,1.8-1.4,11.8.2,6.3.7,11.5,1.3,11.5.5,0,1-5.2,1.1-11.8.1-6.4.3-9.8.5-7.4.2,2.3.8,4,1.4,3.7,1.2-.8,1.1-5.9-.2-7.2-.6-.6-1.8-.9-2.7-.6Z"/>
  <path class="cls-1" d="m63.15,42.58c-2.4,1.9-2.1,3,.8,3.7,2.7.7,3.5,3.4,1,3.4-.8,0-1.5.4-1.5,1,0,.5.7,1,1.5,1s1.5.9,1.5,2-.7,2-1.5,2c-2.1,0-1.9,3,.2,3.1,1,0,3.8,0,6.1-.1,3.8-.1,4.3.1,4,1.7-.3,1.4-1.3,1.8-4.9,1.8-3.6,0-4.5.3-4.5,1.7,0,1.6,1.3,1.8,11.9,1.8,10.5,0,11.8-.2,11.3-1.6-.3-.9-.6-6-.6-11.5v-10s-11.5.2-11.5.2c-6.3.1-11.5.6-11.5,1.1,0,.4-.7.8-1.6.8-1.4,0-1.5-.2-.3-1.8,1.3-1.5,1.2-1.6-.4-.3Zm19.1,4.2c2.8,1.1,5.9,3.9,4.2,3.9-.8,0-1.1,1.7-.8,5,.2,4.1,0,5.1-1.5,5.6-2.2.7-7.9-.5-7.2-1.6.3-.4-.1-1-.9-1.3s-1.2-1.9-1.1-4.1c.2-4.8,4.1-8.7,7.3-7.5Zm-11.2.9c2.7,0,3.4.4,3.4,2s-.7,2-3.3,2c-3.8,0-4.8-.6-4-2.6.3-.8,1.9-1.4,3.9-1.4Z"/>
  <path class="cls-1" d="m204.45,42.68c-7.6,0-8,.1-8.1,2.2l-.2,2.3-.4-2.3c-.4-1.9-1.1-2.2-5.4-2.2-4,0-4.9.3-5,1.7-.1,1.7-.2,1.7-.6,0-.3-1.3-1.5-1.7-4.9-1.7s-4.4.4-4.5,1.7c-.1,1.7-.2,1.7-.6,0-.3-1.3-1.5-1.7-5.4-1.7s-4.9.3-5,1.7c-.1,1.7-.2,1.7-.6,0-.6-2.3-9.3-2.5-9.3-.2,0,.8-.5,1.5-1.1,1.5s-.9-.7-.5-1.5c.5-1.3-1.8-1.5-16.4-1.5-9.4,0-17,.3-17.1.7,0,.5-.2,1.6-.4,2.5-.3,1.7,2.4,1.8,46.6,1.8h46.9s0-2.5,0-2.5c0-2.5-.1-2.5-8-2.5Z"/>
  <path class="cls-1" d="m61.45,49.98c-1.1,6.1-.6,14,.9,14.5.9.3,1.1,0,.6-.8-1.2-1.9-.6-14.4.7-14.9.6-.2.5-.7-.3-1.2-1.1-.6-1.5,0-1.9,2.4Z"/>
  <path class="cls-1" d="m50.05,50.28c-.9,2.3-.7,5.4.3,5.4.5,0,1.1-1.6,1.3-3.5.4-3.6-.5-4.7-1.6-1.9Z"/>
  <path class="cls-1" d="m165.65,49.68c-33.9,0-47.2.3-47.2,1.1,0,1.3,91.3.9,93.3-.3.7-.4-20.1-.8-46.1-.8Z"/>
  <path class="cls-1" d="m176.35,52.68c-10.2,0-10.9.1-10.9,2s.7,2,11.3,2c6.3,0,11.7-.3,12-.7.4-.3.2-1.2-.4-2-.8-.9-4.1-1.3-12-1.3Z"/>
  <path class="cls-1" d="m153.45,52.68c-9.9,0-10,0-10,2.4,0,1.3.7,2.6,1.5,3,.8.3,1.5.1,1.5-.4,0-1.4,3.7-1.2,4.6.1.4.7,1.2.1,2-1.7,1-2.5,1.2-2.6,1.3-.8s.7,2.2,4.6,2.2c4.1.1,4.5-.1,4.5-2.3q0-2.5-10-2.5Z"/>
  <path class="cls-1" d="m130.95,52.68h-11.5s0,2.6,0,2.6c0,1.4-.4,3.4-1,4.4-1.2,2.2-.3,5,1.6,5,.9,0,1.4-1.3,1.5-3.8.1-2,.4-2.8.6-1.8.5,1.9.6,1.9,2.2-.2,1.7-2.3,5.8-2.8,14.3-1.9,3.4.4,3.8.2,3.8-2,0-2.3-.1-2.3-11.5-2.3Z"/>
  <path class="cls-1" d="m115.45,52.68c-2,0-3,.5-3,1.5,0,.8.6,1.5,1.4,1.5,2.2,0,4.6-1.1,4.6-2.1,0-.5-1.4-.9-3-.9Z"/>
  <path class="cls-1" d="m93.45,61.68c0,3.6.2,4,2.5,4s2.5-.4,2.5-3.4c0-1.9-.6-3.7-1.3-3.9-3-1.3-3.7-.6-3.7,3.3Z"/>
  <path class="cls-1" d="m99.65,61.88c-.5,2.9.8,3.6,2.4,1.3,1.3-1.7,1.3-2-.3-2.6-1.3-.4-1.9-.1-2.1,1.3Z"/>
  <path class="cls-1" d="m48.75,61.98c-1.8,1.8-.9,3.7,1.8,3.7,2.2,0,2.3-.4.8-3.2-1-1.8-1.3-1.9-2.6-.5Z"/>
  <path class="cls-1" d="m35.45,68.68c0,1.1.7,2,1.5,2,1.1,0,1.5,1.2,1.5,4.5,0,3.8.3,4.5,1.9,4.5,1.4,0,1.8-.5,1.4-1.9-.3-1,0-2.2.6-2.5,1.9-1.2,1.2-4.4-1.5-6.5-3.4-2.6-5.4-2.7-5.4-.1Z"/>
  <path class="cls-1" d="m60.45,72.78c-10.8,1.5-12,1.9-12,3.9,0,2.6,3.6,3.1,5.6.9,2.8-3.2,10.9-4.5,29.1-4.9,1.3,0,2.3-.5,2.3-1,0-1.2-12.1-.6-25,1.1Z"/>
  <g>
    <path class="cls-1" d="m72.98,76.78c2.4,1.4,2.4,7.1,0,9.2-1.6,1.52-6.48,2.57-10.4,2.6v-.79c.26,0,.5-.1.7-.31.4-.3-.1-1.8-1-3.1-.9-1.4-1.5-3.8-1.3-5.4.3-2.6.6-2.8,5.3-3,2.7-.2,5.8.2,6.7.8Z"/>
    <path class="cls-1" d="m62.57,87.79v.79c-1.23.01-2.38-.08-3.29-.3-3-.8-4.8-4.6-3.9-8.3.7-2.5.8-2.4,2.3,1.7,1.34,3.51,3.51,6.11,4.89,6.11Z"/>
  </g>
  <path class="cls-1" d="m18.15,89.58c-1.7.3-.5,2.1,1.7,2.7,3.2.8,6.6-.4,6-2-.4-1-4-1.4-7.7-.7Z"/>
  <path class="cls-1" d="m28.45,92.68c-.5,0-1,1.6-1,3.6,0,4.2,1.5,3.8,1.8-.5.1-1.7-.2-3.1-.8-3.1Z"/>
  <path class="cls-1" d="m25.35,92.68c-.6,0-.8.9-.4,2,1.3,4.1-3.8,6.7-6.6,3.4-1-1.2-1-2-.1-3.5.7-1.1.8-1.9.2-1.9-.5,0-1,.5-1,1.1,0,.8-.5.8-1.5-.1-1.3-1.1-1.5-.8-1.5,1.9,0,1.8.4,3,.9,2.6.5-.3,1.2.4,1.6,1.4.7,2.4,3.7,3.5,7.1,2.7,2.1-.6,2.4-1.2,2.4-5.1,0-2.5-.5-4.5-1.1-4.5Z"/>
</svg>