<?xml version="1.0" encoding="UTF-8"?>
<svg id="a" data-name="Layer 1" xmlns="http://www.w3.org/2000/svg" viewBox="0 0 244.45 124.58">
  <defs>
    <style>
      .b {
        fill: #fff;
      }
    </style>
  </defs>
  <path class="b" d="m231.9,2.28c-.1,1.4-.2,1.4-.6-.2-.6-2.3-3-2.2-3.8.3-.4,1.3-1.5,2-3,2-1.3,0-2.5.4-2.7.9-.2.6-2.2.6-5.3,0-3.3-.6-5.1-.6-5.3.1-.2.6-.8.7-1.4.4-1.6-1-8.2-1.1-9.6-.1-.6.5-1.2.6-1.2.1,0-.5-2-.9-4.5-1-2.5,0-4.5.4-4.5,1,0,.6-.5.5-1.2-.2s-2.8-1.2-4.8-1.2-4.1.5-4.8,1.2-1.2.8-1.2.2c0-.6-2.4-1-5.5-.9-3,0-5.5-.3-5.5-.7s-.3-.7-.8-.6c-.4.1-2.2-.2-4.1-.6-2.4-.6-3.6-.4-4.2.5-.5.9-.9,1-.9.3s-2-1.4-4.5-1.6c-3.1-.2-4.5.1-4.5.9,0,.7-.5,1.3-1,1.3-.6,0-1-.6-1-1.3,0-.8-1.7-1.2-5.1-1.2-2.8,0-5.3-.3-5.5-.7-.8-1.3-8.2-.9-8.8.4-.5,1-.7,1-1.2,0-.7-1.5-9.4-1.6-9.4-.1,0,.8-.4.8-1.4,0-1.2-1-2-.9-4,.4-1.4.9-3,1.4-3.6,1-.5-.3-1,.1-1,.9,0,.9-.5,1.6-1,1.6-.6,0-1-.9-1-2,0-1.9-1.8-2.8-6.5-3.2-5.3-.4-7.1.4-9.8,4.3-1.5,2.2-2.6,4.3-2.3,4.7.2.4-.2,1.3-1,2s-1.4,1-1.4.6-.9.5-2.1,2-3,2.6-4.5,2.6c-1.3,0-2.4.6-2.5,1.2,0,1-.2,1-.6,0-.3-.7-2.4-1.2-5.4-1.2-3.2,0-4.9.4-5,1.2,0,1-.2,1-.6,0-.5-1.3-9.3-1.8-9.3-.4,0,.4-2.7.7-6,.7s-6-.3-6-.6c0-.8-5.6-2.9-7.6-2.9-.8,0-1.4.6-1.4,1.4,0,.8-1.2,1.7-2.8,2.1-1.5.4-2.2.9-1.6,1.2.6.2-.6,2.1-2.8,4.2-2.3,2.3-3.8,4.8-3.8,6.3s-.6,2.4-1.8,2.6c-.9.1-3,.3-4.5.5-1.6.2-3.3,1-3.7,1.8-.5.8-1.3,1.4-1.7,1.4s-2.1.9-3.6,1.9c-2,1.4-2.5,2.1-1.5,2.7.9.6.4,1.1-1.5,1.8C.7,43.08,0,43.98,0,46.08c0,3.2.9,4.8,3,5.6,1.1.4,1,.6-.5.6-1.8.1-1.7.3.7,2.6,1.8,1.7,4.4,2.7,7.5,3.1,2.7.3,5.8,1.2,7,2,2.1,1.3,2.3,1.3,2.4-.3,0-1.3.3-1.2,1,.6.5,1.3.7,5.8.4,10-.6,7.5-1.4,10.7-1.6,6,0-1.9-.3-1.6-1.5,1.5-.7,2.1-1.2,4.2-.9,4.6s-.2,2-1,3.6c-.7,1.6-1.6,4-1.8,5.4s-.7,3.2-1,4c-2.4,5.8-2.7,7.3-1.6,8.6.6.8.7,1.4.2,1.4-.9,0-1,1.4-.5,7.2.1,1.1,1,1.8,2.2,1.8,1.3,0,1.8.5,1.4,1.5-.3.8.4,2.8,1.6,4.6,1.7,2.3,2.5,2.8,3.1,1.7.7-1,.9-.9.9.4,0,1.8,2,2,22.5,2,16.5,0,17.7-.1,18.2-2.2.3-1.1,1.2-2,1.9-2,1.4,0,1.7-.9,1.7-5.5,0-6.7-.4-9.5-1.4-9.5-.5,0-.8.4-.4.9.3.5.1,1.2-.5,1.6s-1-.6-1-2.4c0-2.3.4-2.9,1.5-2.5,1.1.5,1.5-.2,1.6-2.7.1-1.9.3-4.3.5-5.4s.4-3.1.5-4.5c.2-1.4.7-3.1,1.3-3.8.7-1,.6-1.6-.3-2.2-1.1-.6-.9-1,.7-1.9,1.1-.6,2.7-1.1,3.6-1.1.8,0,1.7-.6,1.9-1.3.3-.6.6.5.6,2.7.1,3.1-.2,3.7-1.5,3.2-1-.4-1.4-.2-1.1.6.2.7,1.1,1.2,1.8,1,.9-.1.8.3-.4,1.1-1.9,1.6-2.3,4.7-.6,4.7.8,0,.7.5-.1,1.5-1.1,1.3-1,1.4.4.9,1.2-.5,1.6,0,1.7,2,.2,4.5.3,4.7,2.9,6.1,1.4.8,2.1,1.4,1.5,1.5-1,0,3.6,3.5,4.7,3.5.3,0,1,.3,1.4.8,1.2,1.1,7.9.8,9.2-.5.9-.9,1.2-.9,1.2,0,0,1.6,8.6,1.6,9.4-.1.5-.9.7-.9,1.2,0,.7,1.6,8,1.7,9,.2.4-.8.9-.8,1.3-.1,1.1,1.8,7.2-1.9,8.6-5.2s.9-8.6-.9-9.8c-.8-.5-.7-.8.1-.8.9,0,1.3-2.2,1.4-7.3.1-11,.5-14.1,1.7-14.5.7-.2,1.2-1.4,1.2-2.7,0-2.7,2.4-4.4,5.5-3.9,1.1.1,2.3-.2,2.7-.9.6-.9.8-.9.8,0,0,1.7,8.7,1.7,9.3,0,.4-.9.7-.9,1.4.1,1.1,1.4,7.6.5,6.7-.9-.3-.5.2-1.2,1-1.5.9-.3,1.6-1.6,1.6-2.8,0-1.6.2-1.8.9-.7s1.3,1.2,2.3.4c.7-.7,4.1-1.4,7.6-1.7,7.3-.6,10.4-2,10-4.4-.2-1,.3-1.7,1.2-1.7s1.9-1.5,2.5-3.5c.8-2.7,1.7-3.6,4-4.1l3-.7-3.3-.1c-1.7,0-3.2-.4-3.2-.9,0-.4,9.3-.8,20.8-.9,34.5-.2,33.4-.1,36-3,1.2-1.5,2.1-3.7,2-5.2-.1-1.4.8-4.4,2-6.6,1.6-3,1.9-4.1.9-4.7-.8-.5-.8-1.1-.2-1.6,1.2-.9,1.3-9.2.1-9.2-.4,0-.6-.6-.3-1.4s0-1.7-.8-2c-.7-.2-1.5-1.7-1.7-3.3-.2-2.2-.9-2.9-3.3-3.4-3.8-.7-5.5-.1-5.6,2Zm6.1,3.3c0,1,.4,1.8.9,1.8.4,0,1.1,3.8,1.4,8.4.5,7,.2,9.3-1.4,13.7-1.1,3-2.7,6-3.4,6.8-1.2,1.2-6.3,1.5-26.2,1.8-13.6.2-25.4,0-26.2-.4-.9-.4,7.4-1,18.4-1.3l20-.6-19.8-.2-19.8-.2.6-4.4c.5-3.1.2-5.4-.9-7.5-.9-1.6-1.6-3.2-1.6-3.6,0-.3,9.3-.5,20.7-.5h20.8s-.3,7.5-.3,7.5l-.4,7.5h6.4c3.5,0,7-.5,7.8-1,1.3-.9,1.3-1,0-1.1-.8-.1-2-.3-2.5-.4-.6-.2-2.5-.3-4.4-.4-3.3-.1-3.4-.2-1.5-1.7,1-.8,1.4-1.3.8-1-1.3.6-3-2.5-3.9-7.2-.4-1.8-1.3-3.2-2.1-3.2s-1.4-.9-1.4-2-.7-2-1.6-2c-.8,0-1.2-.5-.9-1,.4-.6,1-.8,1.5-.5s1.1.1,1.5-.5,1-.8,1.4-.5c.5.2,2.2,0,4-.5,2.1-.6,3.1-.5,3.1.2,0,.6.6.6,1.5-.2,1.2-1,1.5-.9,1.5.4,0,1.2.8,1.6,3,1.4s3-.7,3-2.2c0-1.8-.5-1.8-8.3-1.1-4.5.4-15.3.7-24,.6-13.7-.3-15.7-.1-15.7,1.3,0,1.5.9,1.5,8.1.2.9-.2,3.7,0,6.2.4,2.8.4,5,.3,5.7-.4s1-.6,1,.5.2,1.1.8.1c.9-1.3,4.2-.6,4.2.9,0,.8-2.2,1.3-4.3,1-.4,0-.7.7-.7,1.7,0,1.3-.2,1.4-.9.3-.5-.7-2.4-1.2-4.5-1.1-2,0-4.4.1-5.4.2-.9,0-3.6-.2-6-.6-3.6-.5-4.2-.3-4.2,1.2-.1,1.5-.2,1.5-1,.1-1.2-2.1-6.7-1.3-8.1,1.3-1,1.8-1.2,1.8-2.8.4-2.4-2.2-4.2-2-8.7,1.1l-3.9,2.6-31.4-.2c-17.3-.1-32.2-.6-33-1-.9-.4-5.4-.8-10.1-1-4.6-.1-8.6-.3-8.7-.4-.1-.2,2.1-2.8,5-5.9,3.5-3.8,5.1-6.3,4.9-7.7-.2-1.2.3-2.4,1.2-2.7,1.7-.6,8.6,3.1,8.6,4.7,0,1.5,7.3,1,10.5-.7,2.6-1.4,6-1.5,26-.9,12.6.4,23.5,1.1,24.2,1.7.6.5,14.7.9,32.8.9,30,0,31.8-.1,33.9-1.9,1.1-1.1,3.1-2.5,4.3-3.1,3.2-1.6,4.3-1.1,4.3,2.1Zm-63.4,12.5c1.5-.8,3.8,1.8,2.9,3.3-.3.5.1,1,1,1,1.5,0,1.6,1.3,1.3,10.7-.5,14-2.4,18.4-8.3,19.5-2.2.4-18.2.7-35.6.7-27.3-.1-32.1.1-34.8,1.5-4.7,2.5-6.6,6.1-6.6,13.1-.1,3.3-.5,6.6-.9,7.4-.7,1.1-3.5,1.3-14.3.9-7.3-.3-13.6-.2-13.8.3-.3.4-1.7,7.7-3.1,16.1-2.4,14.2-2.4,15.5-1,18.6,2.3,4.8,2.1,5.2-3.2,5.4-4.3.1-4.4.2-1,.5,2.5.3,3.8.9,3.8,1.9,0,1.2-3.3,1.4-20,1.4s-20-.2-20-1.5c0-.8.8-1.5,1.7-1.5,1.1-.1.5-.6-1.4-1.5-6.9-3-6.9-8.1-.2-29.6,6.3-20.3,6.5-21.5,3.9-25.7s-7.3-6.2-14.5-6.2c-3,0-5.5-.4-5.5-.9,0-1.5,2.5-3,6.1-3.8,3.3-.8,3.2-.8-2-1.3-3-.3-5.6-1-5.8-1.7-.4-1,8.1-10.3,9.4-10.3.2,0,1.9,1.1,3.7,2.5s3.5,2.5,3.8,2.5.9-1.7,1.3-3.8c.4-2.3,2.4-5.7,5.5-9.3,2.6-3,5-6.6,5.2-8,.4-3.1,4.2-2.9,7.8.6,2.8,2.7,8.5,3.4,12.1,1.4,1.5-.8,22.6-1.6,24.9-.9.3.1,4.5.3,9.5.4,13.7.4,26.8,1.8,28.3,2.9.9.7,1.6.7,2.4-.1,1.5-1.5,39.4-1.7,40.3-.3,1,1.6,7.8,0,12-2.8,2.2-1.5,4.5-3.1,5.1-3.4Zm-22.1,36.7c2.1-.2,2.5.3,2.5,2.6,0,3.9-1.8,4.3-16.9,3.9l-12.5-.4-2.7,16c-2.3,14.1-2.5,16.3-1.3,19.2,2.1,4.8,1.8,5.3-2.9,5.5l-4.2.1,3.8.4c2.4.3,3.7.9,3.4,1.6-.3.9-6,1.3-20,1.5-16.9.3-19.7.1-19.7-1.2,0-.8.5-1.6,1.2-1.8.6-.2-.2-1-1.9-1.7-5.5-2.2-6.4-8.2-3.1-19.3l1.1-3.7,6.1.6c5.2.4,6.5.2,8.8-1.7,2.4-1.8,2.8-2.9,2.8-7.3,0-2.9.3-6.2.6-7.4,1.1-3.9,6.6-6.4,15.6-7l8.1-.6-.6,2.4c-.4,1.3-2.1,10.3-3.7,19.9-1.7,9.6-3.2,18.1-3.5,18.7-.3.9-5.2,1.3-17.7,1.5l-17.3.3,3.7,1.7c2.9,1.4,6.4,1.8,16,1.8,6.8,0,14.6-.3,17.4-.6l5.2-.7-1.2-3.1c-1.3-3.3-1.3-5.8,0-12.1.5-2.2.8-5.7.9-7.8,0-2,.3-3.7.7-3.7.3,0,.9-2.4,1.3-5.3.4-2.8,1-5.7,1.3-6.2,1.4-2.2,1.1-4.4-.6-4.8-.9-.3-.1-.6,1.8-.7,4.6-.4,5.2-.4,7.4.6,1.3.5,1.7.4,1.3-.3s.3-1,1.8-.9c1.4,0,2.5.4,2.5.8,0,.5,2.7.8,6,.8s6-.3,6-.8c0-.4,1.1-.8,2.5-.8Z"/>
  <path class="b" d="m94,6.38c0,1.6.7,2,3.2,2l3.3-.1-2.4-1.9c-3-2.5-4.1-2.5-4.1,0Z"/>
  <path class="b" d="m159,13.88v5.5s3.5,0,3.5,0c2.7,0,3.5-.4,3.5-1.8,0-1-.5-2.3-1.2-3-2.5-2.5-1.2-2.6,13.9-2,6.5.2,9.4,0,9.7-.8.3-.9-2.8-1.2-11.9-1.2-7,0-13.1-.5-14.1-1.1-3.1-1.7-3.4-1.3-3.4,4.4Z"/>
  <path class="b" d="m157,8.38h-9.5s-9.5,0-9.5,0v4.9c0,5.9.4,6.1,11.1,6.1h7.9s0-5.5,0-5.5v-5.5Zm-7.2,1.1c3.7.1,5.9.3,4.9.6s-1.7,1.4-1.7,2.9c0,1.9-.5,2.4-2.4,2.4-1.5,0-2.6.7-2.9,1.7-.4,1.5-.6,1.5-1.2-.5-.4-1.2-1.3-2.2-1.9-2.2s-1.3-1.1-1.4-2.5c-.2-2.5,0-2.5,6.6-2.4Z"/>
  <path class="b" d="m102.5,10.18c-8.2.3-10.5.6-10.5,1.7s.6,1.2,2.6.5c4.2-1.6,15.4-1.3,16,.5.9,2.3,2.4,1.8,2.4-.8,0-2.2-.2-2.2-10.5-1.9Z"/>
  <path class="b" d="m107.6,14.98c-1,2.7-.7,4.4.9,4.4,1.8,0,3-2.4,2.1-4.5-.7-2-2.2-1.9-3,.1Z"/>
  <path class="b" d="m103.9,13.38c-2.7,0-2.9.2-2.3,2.7.4,1.6.8,3,1,3.2.7.7,3.2-2,3.7-3.9.4-1.7,0-2-2.4-2Z"/>
  <path class="b" d="m95.9,13.38c-1.9,0-4.9,2.5-4.9,4.1s1.5,1,2.8-1.1c1.6-2.7,4-2.5,5.2.2.5,1.4.9,1.7.9.7.1-.8-.4-2-1.1-2.7s-2-1.2-2.9-1.2Z"/>
  <path class="b" d="m34,21.88c0,1,1,1.5,3.2,1.5,3,0,3.1-.1,1.2-1.5-2.5-1.9-4.4-1.9-4.4,0Z"/>
  <path class="b" d="m98.8,29.38l-.3,6.1,31.1-.3,31.1-.3-.5,7.2-.5,7.3h7.8c5.7,0,7.5-.3,7.2-1.3-.2-.6-1-1.1-1.6-.9-.6.1-1.1-.2-1.1-.8,0-1.5-3-1.2-3,.2-.1.7-.8.1-1.6-1.5-.8-1.5-2.1-2.7-2.9-2.7s-1.5-.5-1.5-1c0-.6.4-1,1-1,.5,0,0-2-1.2-4.4l-2.1-4.5h-28.1c-15.5,0-28.2-.2-28.4-.5-.6-1.5-.1-4.6.8-4.6.5,0,1,.9,1,2.1,0,1.9.1,1.9,1.6.5,2.1-2.2,5.2-2.2,3.4-.1-1.1,1.3-.8,1.5,1.4,1.5,2.8,0,3.4-1.8,1.4-3.8-.7-.7-3.6-1.2-6.4-1.2s-5.6-.5-5.9-1c-1.4-2.3-2.3-.6-2.7,5Z"/>
  <path class="b" d="m97,23.38h-10s-10,0-10,0v4.4c0,6.2,2.2,7.6,12.2,7.6h7.8s0-6,0-6v-6Zm-12.6,1.8c.2.4,1.7.7,3.3.6,1.5-.1,3.6.3,4.5.7,1.1.6,1.8.5,2.2-.4.3-.6.4.1.3,1.8-.2,2.9-.4,3-6,3.3l-5.7.3v-3.6c0-3.4.4-4.3,1.4-2.7Z"/>
  <path class="b" d="m178,24.08l-8.1.7c-4.5.4-9,1.3-10,2-2.2,1.5-1.4,2.9,1,1.7,5.3-2.6,7.9-2.9,11-1,1.7,1,3.4,1.8,3.9,1.6.4-.1,1,2.3,1.3,5.3.5,5.2.6,5.1.7-2.4l.2-7.9Z"/>
  <path class="b" d="m137.6,25.38c-17.9.1-21.6.7-21.6,3.7,0,1.3,8.4.5,8.8-.8.2-.5,2.6-.9,5.4-.9,4.1,0,4.9.3,4.4,1.6-.3.8-.2,1.2.4.9s1-1.4,1-2.3c.1-1.6.2-1.6,1.4,0,1.5,2,4.6,2.4,4.6.7,0-.6.6-.9,1.2-.6.7.2,1.2,1,1,1.6-.1.6.2,1.1.8,1.1.5,0,1-.9,1-2s.4-2,1-2c.5,0,1,.9,1,2s.4,2,1,2c.5,0,1-.6,1-1.4,0-.9.9-1.4,2-1.3s2,.7,2,1.4c0,.7.7,1.3,1.5,1.3,1.5,0,2.1-3.1.8-4.3-.3-.4-8.8-.7-18.7-.7Z"/>
  <path class="b" d="m53.2,25.38h-10.6c-7.8,0-10.6.3-10.7,1.2,0,1.2-.5,3.7-1.1,7-.2.7-.8,1.7-1.3,2.1-.6.5-.4.7.5.6.8-.1,2.7.1,4.3.5,1.7.5,3.3.4,4.2-.4,3.5-2.9.2-8.6-4.2-7.5-1.6.4-2.2.2-1.8-.5.3-.6,4.4-1,9.6-1,7.5,0,8.9.2,8.9,1.6,0,1.3-.3,1.4-1.5.4s-1.6-.9-2.1.6c-.3,1.1-1,2.9-1.5,4.1-.6,1.7-.5,2.3.6,2.3,1.7,0,5.1-4.7,6-8.3l.7-2.7Zm-15.1,5.6c1.6,2,0,4.9-2.7,4.9-2.2,0-3.1-3-1.4-5,1.6-1.9,2.4-1.9,4.1.1Z"/>
  <path class="b" d="m43.1,28.38c-2.8,0-3.1.2-2.1,1.9.5,1.1.7,2.7.4,3.5-.3.9-.2,1.6.2,1.6,1.8,0,3.3-1.6,3.9-4.3.7-2.5.5-2.7-2.4-2.7Z"/>
  <path class="b" d="m68.8,36.58c-2.6,11.4-2.9,13.2-2.1,12.4,1.2-1.1,5.1-18.5,4.4-19.2-.3-.3-1.4,2.7-2.3,6.8Z"/>
  <path class="b" d="m65.1,38.38c-.7,3.6-1.5,7.4-1.8,8.5-.3,1.3-.2,1.7.5,1,1-1,4.2-14.4,4.2-17.4-.1-3.2-1.7,1.2-2.9,7.9Z"/>
  <path class="b" d="m64.4,29.68c-.8.8-4.6,17.9-4,18.4.2.3.7-.4,1-1.4.9-3.2,3.6-15.4,3.6-16.5,0-.6-.3-.9-.6-.5Z"/>
  <path class="b" d="m61.1,29.88c-1,1.2-4.5,17.5-3.8,18.1.4.5,4.7-16,4.7-18.2,0-.4-.4-.4-.9.1Z"/>
  <path class="b" d="m58.2,29.78c-1.1.7-4.8,17.4-4,18.2.3.3,1.3-3,2.3-7.3.9-4.3,1.9-8.6,2.2-9.7s.1-1.6-.5-1.2Z"/>
  <path class="b" d="m74.2,30.38c-.8,0-4.2,13.3-4.2,16.7s1.3.2,2.6-6.4c.8-3.7,1.7-7.6,2-8.6.3-.9.1-1.7-.4-1.7Z"/>
  <path class="b" d="m54.8,30.38c-.4,0-.8.3-.8.7,0,.5-.9,4.5-1.9,9-1,4.6-1.6,8.3-1.2,8.3s1.7-4.1,2.8-9c1.1-5,1.6-9,1.1-9Z"/>
  <path class="b" d="m51.2,33.88l-2.6,2.4c-2,1.9-2.8,2.1-3.9,1.2-.9-.7-2.3-.8-3.7-.3-2,.7-1.6,1,3.1,1.9,3,.6,5.4,1,5.5,1,.1-.1.4-1.6.8-3.2l.8-3Z"/>
  <path class="b" d="m33.2,38.38c-.5,0-1.3,2.1-1.7,4.6-.8,5.3,0,7.1,1,2.2.3-1.8.9-4.1,1.1-5.1.3-.9.1-1.7-.4-1.7Z"/>
  <path class="b" d="m30.2,38.38c-.5,0-1.5,2-2.1,4.4-1.3,5.4-1.3,5.6-.2,5.6.5,0,1.2-1.6,1.5-3.6.4-1.9,1-4.2,1.3-5s.1-1.4-.5-1.4Z"/>
  <path class="b" d="m12,39.08c-.3.3.1.8.9,1.1,1.8.6-3.5,5.2-6.3,5.3-1.2.1,1,.5,4.9,1,5,.6,7.2.5,7.7-.4,1.2-1.8.9-3.7-.5-3.7-.6,0-2.3-.9-3.7-2-1.4-1-2.7-1.6-3-1.3Z"/>
  <path class="b" d="m39.2,39.88c-.5.5-1.3,2.8-1.7,5-.4,2.6-.3,3.6.3,3,.5-.6,1.3-2.8,1.7-5,.4-2.6.3-3.6-.3-3Z"/>
  <path class="b" d="m36,39.38c-.6,0-1,.6-1,1.4,0,.7-.3,2.9-.6,4.7-.7,4.4,1.1,1.7,1.9-2.9.4-1.8.2-3.2-.3-3.2Z"/>
  <path class="b" d="m42.3,40.88c-1.5,1.4-2.5,7.5-1.3,7.5.6,0,1-.8,1-1.8s.3-2.8.6-4.2c.5-1.7.3-2.2-.3-1.5Z"/>
  <path class="b" d="m11,51.18c-2.4,1-2.3,1.1,1.5,1.2,5,.1,11.7,3,13.9,6.1.9,1.3,1.6,4.3,1.6,6.8,0,5.9,1,4.6,4-5.2l2.6-8.2,4.8-.3,4.9-.3-.6,3.7-.6,3.6,10-.4c8.6-.3,9.9-.2,9.4,1.2-.7,1.5-5.6,29.4-7.7,43-.6,4.1-1.6,8.1-2.1,8.7-.7,1-5.5,1.3-17.6,1.3-14.9.1-16.3.2-14.1,1.5,1.8,1.1,6.3,1.4,17,1.5,17.7,0,22.4-.6,21.4-2.9-1.4-3.3-2.1-8-1.4-8.3.5-.2,1-2.6,1.2-5.3.2-2.8.7-5.3,1.1-5.6s1-4.5,1.4-9.2c.3-4.8.9-8.4,1.3-8.2.4.3,1.3-.2,1.9-.9.9-1.1.9-1.5-.1-1.9-.7-.2-.4-.2.7,0,1.1.3,7.7.7,14.7,1l12.8.6v-4.2c0-2.2-.5-4.1-1-4.1-.6,0-1,1-1,2.3,0,3.8-1.9,4.7-10.2,4.7-9.4,0-13.3-1.7-15.4-6.5-2.3-5.6-.5-8.2,8.3-11.5,5.2-1.9,12.9-.4,15.3,3,1.1,1.5,2,3.8,2,4.9,0,1.2.4,2.1,1,2.1.5,0,1-1.1,1-2.5s-.5-2.5-1.1-2.5-.9-.6-.6-1.4c.3-.7,0-1.9-.6-2.5-.8-.8-.5-1.1,1.1-1.1,1.2,0,2.2-.6,2.2-1.3,0-.7.5-.5,1.1.5.9,1.6,1.2,1.5,4.7-.5,3.5-2.1,5.2-2.2,30.2-2.7,22-.4,16.8-.6-30.5-1-72.7-.6-85.4-.5-88.5.8Z"/>
  <path class="b" d="m78.5,56.68c-3.8.2-4,.4-4.3,3.6-.2,2.3.3,4.3,1.7,6.2,1.2,1.6,2.1,3.4,2.1,4.1,0,.9,1.5,1.2,5.5,1l5.5-.4v-4.6c0-4.7-2-8.4-5-9.5-.8-.3-3.3-.5-5.5-.4Zm2.6,4.5c3.5-.5,4.5.8,3.5,4.7l-.6,2.4-3-2.9c-1.7-1.6-3-3.1-3-3.4,0-.2,1.4-.6,3.1-.8Z"/>
  <path class="b" d="m70.5,58.38c-1.4,0-1.5.6-1,3.2,1,4.5,2.2,6.6,4.5,7.8,1.7.9,1.7.6-.4-3.1-1.3-2.2-2.1-4.9-1.9-6,.4-1.3,0-1.9-1.2-1.9Z"/>
  <path class="b" d="m67,60.38c-.6,0-1,1.1-1,2.4,0,2.5,4.4,8.6,6.2,8.6.5,0-.2-1.4-1.6-3.1s-2.6-4.1-2.6-5.5c0-1.3-.5-2.4-1-2.4Z"/>
  <path class="b" d="m128.4,55.48c0-.1-.8.7-1.7,1.6-1.5,1.7-.8,1.8,12.6,2.2,7.8.1,13.8-.1,13.4-.5-.5-.5-5-.8-10-.6-6.6.2-9.9-.1-11.7-1.2-1.4-.8-2.5-1.4-2.6-1.5Z"/>
</svg>