<?xml version="1.0" encoding="UTF-8"?>
<svg id="Layer_1" data-name="Layer 1" xmlns="http://www.w3.org/2000/svg" viewBox="0 0 265.6 123.74">
  <defs>
    <style>
      .cls-1 {
        fill: #fff;
      }
    </style>
  </defs>
  <path class="cls-1" d="m238,1.67c0,1.5-.2,1.4-1.4-.2-1.3-1.8-1.6-1.8-3.3-.4-2.9,2.6-5.5,3.2-11.1,3-3.4-.2-5.2.1-5.2.9,0,.6-.5.8-1.1.4-2.1-1.2-19.9-1.5-19.9-.3,0,.8-.4.8-1.3.1-1-.8-5.5-2.2-9.2-2.8-.6-.1-1.5-.3-2-.4-.6-.1-1.4-.1-2,0-.5.1-4.7.1-9.2.1-5.9,0-8.3.3-8.3,1.2s-.2.9-.8.1c-.4-.6-2.6-1.3-5-1.6-3.3-.3-4.2,0-4.2,1.2-.1,1.3-.2,1.3-1.3,0-1.4-1.8-8.7-1.5-9.9.3-.6.9-.8.8-.8-.2s-1-1.2-4.3-.7c-5.6.8-6.5.8-11.5.2-2.9-.4-4.2-.2-4.2.7,0,.7-.5.5-1-.5-.8-1.3-2.2-1.6-6.1-1.4-2.8.1-5.2-.1-5.4-.4-.2-.4-2.4-.4-4.8,0-2.4.3-5.2.3-6.3-.1-3.4-1.3-7.4-1-8.1.7-.4,1.2-.8,1.3-1.4.3-.9-1.5-5.1,4.9-4.4,6.8.3.8-.5,1.3-2,1.3-1.4,0-2.5.4-2.5,1,0,.5-.7.7-1.6.3-2.2-.8-6.3,3.4-5.7,5.8.3,1,1,1.9,1.5,1.9s.6.4.3,1c-.3.5-1.5,1-2.6,1s-2.2.7-2.5,1.5c-.4.8-1,1.2-1.6.9-1.1-.7-4.2,3.3-4.4,5.6-.2,2.8-2.3,7-3.6,7.1-.7.1-4.2.1-7.7.1-6.7,0-12.6,2.3-9.9,3.9.9.6.8.9-.5,1.5-.9.3-1.7,1-1.7,1.6,0,1.7-2.8,3.8-4.4,3.2-.8-.3-2.9.2-4.5,1.2-3.2,1.9-4,3.4-1.9,3.4.9,0,.8.4-.2,1-1.3.9-1.3,1.1,0,2,.9.6,1,1,.3,1-.6,0-1.5,1-1.9,2.2-.6,2.1-.7,2.2-1.4.4-.5-1.6-1.1-1.3-4.3,2.5-2.7,3.3-3.7,5.6-3.8,8.7-.2,2.6-1.1,5.1-2.6,6.8-1.2,1.5-2.5,3.6-2.9,4.8-.3,1.1-1.2,3.6-2.1,5.5-.8,1.9-1.6,4.4-1.7,5.7,0,1.3-.4,2.4-.8,2.4s-1,1.6-1.4,3.5c-.3,1.9-1,3.5-1.4,3.5-1.1,0-5,7.7-5,10,0,1,.6,2.3,1.2,2.7.7.4,1.3,1.5,1.3,2.3,0,.8.7,1.5,1.5,1.5s1.9.6,2.5,1.2c.5.7,2.8,1.5,5,1.7s4.7.6,5.5.9c7,2.3,9,2.5,9,.9,0-1.3.2-1.3,1.4.3,1.3,1.8,1.5,1.8,5-.8,2-1.6,3.9-3.9,4.2-5.2s1.2-2.6,1.9-2.9c1.7-.6,3-6.3,1.7-7.9-1.2-1.5.8-12.1,2.6-13.9,1.7-1.7,4.3-1.6,6.1,0,1,1,3.5,1.2,9.1.9,8.9-.5,10-1,10-4,0-1.8.2-1.9,1-.7s1.2,1.1,3.1-.9c1.7-1.8,1.9-2.5.8-3.2-1.1-.6-.9-1,.6-1.5,1.1-.5,3-1.9,4.2-3.2,1.3-1.4,2.3-2,2.3-1.3,0,.8,1.4,1.1,4.2.9,3.6-.2,4.4-.7,4.6-2.6.3-2.2.2-2.2-7-1.6-9.5.7-9.8.9-9.8,4,0,1.7-1.3,4-3.9,6.5-3.7,3.8-4.1,3.9-10.8,3.9-6.1,0-7.2-.3-9.3-2.5-3.8-4-9-2.8-9,2.1,0,1.2-.7,2.7-1.6,3.5-1,.8-1.4,2.3-1.2,4.1.3,1.6-.1,3.3-.9,3.9-2,1.7-1.6,4.6.9,6.4l2.3,1.5-2.7,2.3c-1.5,1.2-2.8,3.3-3,4.7-.3,2.1-.9,2.5-4.3,2.8-5.4.5-22.1-2.6-23.5-4.3s-.5-5,2.6-9.1c1.2-1.7,3.5-6.9,5-11.5,1.5-4.6,4.4-11.7,6.6-15.7,2.3-4.4,3.8-8.7,3.8-10.8,0-3.8-.2-3.6,10.4-7,3.3-1,6.1-2.4,6.3-3,.4-1.2-3.9-3.4-6.7-3.4-2.4,0-2.7-2.8-.4-3.7.9-.3,3,.1,4.8.9,3.2,1.6,3.2,1.5,5.4-1.7,1.3-1.8,2-3.9,1.6-4.9-1.1-2.9,1.2-4.5,5.4-3.5,2,.5,7.3.9,11.7.9s12.4.5,17.9,1c5.4.5,10.3.7,11,.3.6-.4,12.1-.8,25.6-.9,18.1-.1,25.5.3,28.4,1.3,2.7.9,9.4,1.3,21.7,1.3,16.9,0,18.2-.1,23.5-2.5,6.1-2.7,8.4-3.1,8.4-1.5,0,.6,1.1,2.1,2.5,3.4,2.2,2,3.3,2.3,9.5,1.9l7-.4v6.1c0,5.8-.1,6.1-2.1,5.5-3.9-1.3-12-1.2-13.3.1-1.4,1.3-67.5,4.4-95.9,4.4-12.4,0-14.7.2-14.7,1.5,0,.8-.5,1.5-1,1.5-1.6,0-1.2,9.6.4,10.9,1.1.9,1.6.9,2.1,0,.4-.6.1-1.5-.6-2-1-.6-1.1-.9-.2-.9.7,0,1.3-1.1,1.3-2.5,0-2.7,3-4.8,5.4-3.9.9.3,1.6.1,1.6-.6,0-.6.5-.8,1.2-.3,1.6,1,8.8,1.2,8.8.3,0-.4,2.3-.5,5.1-.2,3.7.3,5.4.1,6-.9.7-1.1.9-1.1.9-.1s1.4,1.1,5.7.7c3.2-.3,9.8-.6,14.8-.6,5.8,0,9.3-.4,9.8-1.2.7-.9,1-.9,1.4,0,.6,1.5,4.3,1.7,4.3.3,0-.6.5-1,1.1-1,.5,0,.7.4.4,1-.8,1.3,1.8,1.3,3,.1,1-.9,21.9-2,42-2.3,5.5-.1,10.6-.5,11.2-1.1.7-.5,1.3-.6,1.3-.2s.8-.3,1.9-1.6c2.2-2.9,2.7-11.7.8-14.3-1-1.3-3.3-1.9-9.6-2.3-4.5-.3-7.7-.9-7.1-1.3.7-.4-.2-1.5-2.4-2.8s-3.8-1.7-4.2-1.1c-.4.7-1,.7-1.8,0-1.4-1.1-9.6,2.2-9.6,3.9,0,.7-6.4,1-19.3.9-10.5-.1-17.9-.4-16.2-.8q2.9-.7-1.3-1.4c-2.4-.4-4.7-.5-5.3-.2-.5.4-.9.2-.9-.4,0-.5-1-1.1-2.3-1.3-1.6-.2-2.2-.9-2.1-2.8.1-1.4-.4-2.8-1-3.2-1.2-.8-.2-.9,14.9-1,5.5,0,10.5-.5,11.2-1,.7-.6,1.4-.5,1.8.2.3.6,1.1.8,1.6.5.5-.4,4.7-.6,9.4-.6,5.8,0,8.5-.3,8.5-1.1,0-.9.3-.9,1.2,0,1.9,1.9,8.5,1.5,9.7-.6.9-1.5,1-1.5,1.1,0,0,1.3.9,1.6,4.2,1.3,2.4-.1,4.5-.3,4.8-.5.3-.1,2.9-.2,5.7-.1,3.5,0,5.3-.4,5.3-1.2,0-.9.2-.9.8,0,.9,1.4,8.3,1.3,9.5-.2.6-.7,1-.7,1.3,0,.6,1.4,8.5,1,9.4-.4.5-1,.9-.9,1.3.2.5,1.4,1.1,1.4,5.4.1,2.6-.8,6.6-1.4,8.8-1.4,2.2.1,4.4.1,5,0,.5-.1,1.4-.2,1.9-.1,1.3.3,5.6-4.1,5-5-.3-.5-.1-.9.4-.9,1.4,0,.8-8.3-.6-8.8-.7-.2-1.2-.9-1.2-1.7,0-.7-.7-1.8-1.6-2.6-1.3-1-1.7-1-2.5.2-.7,1.1-.9,1.1-.9.1,0-1-1.4-1.3-4.9-1.1-4,.2-5.4-.2-8.1-2.4-3.6-3.1-7-3.6-7-1Zm6.7,5.9c2.8,3,3.5,3.3,5.2,2.2,1.5-.9,2.3-.9,3.4.1,1,.8,1.7.9,2.2.1.3-.5,1.7-1,3.1-1,2.3,0,2.4.3,2.4,6q0,6-3,6c-1.7,0-3-.5-3-1.2,0-.9-.3-.9-1.2,0-1.5,1.5-4.5,1.6-5,.2-.2-.6-1.3-.2-2.4.8-1.9,1.8-4.8,2.1-36.2,3.1-18.8.7-43.3,1.2-54.4,1.2l-20.3-.1-1.3,2.7c-.6,1.5-1.2,4.6-1.2,7v4.3s-20.6-.1-20.6-.1c-14-.1-20.9.2-21.7,1-1.2,1.2-4.9,1.4-9.7.5-2.2-.5-3.9-1.7-5.2-4-2.5-4.2-3.6-4.3-5.1-.4-.8,2.1-1.8,3-3.4,3-2,0-2.1-.3-1.3-2.6.6-1.4,1-3.9,1-5.5q0-3.2,10.4-6.5c3.3-1,6.1-2.4,6.3-3.1.6-1.6-5.1-4.5-7.2-3.6-1.3.4-1.6.1-1.3-1.3.4-2.4,4.1-3,6.9-1,2,1.4,2.3,1.3,4.6-1.4,1.7-2,2.2-3.6,1.8-5.3-.9-3.5,1.2-4.8,6-3.7,2.2.5,8,1,13,1s12.8.4,17.4,1c4.6.5,8.9.6,9.5.2s12.1-.8,25.6-.9c18-.1,25.7.2,29,1.2,3.2.9,9.9,1.3,22.5,1.2,16.4-.2,18.4-.4,22.6-2.5,5.8-2.8,6.7-2.7,10.6,1.4Z"/>
  <path class="cls-1" d="m236.8,8.87c-3.5.2-15.8.4-27.5.5-11.6,0-20.9.4-20.6.8.6,1.1,55.3,1,55.3,0,0-.5-.2-1.1-.4-1.3-.3-.2-3.3-.3-6.8,0Z"/>
  <path class="cls-1" d="m156.9,8.47c-16.1,0-20.9.3-20.9,1.2,0,1,5.7,1.3,25.2,1.3,23.6,0,28.8-.5,20.2-1.9-2-.3-13.1-.6-24.5-.6Z"/>
  <path class="cls-1" d="m108.2,8.07l-15.2-.1-2,3.2c-1,1.7-1.7,3.5-1.4,4,.3.4.1.8-.5.8s-1.8,1.4-2.6,3.1c-.9,1.7-3.2,3.9-5,5.1-3.3,1.9-3.4,2.1-2,4.7,2.3,4.6,9.2,10.2,11.8,9.6,7.6-1.7,15.1-2.2,21.7-1.5,11.1,1.3,11,1.3,11-1.5v-2.5s-12.6,0-12.6,0c-11.8,0-12.7.1-14.4,2.2-1,1.3-2.1,2-2.4,1.7s-1.1-4.1-1.6-8.5c-.9-6.6-.7-8.8.6-13.2l1.7-5.2,16.1-.1c9.9,0,15.3-.4,14.1-.9-1.1-.5-8.9-.9-17.3-.9Zm-21.2,14.2c1.5-.6,5,1.9,5,3.6,0,1.5-.9,2.2-3.4,2.6-6.8,1.3-10.2-1.9-4.9-4.6,1.6-.7,3-1.4,3.3-1.6Z"/>
  <path class="cls-1" d="m258,11.97c-.6,0-1,1.3-1,3s.4,3,1,3c.5,0,1-1.4,1-3,0-1.7-.5-3-1-3Z"/>
  <path class="cls-1" d="m251,11.97c-.6,0-1,1.3-1,2.9,0,1.7.4,3.3,1,3.6.6.4,1-.8,1-2.9s-.5-3.6-1-3.6Z"/>
  <path class="cls-1" d="m190,11.97c-47.3,0-54,.2-54,1.5s6.7,1.5,54,1.5,54-.2,54-1.5-6.7-1.5-54-1.5Z"/>
  <path class="cls-1" d="m129,11.97c-4.9,0-5,.1-5,3s.1,3,5,3,5-.1,5-3-.1-3-5-3Z"/>
  <path class="cls-1" d="m95.5,15.37c-1.5,2.9-2,10.3-.8,14.4,1.1,4.4,2.3,0,2.3-8.8,0-8.1-.1-8.4-1.5-5.6Z"/>
  <path class="cls-1" d="m189.5,17.37c-30.3,0-49.6.2-43,.6l12,.5.3,2.7c.2,1.6.9,2.8,1.6,2.8.9,0,1.2-.9.8-2.5l-.4-2.5,12.8-.1c7.1-.1,25.9-.5,41.9-.8,24.6-.6,20.6-.7-26-.7Z"/>
  <path class="cls-1" d="m231.8,19.27c-6.6.4-17.6.7-24.4.7-9.9,0-12.3.3-12.8,1.5-.5,1.5,3.9,1.5,32.4,0,4.7-.3,10.4-.5,12.7-.5,2.6,0,4.3-.5,4.3-1.2,0-.8-3.3-.9-12.2-.5Z"/>
  <path class="cls-1" d="m171,20.87c-7.3.5-8.2.8-6.4,1.8,2.9,1.7,27.5.4,28.2-1.5.4-1.3-7-1.5-21.8-.3Z"/>
  <path class="cls-1" d="m130,19.97h-4s0,8,0,8c0,7.9,0,8,2.5,8,2,0,2.5-.5,2.5-2.5,0-1.4-.4-2.5-1-2.5s-.5-1,.2-2.5c.6-1.4,1.7-2.5,2.5-2.5s1.3-1.2,1.3-3c0-2.8-.2-3-4-3Z"/>
  <path class="cls-1" d="m192.8,43.87c-3.5.3-16,.5-28,.6-11.9,0-21.1.3-20.5.7,1.7,1.1,55.7,1,55.7,0,0-.5-.2-1.1-.5-1.4-.3-.2-3.3-.2-6.7.1Z"/>
  <path class="cls-1" d="m112.3,43.47c-15.6,0-20.3.3-20.3,1.2s5.6,1.3,24.7,1.3c23.1,0,28.3-.5,19.7-1.9-2.1-.3-12.9-.6-24.1-.6Z"/>
  <path class="cls-1" d="m62.4,43.37c-14.3.1-15.8.6-16.9,5.7-.4,1.6-1,2.9-1.5,2.9s-1.2.9-1.5,2.1c-.4,1.1-2.4,3.3-4.5,4.8q-3.8,2.8-2.3,5.9c.9,1.8,3.2,4.6,5.2,6.2s4.4,3.6,5.3,4.4c1.5,1.3,1.8,1.2,3.1-.7,1.3-2,2.4-2.2,10.6-2.4,5.3-.1,9.1.2,9.1.7,0,.6,1,1,2.2,1,1.9,0,2-.2.8-1-1-.7,0-.8,3.3-.3,4.7.6,4.9.5,4.5-1.8-.3-2.4-.4-2.4-13.6-2.7-11.1-.2-13.2,0-13.2,1.2,0,2.1-2.1,3.1-3.1,1.5-.5-.8-.9-3.7-.9-6.4-.1-4.1-.3-4.6-1.1-2.7-.8,2-1.5,2.3-5.6,2-3.4-.2-4.9-.8-5.1-1.9-.4-2.1,4.9-4.3,8.3-3.5,2.1.5,2.5.3,2.5-1.6,0-1.3.8-4.5,1.7-7.1l1.7-4.8,15.8.3c8.7.2,15.8,0,15.8-.4s-1.7-.9-3.8-1.1c-2-.3-9.6-.4-16.8-.3Z"/>
  <path class="cls-1" d="m213,50.57c0,2.1.4,3.3,1,2.9,1.1-.7,1.4-4.8.3-5.8-1.1-1.2-1.3-.8-1.3,2.9Z"/>
  <path class="cls-1" d="m207,46.97c-.6,0-1,1.3-1,2.9,0,1.7.4,3.3,1,3.6.6.4,1-.8,1-2.9,0-2-.5-3.6-1-3.6Z"/>
  <path class="cls-1" d="m146,47.77c-46.1.2-54,.4-54,1.7,0,1.2,7.8,1.4,54,1.4,50.1,0,54-.1,54-1.7s-3.8-1.7-54-1.4Z"/>
  <path class="cls-1" d="m85.5,46.97c-4.3,0-4.5.1-4.5,3s.2,3,4.5,3,4.5-.1,4.5-3-.2-3-4.5-3Z"/>
  <path class="cls-1" d="m52.3,48.37c-.4.3-.6,3-.6,5.9l.1,5.2-.8-4.5q-.7-4.4-1-1c-.4,5.7.1,13.4,1.1,15,.7,1.1.8.9.4-.8-.4-1.3-.2-2.2.4-2.2.7,0,1.1-3.3,1.1-9.2,0-5-.3-8.8-.7-8.4Z"/>
  <path class="cls-1" d="m145.5,52.37c-30.3,0-49.6.2-43,.6,11.9.5,12,.5,12.3,3,.3,2.4.3,2.5-1.2.5-1.3-1.7-1.5-1.7-1.6-.4,0,1.7,1.9,2.9,4.7,2.9,1.3,0,1.3-.3.2-1.6-2.2-2.7.7-3.4,16.1-3.5,8-.1,26.4-.5,41-.8,21.5-.6,16.1-.7-28.5-.7Z"/>
  <path class="cls-1" d="m151.2,55.57c-.6.2-1.2.8-1.2,1.4,0,.8,4.6,1,15.7.5,24.6-.9,34.3-1.6,34.3-2.5,0-.8-46.1-.3-48.8.6Z"/>
  <path class="cls-1" d="m140,55.27c-5.1.4-12.3.7-15.9.7-6.3,0-6.5.1-4.2,1.6,2,1.4,4,1.5,15.4.8,9.7-.7,13.2-1.3,13.5-2.3.4-1.2-1.1-1.3-8.8-.8Z"/>
  <path class="cls-1" d="m85.7,54.97h-4.4s.1,8.5.1,8.5v8.5s2.9,0,2.9,0q2.9,0,2.2-4.9c-.6-4.4-.4-5.1,1.4-6.1,1.3-.6,2.1-2.1,2.1-3.5,0-2.3-.4-2.5-4.3-2.5Z"/>
  <path class="cls-1" d="m28.5,67.97c-.3,0-1.7,2.3-3.1,5.2-1.5,2.9-3.5,6.3-4.5,7.8-1,1.4-2.8,6.1-4,10.5s-3,9.7-4.1,11.8c-1.1,2.2-1.7,4.4-1.5,5.1.3.7,2.8,1.7,5.7,2.4,9.9,2.3,12.6,1,7.6-3.7-7.7-7.2-7.5-20.8.3-27.4,2.6-2.2,4.3-2.7,8.4-2.7h5.2s-3-1.9-3-1.9c-1.7-1-3.9-3-4.8-4.5-1-1.4-2-2.6-2.2-2.6Z"/>
  <path class="cls-1" d="m58.7,76.47c-1.6,3.4-1.6,3.6.3,5.5,1.1,1.1,2.5,2,3.1,2,.5,0,.7.5.3,1.2-.8,1.3,1.2.3,3.8-2,2.7-2.3,2.4-8-.5-9.2-3.9-1.6-5.3-1.1-7,2.5Z"/>
  <path class="cls-1" d="m50.8,75.97c-1.3,0-1.8.8-1.8,2.9,0,4,2.8,6.9,7.5,7.7l4,.7-3.3-3.1c-1.7-1.6-3.2-3.9-3.2-4.9,0-1.1-.3-2.3-.7-2.6-.3-.4-1.5-.7-2.5-.7Z"/>
  <path class="cls-1" d="m32.4,79.97c-3.4,0-7.2,3.1-8.8,7-2.1,5.3-2,7.8.5,12l2.1,3.4,1.4-2.7c.8-1.5,1.8-2.7,2.3-2.7.4,0,.6-1.1.3-2.5-.3-1.6.2-3.3,1.3-4.5.9-1,1.5-2.5,1.3-3.2-.3-.7-.1-2.5.3-4.1.6-2.1.4-2.7-.7-2.7Z"/>
</svg>