<?xml version="1.0" encoding="UTF-8"?>
<svg id="a" data-name="Layer 1" xmlns="http://www.w3.org/2000/svg" viewBox="0 0 221.85 55.13">
  <defs>
    <style>
      .b {
        fill: #fff;
      }
    </style>
  </defs>
  <path class="b" d="m65.03.24c-.8.3-3.1.7-5,1-3.9.5-8.1,3.8-7.9,6.2.6,7-.3,8.3-7.9,10.5-1.2.3-2.2,1.1-2.2,1.6,0,.5-5.9.9-13.8.8-8.6,0-13-.4-11.7-.9q2-.9,0-1c-1.1-.1-4.2-.4-6.8-.6-4-.4-5.3-.1-7.3,1.8C-.17,22.14-.87,28.14,1.23,30.24c.7.7.8,1.2.2,1.2-1.2,0-1.2,8.3.1,9.2.6.5.5.8-.3.8-1.9,0-1.4,4.4.8,6.8,2.8,3,8.3,2.9,13.9-.3,2.4-1.4,6.3-3,8.7-3.6,2.3-.6,4.5-1.7,4.8-2.4.2-.7,2.5-1.6,5-1.9,2.5-.4,4.9-1.3,5.3-1.9.5-.7,1.7-1.3,2.8-1.4s3.6-.6,5.6-1.1c5.9-1.5,6.9,0,3,4.8-3.9,4.9-3.7,8,1,10.2,1.6.8,2.9,1.9,2.7,2.4-.6,1.6,6.9,2.8,9.7,1.6,1.5-.7,2.3-1.6,2-2.2-.3-.5.4-1.4,1.6-2,1.1-.6,2.5-2.4,3-3.9.9-2.4,1.5-2.8,5.7-3,2.8-.1,5-.8,5.5-1.7,1.1-1.9,3.8-1.8,3.1.1-.4.8-.3,3,0,4.9.5,2.5,1.3,3.6,3.2,4,1.4.4,2.2,1.1,1.9,1.6-.3.6-.2,1,.4,1,.5,0,1.2-.4,1.5-.9s3.1-1.2,6.2-1.6c8-1,10.2-3.3,10.3-11.4.1-10.1-2-9.4,29.2-9.6,15.1-.1,33.5-.2,40.9-.4,7.4-.1,14.6-.1,16-.1,6,.2,13.4-.8,13.8-1.8.2-.8.8-.8,1.7.2,1.9,1.9,6.5.8,9.3-2.1,2.7-3,2.7-3.5-.1-6-2.4-2.2-9.7-3.8-9.7-2.2,0,.6-.5.7-1.2.3-.9-.6-15.8-.8-19.6-.2-3.9.5-6.8-.6-10-3.8-3.9-3.9-8.1-5.3-10.3-3.2-1.1,1-5,1.3-16.4,1.1-9.4-.1-15.4.2-16.2.9-.9.7-1.3.7-1.3-.1,0-.6-1.8-1.1-4.5-1.1s-4.5.4-4.5,1.2c0,.9-.3.9-1.2,0-1.6-1.6-8-1.6-9.6,0-.8.8-1.2.8-1.2.1,0-1.4-20-1.2-20,.2,0,.6-.3.5-.8-.1-.4-.6-2.6-1.4-5-1.7-4.6-.6-6.6-1.7-4.5-2.4,1.8-.7,1.6-4.3-.2-4.3-.8,0-1.5-.6-1.5-1.4,0-1.5-7.8-2.8-8.7-1.3-.2.4-1,.4-1.6-.1-.7-.6-2.1-1.2-3.2-1.5-1.1-.2-2.7-.2-3.5.1Zm1.4,3.2c1.4,0,2.6.6,2.6,1.2,0,1,1.8,1.2,6.6,1l6.7-.4-2.2,3.5c-2.6,4.2-2.6,4.7-.2,4.7,1.1,0,2.1.6,2.3,1.2.4,1,10,1.3,43.6,1.3,40.2,0,43.1-.1,43.6-1.8.6-2.4,4.7-2.2,5.3.3.3,1.1,1.2,2,1.9,2,.8,0,1.4.7,1.4,1.5,0,.8-.5,1.5-1,1.5-.6,0-1,.4-1,1s6.8.7,18.8.3c19.6-.6,24.2-.2,24.2,2.1,0,1.9-4.5,2.8-12.8,2.5-5.5-.3-7.3,0-8.6,1.4-1.9,1.9-3.6,1.4-3.6-1,0-1.2-.3-1.3-1.4-.4s-2,.9-3.5.2c-2.7-1.5-11.7-1.4-14.4.1-1.5.8-11,1.3-30.7,1.5-24.4.2-28.7.1-29.6-1.2-1-1.3-1.3-1.3-2.3-.1-.7.8-1.9,1.2-2.7.9-2.9-1.1-4.3,2.8-4.4,11.4,0,8.2,0,8.3-2.8,8.8-1.5.4-4.6,1-6.9,1.6-6.7,1.5-6.5,1.7-6.1-7.5.3-8.3.2-8.5-2.1-8.9-2.6-.5-5.9,1.7-4.1,2.8.7.4.7,1.3,0,2.6-1.2,2.2-8.5,2.8-9.3.6-.5-1.5-.4-1.6-6.1,6.3-2.5,3.5-4.6,7-4.6,7.8,0,1.1-.3,1.2-1.4.3-.7-.6-3.6-2.4-6.4-3.9l-5-2.8,6.4-5.2c3.5-2.9,6.4-5.7,6.4-6.1,0-.5-.7-1.4-1.6-2.1-2.9-2.5-10.5-1.3-23.4,3.5-25,9.4-31.3,11.6-32.3,11.2-.6-.2-1.1-4.8-1.1-11.3-.1-6-.5-11.7-1-12.7-.8-1.8-.4-1.8,6-1.4,12.3.9,31.7.7,35.8-.4,2.3-.6,4.8-1.7,5.7-2.5.8-.7,2.9-1.7,4.6-2,2-.4,3-1.1,2.7-1.9-.3-.7-.1-1.6.5-2,.6-.3,1.1.1,1.1.9,0,1.1.9,1.6,3,1.6,1.6,0,3-.4,3-.9,0-1.4-2.2-2.6-4.3-2.3-.9.2-1.7-.2-1.7-.9,0-.8-.4-.8-1.5.1-2.1,1.7-3.8.1-3.3-3.1.2-1.6,1-2.4,2.3-2.4,1.1-.1,2.5-.4,3.1-.8,1.5-.9,2.4.2,2.4,3,0,1.2.5,2.3,1,2.3.7,0,.8-1.3.4-3.5-.6-3.3-.5-3.5,2-3.5Z"/>
  <path class="b" d="m70.03,7.44c-1.1,0-2,.7-2,1.5s.9,1.5,2,1.5,2-.7,2-1.5-.9-1.5-2-1.5Z"/>
  <path class="b" d="m68.83,11.64c-.4-.1-1,.2-1.3.8-.4.6,1.2,1,4.1,1,4.7,0,5.2,1.3.9,2.3-1.4.3-1.1.5,1,.6,2.4.1,3.1-.3,3.2-1.8.1-1.6-.6-2.1-3.5-2.4-2-.2-4-.4-4.4-.5Z"/>
  <path class="b" d="m160.93,19.24c-1.8,1.7-3.6,2-13,2-10.4,0-13.9-.9-10.8-2.9.9-.5-3.3-.9-10.4-.9h-11.7s0,2.7,0,2.7v2.8s24,0,24,0h24s0-2.8,0-2.8q0-2.8-2.1-.9Zm-28.8.3c1.4.4-.6.7-5,.8-4.1.1-7.1-.2-6.7-.6.9-.9,8.6-1,11.7-.2Z"/>
  <path class="b" d="m152.23,18.14c1,.2,1.8.9,1.8,1.4,0,.5,1.2.9,2.7.9,2.9,0,2.2-1.5-1.2-2.3-2.6-.6-5.6-.6-3.3,0Z"/>
  <path class="b" d="m75.53,17.44c-12.2,0-14.5.2-14.5,1.5s2.2,1.5,13.9,1.5,14-.3,14.5-1.5c.5-1.3-1.5-1.5-13.9-1.5Z"/>
  <path class="b" d="m171.03,19.44c-1.1,0-2,.4-2,.9s-.3,1.6-.6,2.5c-.5,1.2,0,1.6,2,1.6,2.1,0,2.6-.5,2.6-2.5,0-1.8-.5-2.5-2-2.5Z"/>
  <path class="b" d="m98.03,19.44c-3.8,0-7.2.4-7.5,1-.4.6,2.3,1,7.5,1s7.9-.4,7.5-1c-.3-.6-3.7-1-7.5-1Z"/>
  <path class="b" d="m49.73,21.84c-2.2,1.7-2.8,3-2.5,5.1.5,4.4,2.6,4.2,2.4-.2-.1-3,.4-4,2.1-4.8,1.3-.5,2.3-1.3,2.3-1.7,0-1.3-1.4-.8-4.3,1.6Z"/>
  <path class="b" d="m70.13,21.94c-9,0-10.1.2-10.1,1.7,0,1.6,1.2,1.8,10.5,1.8,8.1,0,10.5-.3,10.5-1.3,0-.8-.2-1.6-.4-1.8s-5-.4-10.5-.4Z"/>
  <path class="b" d="m52.03,25.04c-1.3,3.2-1.3,3.1.4,3.7,1,.4,1.5-.4,1.8-2.9.5-4-.8-4.5-2.2-.8Z"/>
  <path class="b" d="m11.33,23.44c-2.2,0-2.2.3-1.7,6.2,1.1,13,1.4,14.7,3,14.1,1.1-.4,1.3-2.2,1-9s-.1-8.5,1.1-9,1.2-.7.1-1.4c-.7-.5-2.3-.9-3.5-.9Z"/>
  <path class="b" d="m98.23,26.44c-6.5,0-8.2.3-10,2-2.5,2.4-3,3.9-.6,2,.8-.8,5.1-1.5,9.5-1.8s8.2-.9,8.5-1.3c.3-.5-3-.9-7.4-.9Z"/>
  <path class="b" d="m101.63,30.44c-.8,0-1.2.9-1.1,2.2s.3,4.7.4,7.6c.2,8,2.1,5.4,2.1-2.9,0-5.2-.3-6.9-1.4-6.9Z"/>
  <path class="b" d="m97.33,33.64c-.2,2.1-.2,5.7,0,8,.2,2.4.4.7.4-3.7s-.2-6.3-.4-4.3Z"/>
  <path class="b" d="m93.03,30.44c-.6,0-1,3.3-1,8s.4,8,1,8,1-3.3,1-8-.4-8-1-8Z"/>
  <path class="b" d="m67.53,33.44c2,2.2,5.6,2.3,6.2.3.2-.6-.8-1.3-2.4-1.6q-5.7-.8-3.8,1.3Z"/>
  <path class="b" d="m77.23,35.34c.5,2.4,3.8,2.7,3.8.3,0-1-.3-2.1-.6-2.5-1.1-1.1-3.5.5-3.2,2.2Z"/>
</svg>