<?xml version="1.0" encoding="UTF-8"?>
<svg id="Layer_1" data-name="Layer 1" xmlns="http://www.w3.org/2000/svg" viewBox="0 0 266.9 87.18">
  <defs>
    <style>
      .cls-1 {
        fill: #fff;
      }
    </style>
  </defs>
  <path class="cls-1" d="M123.8,.52c-.5,.8-.8,.8-1.3,0-.5-.7-1.2-.7-2.6,.1-1,.7-1.7,1.5-1.4,2,.3,.4-.7,1-2.1,1.4-1.4,.3-2.5,1.2-2.5,2s-.5,1.4-1,1.4c-.6,0-1-.3-1-.8,0-1.1-8.4-.9-9.2,.3-.4,.6-.8,.2-.8-.8,0-2.2-5.6-2.3-8.8-.1-1.2,.8-2.2,1.2-2.2,.7,0-.4-.5,0-1.1,.9-.5,1-2.5,2-4.4,2.4-1.9,.3-3.5,1-3.5,1.6,0,.5-.5,.6-1.2,.2-1.4-.9-8.1-.9-9.6,0-.5,.3-1.2,.1-1.4-.5-.5-1.6-4.8-.2-4.8,1.6,0,.7-.9,1.5-2,1.8-1.5,.4-2,1.4-2,4.2,0,2-.4,3.4-.9,3.1s-3.1-.3-5.7,.2l-4.9,.7,5.5,.6,5.5,.6-6.2,.1c-5.2,.2-6.1-.1-5.7-1.3,.5-1.2-.2-1.5-3.2-1.6-2.2,0-6.5-.2-9.7-.3-4.3-.1-6.1,.2-6.7,1.4-.8,1.3-.9,1.3-1-.2,0-1.6-.9-1.7-7.3-1.3-3.9,.3-8.1,.7-9.2,.9-1.1,.3-2.5,.5-3,.6-.6,.1,.1,.6,1.5,1,2.5,.8,2.4,.8-.5,.9-5.9,.2-7.4,1.2-8.7,5.3-1,3.3-.9,4.1,.3,4.9,.9,.5,1,.9,.2,.9-1.4,0-1.7,18.7-.2,19.6,.5,.3,.7,.9,.4,1.3-.7,1.2,4.2,5.4,5.4,4.6,.6-.3,1.1-.1,1.1,.5,0,1.4,7.1,.2,8.5-1.4,.5-.7,1.8-1.5,2.8-1.9s1.5-1.1,1.2-1.7c-.3-.5,0-1,.8-1,.7,0,1.9-1.1,2.5-2.5s1.8-2.5,2.7-2.5c.8,0,1.5-.8,1.5-1.8,0-1.2,.3-1.3,.8-.4,.8,1.2,4,.6,9.7-1.8,4.1-1.8,16.7-2.6,20.7-1.4,2.5,.7,2.5,6.9,0,8.3-1.4,.9-1.4,1.2-.4,1.9,1.1,.8,1.1,1-.1,1.5-1.8,.7-3,7.6-1.5,9.4,.8,1,.7,1.3-.2,1.3-1,0-1,.3,0,1.5,.7,.8,1.7,1.5,2.3,1.5,.5,0,1.5,.6,2.1,1.4,1.4,1.8,8.6,3,8.6,1.5,0-.8,.5-.8,1.5,.1,1.2,1,2.1,.7,4.9-1.8,2.6-2.2,3.1-3.3,2.3-4.1s-.9-1.4-.1-1.9c.6-.4,1.5-2.7,2-5.2l.9-4.5,5-.5c7.4-.7,14,.2,14,2,0,.8,.6,1.4,1.3,1.2,.8-.1,1.2,1,1.2,3.2s.6,3.6,1.6,4c1.3,.5,1.4,.9,.4,2.1-.9,1-.9,1.5-.1,1.5,.6,0,1.7,1.6,2.5,3.5s1.9,3.5,2.4,3.5,.8,1,.8,2.3c-.1,1.3,.4,2.1,1.2,1.9,.7-.1,1.5,1.1,1.8,2.7,.5,2.2,1.3,3.1,3.4,3.6,3.7,.8,10.1-.4,12.2-2.3,1-.8,1.8-1.2,1.8-.8s1.4-.6,3.1-2.3,2.8-3.5,2.5-4c-.4-.5-.1-1.1,.6-1.3,1.7-.6,.1-5.5-2.7-8-1.3-1.1-2.2-2.4-2-2.9,.6-.8-3.3-8-5-9.1-.6-.5-.5-.8,.3-.8,1,0,1-.6-.1-2.8-3.6-7-2.9-9.2,2.9-9.2,1.3,0,2.4-.5,2.4-1.2,0-.6,.7-.4,1.8,.5,1,1,2.6,1.7,3.6,1.7s1.6,.6,1.3,1.2c-.2,.7,0,2.1,.5,3.2,.6,1,.9,5,.9,8.9,0,4.5,.4,7.4,1.2,8,.9,.7,.9,1,0,1.3-.9,.4-.9,1.1-.1,2.9,.6,1.4,1.4,2.2,1.8,2,.4-.3,1,.4,1.3,1.4,.6,2.4,6.6,3.4,8.8,1.4,1.2-1,1.8-1.1,2.1-.2,.2,.6,1.7-.5,3.2-2.6,2.3-3,2.6-3.9,1.5-4.7-.8-.6-1-1.1-.4-1.4,1.4-.5,.6-8.7-.9-9.6-.8-.6-.8-.8,.1-.8s2.3-4.6,2.7-9.1c.2-1.5,3.4-3.4,6.1-3.5,7-.4,9.7-.9,10.6-2,.6-.7,2.4-1.6,4-1.9,1.6-.4,2.9-1.1,2.9-1.7,0-.6,.6-.5,1.5,.2s1.8,1,2.1,.7,1.7-.1,3.1,.4c1.7,.6,3,.6,3.8-.1,.9-.8,1.4-.7,1.7,.1,.5,1.4,8.8,2.2,8.8,1,0-.4,2.3-.9,5.2-1s5.6-.7,6-1.4c.6-.9,.8-.9,.8,0,0,.8,1.4,1.3,3.4,1.3s3.7,.4,4,.8c.2,.4,1.7,.7,3.3,.6,1.5-.1,4.3-.2,6-.3,2.4-.1,3.3-.6,3.4-1.9,.1-1.6,.2-1.6,.6,0,.3,1.2,1.5,1.8,3.6,1.9,1.8,.1,6,.2,9.5,.4,4.9,.3,6.5,0,6.9-1.2,.5-1.2,.7-1.2,1.4-.1,.6,1,1.1,.9,2.3-.7,.8-1.1,1.2-2.3,1-2.7-.3-.5,.2-.8,1-.8,1.2,0,1.6-1,1.6-3.4,0-5.6-2.5-6.6-15.7-6.6-7.2,0-11.3,.4-11.3,1,0,.7-.5,.6-1.3-.1-.7-.7-1.1-3-1-5.6,.2-3.7-.1-4.5-2-5.3-1.2-.5-1.5-.9-.7-.9,2.5-.1-3.2-3.6-6-3.7-2.5,0-5,1.7-5,3.4,0,.6-.6,1.2-1.4,1.5-.7,.3-1.4,1.6-1.4,2.9-.3,7-1,7.8-6.7,7.8s-8.5-.9-7.8-2.7c.3-.9-.8-2.6-2.8-4.3-3.9-3.3-5.9-3.8-5.9-1.3,0,1.5-.2,1.4-1.4-.2-1.5-2-1.7-2-8.8,1.6-.9,.4-1.8,.5-2,.1s-1.8-1.5-3.5-2.5c-2.9-1.6-5.8-1.8-26-1.7-12.6,.1-23.5,.1-24.3,.1-1.2-.1-1.5-1-1.2-4s-.1-4.4-1.7-6c-1.2-1.2-1.8-2.1-1.4-2.1,.5,0-.1-.7-1.1-1.5-1.4-1.1-2.2-1.2-2.7-.4Zm-.4,3.9h3.4s-.2,6.7-.2,6.7l-.2,6.8-4,.6c-2.2,.4,1.3,.6,7.7,.5,6.5-.1,12.1-.5,12.4-.9,.4-.4,8.5-.7,18.1-.7,17,0,17.3,0,17.3,2.1,0,2.2,.2,2.2,12.2,1.5l12.3-.7v3.8s0,3.8,0,3.8l10.7,.3,10.7,.3,1.2-7.6c1.3-7.4,1.3-7.5,4.4-7.5h3s-.3,7.8-.3,7.8l-.4,7.8,6.9-.7c3.7-.5,10.7-.8,15.5-.8l8.8-.1v4s0,4,0,4l-8.8-.1c-4.8,0-11.7-.3-15.5-.8-5.2-.5-6.7-.4-6.7,.6,0,.7-1.1,1.3-2.5,1.3-1.5,0-2.4-.5-2.2-1.3,.1-.9-2.3-1.2-9.6-1.4-7.7-.1-9.7,.2-9.7,1.3,0,.8-.9,1.4-2,1.4s-2-.5-2-1.1c0-.8-1.3-.9-3.9-.5-2.3,.3-4.2,.2-4.6-.4-.7-1.1-13.3-1.4-15.9-.4-.9,.3-1.6,1.5-1.6,2.5,0,1.7-.8,1.9-8.5,1.9s-8.5,.2-8.5,1.9c0,1-1,2.5-2.1,3.3-2,1.3-2.2,2.2-2.1,12.9,0,6.2,.2,12,.4,12.8,.2,1.1-1,1.5-5.5,1.6l-5.7,.1-.1-9c-.1-5-.1-10.8-.2-12.9,0-2.9-.5-4.2-2.3-5.4-1.3-.8-2.4-2.4-2.4-3.5,0-1.9-.6-2-10.5-1.6l-10.5,.3v2.7c0,5.1,5,18.4,9.9,26.6l4.9,8.2-7.6,4.5c-4.2,2.5-7.9,4.5-8.3,4.5-.9,0-11.4-22.5-14.3-30.8-1.4-4-2.6-8.3-2.6-9.6,0-2.7-1.8-4.6-4.2-4.6-1.4,0-1.8,.8-1.8,3.6,0,4.3,2.2,4.2,3-.2l.6-2.9,.6,3c.5,2.3,.2,3.3-1.3,4.4-1,.7-1.9,2.2-1.9,3.2,0,2.6-2,3.5-2.7,1.1-.4-1.6-1.4-2-5.1-2.1-2.6,0-5.8-.2-7.2-.3-2.2-.3-2.7,.4-4.4,5.2-1,3-2.1,7.5-2.5,10-.6,4.3-.8,4.5-3.6,4.3-7.8-.5-11.5-1.5-11.5-2.9,0-.9,1.4-5.8,3.1-11l3.2-9.5-2-2.7c-1.7-2.3-2.9-2.7-7.9-3-6.7-.4-23.4,1.8-23.4,3,0,.4-2.6,.8-5.8,.8h-5.7s-1.6,4.3-1.6,4.3c-1,2.3-1.9,5-2.2,5.9-.4,1.1-2.3,1.8-6.2,2.3-3.1,.4-5.8,.6-6,.3-.2-.2-.5-6.9-.5-14.8l-.2-14.5,3.9,.1c2.3,.1,4.1-.3,4.6-1.2,.6-1.1,4.2-1.4,17.2-1.4,10.3,0,16.5,.4,16.5,1,0,.6,3.1,1,7.4,1h7.4s2.1-4,2.1-4c1.2-2.2,2.1-5.2,2.1-6.5,0-2,.5-2.5,2.3-2.5,1.3,0,2.7,.3,3,.7,.9,.8,7.5,.8,8.4,0,1.6-1.7,5-.6,6.3,2l1.3,2.8,.7-3.2c1-4.3,2.7-6.3,5.6-6.3,1.2,0,2.6-.5,2.9-1,.3-.6,1.7-1,3.1-1,1.3,0,2.4,.4,2.4,1s3.5,1,8.4,1h8.4s.7-3,.7-3c.6-2.6,1.1-3,4-3Z"/>
  <path class="cls-1" d="M115.7,14.92c-.4,1.7-.1,2.5,.8,2.5s1.4-1.1,1.4-3.1c0-3.5-1.5-3.1-2.2,.6Z"/>
  <path class="cls-1" d="M104.9,12.42c-7,0-7.6,.2-8.7,2.5l-1.1,2.5h8.6c8.6,0,8.7,0,8.7-2.5s-.2-2.5-7.5-2.5Z"/>
  <path class="cls-1" d="M68.1,17.82c-.3,.4,3.1,.6,7.6,.6s8.2-.3,8.2-.8c0-.8-14.9-.6-15.8,.2Z"/>
  <path class="cls-1" d="M146.4,19.42c-1.8,0-2.5,.5-2.5,2,0,1.1,.4,2,.9,2s1.6,.3,2.5,.6c1.2,.5,1.6,0,1.6-2s-.5-2.6-2.5-2.6Z"/>
  <path class="cls-1" d="M163.4,20.82c-7.2,0-10.2,.1-6.8,.3s9.3,.2,13,0,.9-.3-6.2-.3Z"/>
  <path class="cls-1" d="M96.9,20.82c-26.4,.1-30.5,.3-30.5,1.6,0,.8-.6,1.9-1.3,2.3-.6,.4-1.2,1.2-1.2,1.7,0,.6,16.3,1,42.7,.9,30.5-.1,41.7-.4,39-1.1-2.6-.7-3.7-1.6-3.7-2.9,0-1.6-1-1.9-7.3-2.2-3.9-.2-20.9-.3-37.7-.3Z"/>
  <path class="cls-1" d="M162.9,22.42c-12.3,0-13,.1-13,2s.7,2,13,2,13-.1,13-2-.7-2-13-2Z"/>
  <path class="cls-1" d="M193.9,24.92c0,1,1.1,1.5,3.5,1.5,3.3,0,4.3-.8,2.8-2.3-1.3-1.4-6.3-.7-6.3,.8Z"/>
  <path class="cls-1" d="M186.2,23.62c-4.2,.2-6.8,.8-7.1,1.5-.3,1,1.5,1.3,6.7,1.3,5.7,0,7.1-.3,7.1-1.5,0-1.3-1.2-1.5-6.7-1.3Z"/>
  <path class="cls-1" d="M196.9,30.92c0,1.1,1.2,1.5,5,1.5,4.9,0,6.8-1.4,3.2-2.3-4.1-1.1-8.2-.7-8.2,.8Z"/>
  <path class="cls-1" d="M153.9,29.42c-18.9,0-22,.2-22,1.5s3.1,1.5,22,1.5,22-.2,22-1.5-3.1-1.5-22-1.5Z"/>
  <path class="cls-1" d="M115.5,29.42c-10.5,0-11.4,.1-11.9,2-.9,3.4-4.4,2.3-3.8-1.3,0-.4-8.3-.7-18.7-.7h-18.7s.1,4.5,.1,4.5c.1,2.5,.4,4.8,.7,5.2,.3,.3,9.8,.2,21.1-.2,19.9-.7,20.5-.8,20.8-2.9,.3-1.9,1-2.1,6.6-2.2,5.8-.1,6.3,0,5.9,1.7-.5,1.7,.1,1.9,4.9,1.9,4.3,0,5.5-.4,6.4-2s.8-2-.5-2-1.9-1.2-1.6-3.3c0-.4-5-.7-11.3-.7Zm-24.4,2.7l.3-2.2,.7,2.2c.4,1.7,1.4,2.3,3.5,2.4q2.7,.2,.3,.6c-1.4,.3-2.8,1-3.3,1.7-.5,.8-.9,.8-1.5-.1s-4.2-1.2-12-1.2c-6.2,.1-11.6-.1-11.9-.5-.4-.3,.1-.6,1-.6,.8,0,1.8-1,2-2.3l.4-2.2,.8,2.2c.6,1.8,1.3,2.1,4.8,1.8,2.9-.2,4.3-.8,4.8-2.1,.7-1.7,.8-1.6,.8,.3,.1,2,.6,2.3,4.5,2.3s4.5-.3,4.8-2.3Z"/>
  <path class="cls-1" d="M59.3,29.42c-.8,0-1.4,.9-1.4,2,0,1.3-.7,2-2,2-1.1,0-2,.4-2,1,0,.5,1.1,1,2.5,1,1.8,0,2.3,.4,1.9,1.5-.4,.9,0,1.5,1,1.5,1.2,0,1.5-1,1.4-4.5,0-3.1-.5-4.5-1.4-4.5Z"/>
  <path class="cls-1" d="M220.4,30.42c-7.7,0-12.5,.4-12.5,1,0,.6,4.8,1,12.5,1s12.5-.4,12.5-1c0-.6-4.8-1-12.5-1Z"/>
  <path class="cls-1" d="M187.2,30.42c-4.2,0-7.3,.3-6.9,.7,1,1,14.6,1,14.6,.1,0-.5-3.4-.8-7.7-.8Z"/>
  <path class="cls-1" d="M166.9,34.42c-8.3,0-11.7,1.1-7.1,2.3,2.8,.7,16.1-.4,16.1-1.4,0-.5-4.1-.9-9-.9Z"/>
  <path class="cls-1" d="M137.7,34.62c-8.2,.3-10.6,2.3-2.5,2.2,8.4-.1,9.7-.3,9.7-1.4,0-.7-2.7-1-7.2-.8Z"/>
  <path class="cls-1" d="M108.9,35.42c-1.7,0-3,.4-3,1,0,.5,1.3,1,3,1,1.6,0,3-.5,3-1,0-.6-1.4-1-3-1Z"/>
  <path class="cls-1" d="M88.5,41.42c-2,.7-2.6,1.6-2.6,4,0,2.8,.2,3,4,3q4,0,4-4c0-4.3-.8-4.8-5.4-3Z"/>
  <path class="cls-1" d="M149.5,53.22c.1,.7,.2,3,.2,5.2,.2,2.7,.7,4,1.6,4,1.7,0,2.7-9.1,1.2-10.2-1.5-1-3.1-.4-3,1Z"/>
  <path class="cls-1" d="M251.2,22.82c-.3,.3,1.5,.6,4.1,.6s4.5-.3,4.3-.8c-.6-.9-7.5-.8-8.4,.2Z"/>
</svg>