<?xml version="1.0" encoding="UTF-8"?>
<svg id="Layer_1" data-name="Layer 1" xmlns="http://www.w3.org/2000/svg" viewBox="0 0 820.67 226">
  <defs>
    <style>
      .cls-1 {
        fill: #fff;
      }
    </style>
  </defs>
  <path class="cls-1" d="m723.1,15.67c-.7,0-1.8,2-2.4,4.5-1.3,5.2-2.9,5.4-4.5.5-1.5-4.4-2.7-4.7-4.9-1.4-1.6,2.5-1.6,2.8-.1,3.6,2.4,1.4,1.2,2.5-4.7,4.2-4.4,1.3-5.6,2.2-8,6.1-1.6,2.5-3.5,4.5-4.3,4.5-.9,0-2.8,1.4-4.4,3.2-2.8,3.1-3,3.1-4.9,1.4-1.1-1-4.6-3.1-7.8-4.7-8.8-4.5-12.3-6.6-14.2-8.3-2.3-2.1-5.7-2-6.6.1-.6,1.6-.8,1.6-2.4-.5-1.7-2.3-1.9-2.4-30.4-2.9-26.6-.6-28.8-.5-30,1.1s-1.5,1.6-2.6.3c-1-1.3-9.2-1.5-61.8-1.6-40.5,0-61.1.3-61.9,1-.9.7-1.9.7-3.1,0-2.2-1.1-57.7-.6-59.6.6-.6.4-3.5.8-6.3.9-3.1.1-7.2,1.2-10.6,2.8-6.6,3.1-7.8,3.2-11.2.5-2-1.5-2.7-1.7-3-.7-.3.7-1,3-1.6,5.1-1.3,4.2-2.5,4.1-3.5-.3-.5-2.3-1.2-3-2.9-3-1.3,0-2.6.3-3,.7-.9.9-4.6,1.4-10,1.4-2.7-.1-4.8-.8-6.4-2.3-1.7-1.6-2.6-1.9-2.9-1.1-.3.7-1.3,2.3-2.3,3.5-2.3,2.8-3.6,1.8-4.8-3.7l-.8-4-8.4-.8c-4.7-.4-14.1-.5-21-.1-13.6.8-20.6.7-27.1-.4-3.9-.7-4.4-1.1-5.7-5l-1.4-4.4-6.2.7c-3.3.4-6.5,1.1-7.1,1.6-.5.5-1.7.9-2.7.9-3,0-2,2.8,1.2,3.5,4.7,1,3.6,2.2-3.2,3.4-5.9,1-7.8,2.2-7.8,4.8,0,.6-.5,2.4-1,3.9-1,2.6-1.1,2.6-3,.9-1.8-1.6-2-1.6-4.7.2-4.8,3.3-10.6,5.4-15.8,5.7l-5,.2-1.9,5.3c-2,5.6-3.5,6.1-4.9,1.5-1.3-4-1.2-4-5.2-1-4.1,3.2-4.4,4.3-1,5.2,1.4.3,2.5,1.2,2.5,1.9,0,1.4-11,5.3-17.6,6.2-2.4.3-4.9,1.2-5.5,1.9-1,1.2-1.6,1-3.5-1.1-1.3-1.4-3.3-2.5-4.6-2.5s-4.4-.7-7-1.4c-5.9-1.8-80.2-2.3-81.3-.6-.5.8-1.1.7-2.2-.2-2.1-1.7-26.8-1.2-35.3.7-3.6.8-7.7,1.7-9.1,2-1.4.2-4.3,1.7-6.5,3.1-2.1,1.5-4.8,2.7-5.9,2.8-1.4.1-2.1,1.1-2.7,4.1-1.1,5.1-2.5,6.6-4.2,4.2-.7-.9-1.5-1.7-1.8-1.7s-2.9,2.8-5.8,6.1c-4.6,5.3-5.1,6.3-3.7,7.1,2.5,1.4,2.1,2.8-1.2,3.9-1.6.6-3.2,1.7-3.5,2.4-.3.8-.6,6.1-.7,12-.1,8.5.2,10.9,1.5,12.4,2,2.2,2,4,0,6.2-1.3,1.5-1.6,4-1.5,13.1.1,10.9.3,11.4,2.8,13.4l2.6,2.2-2.4,1.5c-2.3,1.5-2.4,2-2.3,13.5q0,12,3,14.6l2.9,2.5-3,2.5c-2.7,2.2-2.8,2.6-1.3,3.8,1.2,1,8.1,9.1,12.4,14.7.2.2,1.2-.7,2.3-2l2-2.4,1.2,4.7c1.1,3.9,1.7,4.7,4.2,5.2,5.1,1,10,.6,15.7-1.4,5-1.7,5.6-2.2,6.1-5.3,1-6.3,5.4-10.9,7.4-7.7,1,1.6,2.5,1.1,2.5-.8,0-1,1.1-2.9,2.5-4.2,3.2-3,3.1-3.6-.5-4.9-1.7-.5-3-1.4-3-1.9,0-.5,2.3-1.9,5-3.2,4-1.9,5.2-3,5.9-5.7.5-1.8,1.9-4.5,3-5.9,1.2-1.5,2.1-3.7,2.1-4.9s.7-2.8,1.5-3.5,1.5-1.8,1.5-2.6c0-.7.8-1.7,1.7-2.3,1.6-.9,1.4-1.1-1.5-2.2-4.1-1.4-3.7-3.1,1-4.2l3.5-.8.6-8.5c.3-4.6,1-9.2,1.5-10.1.8-1.4,1.2-1.2,2.6,1.6,2,3.9,5,3.8,5.4,0,.3-2.4.9-2.8,6.5-3.8,3.4-.7,7.6-1.3,9.3-1.4,1.8-.1,4.1-1,5.1-2,2.4-2.1,4.7-2.2,6.3-.2.8.9,2.9,1.5,5.6,1.5,4.6,0,7-1.8,3.5-2.7-2.7-.7-2.7-2-.1-2.8,2.8-.9,16-.9,18.7-.1,1.3.4,2.3,1.5,2.3,2.4s1.1,4.1,2.5,7.1c2.6,5.6,2.7,9.9.2,14.9-.8,1.8-.8,2.8.2,4.4,1.1,1.7,1,2.3-.7,4.2-1.1,1.1-2.3,3.8-2.6,5.8-.8,4.5-2.1,4.9-3.1,1.1-.6-2.7-.7-2.7-2.1-.9-.8,1.1-1.4,2.6-1.4,3.4,0,.8-.9,2.5-2,3.9s-2,3.3-2,4.1c0,.9-1.2,2.9-2.7,4.4l-2.7,2.8,2.2,2c1.2,1.2,2.2,2.4,2.2,2.8,0,1.4-2.3,3.2-4,3.2-.9,0-2.5.6-3.5,1.4-1.9,1.4-1.9,1.5-.2,5,.9,2,1.7,4.5,1.7,5.6,0,1,1.2,3.2,2.6,4.7,1.5,1.5,3.3,4.2,4,6,1.2,2.8,1.9,3.2,6.6,3.7,10.7,1.3,35.4,2.5,39.3,2,11.2-1.4,13.1-2.3,18.5-8.4,4.7-5.5,5.1-6.4,5.7-12.4l.6-6.5-3.4-1.4-3.4-1.4,3.2-1.6c3.6-1.9,3.9-2.7,4.8-11.7.8-8.4,1.7-10,3.8-6.9,1.3,1.8,1.9,2,3.1,1,.8-.6,1.7-2.3,2-3.6.4-1.5,1.4-2.5,2.5-2.5,1,0,2.5-1,3.4-2.2,1.5-2.3,1.6-2.3,4.7-.6,1.7,1,3.7,1.8,4.3,1.8s1.9.7,2.9,1.7c1.7,1.5,2,1.5,4.4-.7l2.5-2.4,2.2,2.8,2.3,2.8,7.4-1.5c11.8-2.5,13.4-2.9,14.7-4,1.8-1.4,1.6-2.5-.7-3.2s-2.7-2.5-.6-2.5c.7,0,2.5-.9,4-2.1,1.9-1.5,3.4-1.9,5.6-1.4,2.6.6,3.1.3,4.9-3.4,2.6-5.1,5.6-7.1,10.4-7.1,3.3,0,4,.5,5.8,3.5,2.5,4.1,3.5,4.4,5.1,1,1.5-3.3,2.5-2.4,3.4,3,.4,2.9,1.4,5.1,2.7,6,1.7,1.2,1.8,1.5.5,2-1.4.5-1.6,2.7-1.6,13.6,0,12.7.1,13.1,2.4,14.1,1.9.9,4.1,3.7,3.2,4.2-6,3.6-6.1,3.6-5.5,8.9.5,3.9,1.4,5.9,4.1,8.6,1.8,2,3.7,4.6,4,5.8,1,3.3,2.6,4.1,10,5.3,5.1.8,7.2.8,8.2-.1.8-.7,2.5-.8,4.1-.4s8.4.6,15.3.5c10-.1,12.6-.4,13.3-1.6.8-1.4,1-1.3,2.1.2,1.2,1.5,2.6,1.6,12.2,1.1,10.3-.6,11-.8,13.1-3.4,1.3-1.6,2.3-4,2.3-5.4,0-2.2,1.2-4.4,4.8-8.9.2-.3,1,.3,1.7,1.3,1.6,2.2,2.1,1.5,3-4.6.7-4.8.4-5.3-3.4-4.7-.8.1-2-.6-2.7-1.5-1.4-1.8-.7-5.4,1-5.6.6-.1,1.8-.2,2.6-.3,1.5-.1,1.6-.7,1.1-6.4l-.2-2.7-1.3,3c-1.2,2.8-1.3,2.9-2.3,1-.6-1.1-1.1-5.3-1.2-9.4s-.5-7.9-.8-8.5c-.8-1.2-.5-24.2.3-26.9.7-2.2,2.3-2.2,4,0,1.2,1.7,1.4,1.6,3.8-.6,2.4-2.3,3-2.4,12-1.8l9.5.5.6-2.9c.8-3.6,3.1-3.8,3.9-.4.6,2.5.8,2.5,11.6,2.7,6.1.1,11.8.2,12.7.2,1.2.1,1.9-.9,2.3-2.9.4-2.4,1-3,3-3s2.6.7,3.3,3.8c.7,3,1.3,3.7,2.6,3.1,2.8-1.2,16.5-2.1,18.3-1.2,2.8,1.4,3.9.9,4.9-2.2,1.4-3.8,2.9-3.7,5.5.3,1.2,1.9,2.6,3,3.5,2.7.8-.3,5.9-.6,11.3-.6,9.5-.1,10.1-.3,12.1-2.8,2.7-3.3,3.4-3.3,4.7.5.9,2.6,1.4,2.9,3.7,2.5,4.4-.9,17.5-1.1,19.8-.3,1.8.7,2.2.3,2.8-2.3.8-3.7,2.5-3.8,4.6-.2,1.5,2.7,1.8,2.8,11.9,3,5.7.2,10.9.7,11.6,1.3,1.2,1,3.5-1.7,4.8-5.9,1.1-3.2,2.9-2.2,4,2.1,1,3.7,2.3,4.6,4.3,2.6.5-.5,5.4-1.1,10.9-1.1,8.8-.1,10.1-.4,11.6-2.2l1.7-2.1,2.9,2.8c1.5,1.5,3.2,2.4,3.6,2,.4-.5,5.6-.8,11.4-.8h10.7s1.8-3.5,1.8-3.5c1-2,2.5-3.5,3.5-3.5,3.8,0,12.8-4.8,15.2-8.1,1.4-1.9,4.4-4.3,6.7-5.4,2.5-1,4.8-3,5.5-4.4,1.4-3.2,2.3-3.2,5.2-.1,1.4,1.5,2.9,2.2,4.2,1.9,1.7-.5,5.1,0,17.6,2.2l3.7.6,1.4-4.8c1.7-5.7,2.8-6.2,3.8-1.6,1.1,5.5,1.8,5.7,12.1,3.8,5-1,10.1-2.2,11.2-2.6,2.3-.8,6-9.5,4.9-11.3-.4-.6,0-.8,1-.4.9.3,2.9,0,4.4-.8,2-1.1,6.2-1.5,14.1-1.5h11.3s1.3-3,1.3-3c1.3-3.1,2.6-3,2.6.2,0,1.3.8,1.8,2.8,1.8,3.5,0,6.3-2.8,5.6-5.6-.4-1.6.6-3.2,4.5-6.5,4.4-3.9,5-4.9,5.3-8.8.3-4.3.3-4.4-3.7-5.5-5.3-1.5-6.2-5-1.5-6,3.8-.7,3.6-2.5-.6-4.6-3.8-1.9-7.4-5.6-7.4-7.5,0-2.5-3.6-1.7-4.8,1.1-1.3,2.7-3.2,2.4-3.2-.5,0-1.1-.8-2.8-1.8-3.8-1.6-1.8-2.6-2-12.5-1.4-9.9.5-11,.8-12.6,3l-1.8,2.4-3.3-2.4c-1.7-1.3-4-4-5-6-2.4-4.6-3.7-5.6-8.5-6.4-5.2-1-6.9-2.3-5.4-4.2,1-1.1.6-2-1.6-4.3-1.6-1.7-3.5-3-4.2-3Zm-2.5,13c3.8,0,7.3.5,8,1.2.8.8,1,4.3.5,12l-.6,10.8h29c32.2,0,32,0,30.3,6.1-.6,1.9-.8,5-.5,6.9.4,2.2.1,4.2-.8,5.4-1.3,1.8-2.7,1.9-23.6,1.7l-22.1-.2.6,8.4c.7,8.3.6,8.4-1.7,8.9-1.3.3-19.7.4-40.8.3l-38.3-.2.6,5.1c.4,4.1.2,5.4-1.3,7.1-1.1,1.1-2.1,3.6-2.3,5.5-.3,3.4-.4,3.5-4.3,3.4-2.2-.1-7.2-.2-11-.2-3.9-.1-8.1-.2-9.5-.3s-3.3-.1-4.3,0c-2.1.1-1.3.1-28.1.1-20.7-.1-22,0-24,1.9-2.2,2.1-2.9,2.1-80.9,2.1h-78.7s-2.1-2.1-2.1-2.1c-2-2-2.8-2.1-10.3-1.5-4.4.4-9.6,1.2-11.4,1.7-3.5,1.2-3.9,2.6-2.1,9.4,1.1,4.6,3.9,41.6,4.6,61.7.4,13.2.4,13.7-1.7,14.8-2.2,1.2-68.8,3.6-69.8,2.5-.2-.2-.6-9.1-.8-19.6s-.8-21.7-1.3-24.8c-.4-3.1-.6-7.5-.3-9.9.6-6.3,0-7.3-3.7-5.9-4.9,1.8-5.4.4-3.6-10.7.9-5.3,1.3-10.2.9-10.8-1.1-1.7-17-.5-19.2,1.5-2.3,2.1-3.9,2.1-8.7.1-2-.8-5.3-1.4-7.3-1.2-3.9.3-4.2.8-6.2,11.1-1,4.7-2,6.6-5.9,10.6-6.3,6.4-10.9,7.8-20.4,6.1-12-2.1-18.7-9.4-19.5-21.3-.4-5.1-.8-5.9-3.2-7.2-1.5-.8-3.1-2.6-3.4-4-.4-1.4-1.1-2.3-1.6-2-1.9,1.2-1,8.2,1.5,12.6,3,5.4,3.3,11.1.6,13.8-1.8,1.8-7.8,4.1-10.7,4.1-1.4,0-4.4,4.4-4.4,6.4,0,.9-.7,3.2-1.6,5.3-2.8,6.3-4.1,9.6-5.9,14.3-3.4,8.7-4.6,11.5-6,14.3-1.9,3.6-1.9,6.1,0,7.7,2.5,2.1,1.9,7.7-1.2,10.6-3.6,3.4-5.6,3.7-15.3,2.5-4.7-.6-12.6-1.1-17.7-1.1-7.6,0-9.8-.4-12.9-2.2l-3.6-2.1.6-6.3c.6-6.2,2-9,10.5-21.4,1-1.4,2.1-3.2,2.5-4s1.2-2.4,1.9-3.5c1.2-1.9,5.2-8.4,7.2-11.7.5-.9,2.8-4.2,4.9-7.4,3.2-4.6,3.7-6,2.7-7.3-.6-.9-1.5-2.6-2-3.8-.6-1.1-1.5-2.4-2-2.8-.6-.3-1.1-1.6-1.1-2.7s-.9-3.6-2.1-5.4c-1.5-2.4-1.9-4.2-1.4-6.4.6-2.7.3-3.1-3.1-4.5-2-.8-5.7-1.5-8.3-1.5-3.5,0-4.9-.5-5.8-1.9-1-1.6-2-1.9-5-1.4-2.1.3-4.9,1.3-6.3,2.2-2.1,1.3-5.8,1.6-22.4,1.6l-19.8.1-3.7,4.2c-3.4,4-3.9,4.2-9.1,4.2h-5.5s-3.7,11.3-3.7,11.3c-5.6,16.8-5.9,18-7.3,21.2-.8,1.6-1.6,4.1-1.8,5.5-.5,2.7-2.2,7.7-4.3,12.7-1.3,3-1.7,3.3-5.8,3.3-2.5,0-4.7.4-5,.9s-.1,3.4.6,6.5c1,5.2.9,6.1-1.2,10.4-2.8,5.6-3.5,6.2-8,6.2-5.8,0-19.5-6.2-20.5-9.3-.2-.7-.5-23.2-.8-50l-.3-48.8,3.5-2.8c6.6-5.2,9.8-6.3,17-5.9,6.4.3,6.6.2,6.9-2.2.2-1.4,1-3.2,1.8-4.1s1.2-2.4.8-3.3,0-2.4.9-3.4c1.4-1.6,6.1-1.7,61.4-1.6l59.8.1.3,2.1c.4,2.6-4.6,12.2-6.3,12.2-.6,0-2.4,1.4-4,3l-3,3.1-27.8-.2c-19.2-.1-28.2.2-29,1-.6.6-2.5,1.1-4.2,1.1s-4,.6-5,1.4c-1.8,1.3-1.8,1.4.5,2.6,1.6.8,7.3,1.2,18.9,1.1,9.1-.1,23.6.2,32.1.6,11.3.6,15.9.6,17-.3.8-.6,2.6-1.4,4-1.7,2.3-.6,2.5-1,2.2-6l-.4-5.3,3.8-1.2c2.5-.7,4.3-.8,5.6-.1s2.7.6,4.6-.3c2-1,3.5-1.1,5.5-.4s3.4.7,4.8-.2c1.6-1,2.5-.9,4.9.3,2,1,3.1,1.2,3.5.4.4-.6,3.1-.9,6.3-.7,6.5.4,7.5-1,4.8-6.7-.9-1.8-1.7-5.5-1.8-8.1-.3-4.7-.2-4.9,2.6-5.2,3.6-.4,4.6,1,4.6,7.3,0,2.7.4,5.5.8,6,1,1.5,5.9,3.5,6.6,2.8.3-.4.6-3,.6-6,0-4.5-.3-5.3-1.9-5.3-1.5,0-1.9.7-1.9,3.6,0,3.7-.7,5.2-1.9,4-.4-.3,0-3.9.8-7.9l1.4-7.2,5-.8c2.7-.4,8.4-1.2,12.5-1.7,7.5-.9,12.6-1.7,16.7-2.6,2-.4,2.2-1,2.1-5.9-.1-4.8.2-5.8,2.8-8.3,1.6-1.5,3.7-4,4.7-5.5,1.6-2.4,2.4-2.8,6-2.5,3.9.3,4.2.5,4.2,3.2.1,3.9,5.5,8.3,12,9.6,11.8,2.4,10.8,2.6,15.5-2.1,3.4-3.4,5-4.3,7.8-4.3,2,0,3.7.5,4,1.2.5,1.5,3.2,1.6,3.2.1,0-.6,2-.9,4.7-.9,2.7.1,5.9-.1,7.3-.4,1.4-.4,3.1-.3,3.8.2,1.8,1.2,3.1,7.3,2.1,10-.7,1.9-1.6,2.2-6.8,2.2-3.3,0-6.2-.4-6.5-.9-.7-1.1-5.6-2-7.3-1.4-2.5,1-1.3,2.3,2.2,2.3,3.1,0,3.5.3,3.5,2.6v2.7s7.2-.7,7.2-.7c4-.4,12.1-1.1,18-1.6,5.8-.5,11.7-1.4,13-2.1,1.6-.9,8.8-1.3,23.8-1.4l21.5-.2v-4.3c0-4.1.2-4.4,3.2-5.2,2.4-.6,3.9-.4,5.7.7,1.6,1.1,2.6,1.3,3.1.6.9-1.5,6.2-1.4,6.8.1.4,1,.7,1,1.8,0,1.6-1.5,5.1-1.6,6.7,0,.9.9,1.6.7,3.2-.7,1.8-1.6,2.1-1.7,4.5-.1,2,1.3,2.8,1.4,4.5.4,1.5-1,2.7-1,5-.1,1.7.7,3.2.7,3.6.2.7-1.3,5.8-1.1,7.1.2.8.8,1.3.8,1.7,0,.9-1.3,6.3-1.5,7-.2.4.5,1.9.5,3.6-.2,2.2-.8,3.5-.8,4.8-.1,1.2.8,2.5.7,4.7-.2,2.5-1,3.3-1,4.6.2,1.4,1.2,2.1,1.3,4.3.2,2-.9,3.2-.9,4.5-.1,1.1.7,2.3.8,3.2.2,2-1.2,6.9-1.1,6.9.2,0,.7.7.8,1.7.4,2.4-1,34.8-1.4,36.4-.4.7.4,2,.2,3-.4,1.4-.9,2.6-.9,4.9,0,1.7.7,3.2.7,3.6.2.3-.5,1.8-.9,3.4-.9s3.1.4,3.4.9c.4.5,1.9.4,3.6-.2,2.2-.8,3.5-.9,4.7-.1s2.5.8,4.5,0c2-.7,3.3-.7,4.5,0,1.2.8,2.5.8,4.5,0,2-.7,3.3-.7,4.6,0,1.2.8,2.5.7,4.8-.2,2.7-1.1,3.4-1.1,4.4.1.8,1,1.8,1.2,2.9.6,2-1,52.8-.7,55.6.3,5.1,1.9,6.5,3.2,7.7,6.5.6,2,1.1,4.5,1,5.6-.3,1.9.3,2,19,2,10.6-.1,22-.2,25.2-.3l5.9-.2-.7-10c-.6-9.2-.5-10.1,1.4-12,1.6-1.6,3.3-2,8.8-2Zm-492.8,122c4.4,0,5.4,1.6,1.5,2.6-2.8.7-5.5,0-5.5-1.6,0-.5,1.8-1,4-1Z"/>
  <path class="cls-1" d="m720.1,36.87c-2,.2-2.8.8-2.8,2.3,0,3.1,4.9,2.8,5.3-.3.3-2,0-2.3-2.5-2Z"/>
  <path class="cls-1" d="m283,46.77c-1.4-.1-3.4,4-2.3,5,1.2,1.2,21.1,2.1,21.1,1,0-2-4.5-4-11-4.9-3.6-.5-7.1-1-7.8-1.1Z"/>
  <path class="cls-1" d="m273.8,47.67c-.6,0-1,.7-1,1.5s.4,1.5,1,1.5c.5,0,1-.7,1-1.5s-.5-1.5-1-1.5Z"/>
  <path class="cls-1" d="m719,48.87l-3.7.3-.3,16.7c-.1,10.3.1,16.8.7,16.8.5,0,1.3-2.1,1.6-4.8.9-6.7,2-9,4.7-9.4,2-.3,2.3-.8,2.1-4.8-.1-3.5-.9-13-1.2-14.8-.1-.2-1.8-.2-3.9,0Z"/>
  <path class="cls-1" d="m596.4,52.77c.3.5,1.2.9,2,.9,1.4,0,1.9-1.2.8-2.3-.9-.9-3.5.4-2.8,1.4Z"/>
  <path class="cls-1" d="m616.4,51.67c-4,0-6.6.4-6.6,1.1,0,1.2,11.8,1,12.6-.3.3-.4-2.4-.8-6-.8Z"/>
  <path class="cls-1" d="m564.3,51.97c-3.3,0-4.8.2-3.3.4s4.2.2,6,0,.6-.4-2.7-.4Z"/>
  <path class="cls-1" d="m396.1,52.07c-.8.3-5.9.6-11.4.6h-10s.3,5.7.3,5.7l.3,5.8h12.5s12.5,0,12.5,0l-.3-4.4c-.1-2.4-.7-5.2-1.3-6.3-.6-1.2-1.7-1.7-2.6-1.4Z"/>
  <path class="cls-1" d="m539.8,55.57c-2.6,4.9.1,9.3,4.5,7.3,3.2-1.5,3.3-5.4.2-7.5-2.9-2.1-3.4-2.1-4.7.2Z"/>
  <path class="cls-1" d="m352.2,55.17c-2.7.8-6.4,1.5-8.2,1.5-2.5,0-4.2.9-6.7,3.6-3.1,3.3-3.7,3.5-7.4,2.9-2.4-.4-4.1-.2-4.6.4-.7,1.2,1.3,1.3,20,1.1,12.4-.1,13.5-.7,13.5-7.2q0-4.3-6.6-2.3Z"/>
  <path class="cls-1" d="m654.7,54.67c-1.2,0-1.2,5.7,0,6.4.9.6,2.2-4.4,1.4-5.6-.2-.5-.8-.8-1.4-.8Z"/>
  <path class="cls-1" d="m443.4,57.27c-1.3.5-1.4,1-.3,2.7.7,1.4,1.2,6.6,1.3,13.7l.1,11.5,56.4.5c31,.3,57.2.3,58.1.1,1.4-.2,1.2-.8-1.2-2.8-2-1.7-3-3.4-3-5.3q0-6-35.7-6-32.5,0-34.4-2.3c-1.2-1.4-1.8-3.8-1.9-6.8,0-2.5-.3-4.9-.7-5.2-.8-.9-36.6-.9-38.7-.1Zm24,13c.7,2.6,0,10.1-1,11.1-.3.3-1.2,0-2.1-.7-1.8-1.5-2.1-10-.3-11.8s2.7-1.5,3.4,1.4Z"/>
  <path class="cls-1" d="m437.8,56.67h-2.9c-6.6,0-12.7,4.3-16.5,11.7-1.6,3.3-2.3,16.8-.9,17.5.5.2,5.2.2,10.5,0l9.8-.4v-14.4s0-14.4,0-14.4Z"/>
  <path class="cls-1" d="m740.8,57.67c-9.7,0-9.4-.2-10.4,6.1-.8,4.5-.2,4.7,11.9,4l9-.6-.1-3.3c-.1-1.8-.5-3.9-.8-4.7-.4-1.2-2.5-1.5-9.6-1.5Z"/>
  <path class="cls-1" d="m706,57.87c-2.1.4-3.4,10.4-2.5,19.6.6,6.7,1.5,8.1,3.9,6.1,1.1-.9,1.4-3.6,1.3-12.8-.1-6.4-.4-12-.6-12.4-.3-.4-1.2-.7-2.1-.5Z"/>
  <path class="cls-1" d="m674.7,57.67c-2.3,0-2.6.6-3,5.9-.5,5.1.7,6,4,3.4,1.9-1.6,2.2-2.4,1.6-5.6-.5-2.7-1.2-3.7-2.6-3.7Z"/>
  <path class="cls-1" d="m237.8,57.87c-1.9,0-2.7.2-1.8.5,1,.2,2.6.2,3.5,0,1-.3.2-.5-1.7-.5Z"/>
  <path class="cls-1" d="m691.1,59.67c-7.9,0-9.6.8-9.1,4.1.3,2.3.6,2.4,8.3,2.4,6.9,0,8-.2,8.3-1.8.2-1,.1-2.5-.2-3.3-.4-1-2.3-1.4-7.3-1.4Z"/>
  <path class="cls-1" d="m663.7,59.67c-2.2,0-3,.6-3.5,2.4-1.4,5.6,1.9,8.5,5.7,5,1.9-1.7,2.6-5.4,1.2-6.7-.3-.4-1.9-.7-3.4-.7Z"/>
  <path class="cls-1" d="m760,62.27c-.8.2-1.2.9-1,1.6.3.9,3,1.1,9.4.9,12.4-.4,15.4-2.3,5.4-3.4-3.6-.4-11.4.1-13.8.9Z"/>
  <path class="cls-1" d="m633,62.07c-1.6.9-1.5,3.3,0,3.9.7.2,5,.2,9.5-.1,6.2-.3,8.3-.8,8.3-1.9,0-.7-.9-1.7-2-2.1-2.6-1-14.2-.8-15.8.2Z"/>
  <path class="cls-1" d="m584.6,60.87c-.9-.1-2.4.6-3.3,1.5-2.9,2.8.3,4.1,9.2,3.7,11.7-.5,13.1-4,1.8-4.7-3.3-.2-6.8-.4-7.7-.5Z"/>
  <path class="cls-1" d="m565.4,61.17c-1.6.3-4.6.5-6.7.5-3.1,0-3.9.4-3.9,1.9,0,1.6,1,1.9,7.1,2.3,3.9.3,8,.3,9,.1,2.6-.7,2.4-3.2-.4-4.3-1.2-.5-3.5-.7-5.1-.5Z"/>
  <path class="cls-1" d="m618.3,63.67c0,1.8,3.3,2.6,4.7,1.2.6-.6.7-1.5.3-2.2-1-1.6-5-.8-5,1Z"/>
  <path class="cls-1" d="m607.8,63.67c0,.5.5,1.2,1.1,1.6,1.4.8,3.3-1.1,2.5-2.5-.7-1.1-3.6-.4-3.6.9Z"/>
  <path class="cls-1" d="m525.5,61.87c-6.5.2-8.2.6-8.2,1.8s1.7,1.6,8.2,1.8c7.8.3,8.3.2,8.3-1.8s-.5-2.1-8.3-1.8Z"/>
  <path class="cls-1" d="m500.5,61.87c-6.5.2-8.2.6-8.2,1.8s1.7,1.6,7.9,1.8c7.8.3,10.5-.5,9.1-2.8-.4-.7-3.6-1-8.8-.8Z"/>
  <path class="cls-1" d="m318.6,63.47c-1.3,1.3-2.2,8.5-1.4,11.6.7,2.9,3.1,3.5,4,1,1-2.5.7-9.4-.5-11.6-.7-1.3-1.4-1.7-2.1-1Z"/>
  <path class="cls-1" d="m296.8,69.77c0,2.8.4,3.9,1.2,3.6.7-.2,1.3-.9,1.2-1.5-.1-.7-.2-2.3-.3-3.7-.2-4.2-2.1-2.8-2.1,1.6Z"/>
  <path class="cls-1" d="m663.8,71.67c-.5,0-1.2.4-1.5,1-.3.5.3,1,1.5,1s1.8-.5,1.5-1c-.3-.6-1-1-1.5-1Z"/>
  <path class="cls-1" d="m603.7,72.17c-1.2.8-1.2,3.5,0,3.5,1.4,0,2.3-1.8,1.6-3-.4-.6-1.1-.8-1.6-.5Z"/>
  <path class="cls-1" d="m577.8,71.67c-1.8,0-2,.6-2,6.9,0,6.9,1.1,9.4,3.2,7.3,1.3-1.3,2.3-10.4,1.5-12.7-.4-.8-1.6-1.5-2.7-1.5Z"/>
  <path class="cls-1" d="m400.8,76.37c0,.7.9,1.3,2,1.3,1.4,0,2-.7,2-2.3,0-1.3-.3-2.7-.7-3.1-.9-.8-3.3,2.2-3.3,4.1Z"/>
  <path class="cls-1" d="m628.4,72.67c-1.7,0-1.9,1.9-.6,6,.7,2.1.8,2.2.9.5.1-1.1.4-3,.7-4.3.5-1.6.2-2.2-1-2.2Z"/>
  <path class="cls-1" d="m619.8,73.57c0,1.2,2.8,2.2,3.4,1.2.3-.5.3-1.1-.1-1.5-.9-.9-3.3-.7-3.3.3Z"/>
  <path class="cls-1" d="m609.8,72.67c-.6,0-1,.6-1,1.4s.4,1.8,1,2.1c.5.3,1-.3,1-1.4s-.5-2.1-1-2.1Z"/>
  <path class="cls-1" d="m560.8,73.07c0,.2-.3,1.1-.6,2-.7,1.9,3.9,4,6.7,3.1,2.5-.8,2.4-3.5,0-3.5-1.1,0-2.3-.5-2.6-1-.6-1-3.5-1.4-3.5-.6Z"/>
  <path class="cls-1" d="m675,77.17c-.7.3-1.8.5-2.3.5s-.9,1.3-.9,3c0,3.4,2.9,5.7,4.8,3.8,1.3-1.3,1.6-6.1.5-7.2-.4-.3-1.3-.4-2.1-.1Z"/>
  <path class="cls-1" d="m660.4,83.07c.8,2,3.3,2,6.2,0,2.8-2,2.8-4.2-.1-5.4-5.4-2.1-8.1.2-6.1,5.4Z"/>
  <path class="cls-1" d="m722.2,79.17c-.9,2.3,1.5,4.5,4.7,4.5,3.4,0,4.3-1.3,2.9-4-1.3-2.4-6.8-2.8-7.6-.5Z"/>
  <path class="cls-1" d="m682,78.97c-2.2,2.6.4,4,8.2,4.5,6.4.4,7.7.2,8.2-1.2.3-.9.4-2.3,0-3.1-.7-2-14.8-2.2-16.4-.2Z"/>
  <path class="cls-1" d="m296.8,78.97c0,1.9,4.7,6,5.9,5.2,1.6-.9,1.3-2.6-.7-4.6-2-2.1-5.2-2.5-5.2-.6Z"/>
  <path class="cls-1" d="m375.4,81.57c-.9,1.5,3.2,4.4,5.1,3.6,1.6-.6,1.6-.8-.6-2.6-2.5-2.1-3.7-2.4-4.5-1Z"/>
  <path class="cls-1" d="m330.5,81.27c-1.1,1.1.3,2.4,1.8,1.8.8-.4,1.2-1,.9-1.5-.6-1.1-1.8-1.2-2.7-.3Z"/>
  <path class="cls-1" d="m229.8,85.17c-1.7,2-.5,4.5,2,4.5,2.3,0,3.5-2.2,2.6-4.5-.7-1.9-3-1.9-4.6,0Z"/>
  <path class="cls-1" d="m34.8,87.17c-1.1,1.3-1.2,9.9-.6,42.8.8,52.6,1.3,60.7,3.6,60.7,2.6,0,3.2-8.5,3.6-47,.3-29.7-.6-54.6-2.2-57.1-.8-1.4-3-1-4.4.6Z"/>
  <path class="cls-1" d="m401.8,89.77c0,1.1.7,2.2,1.5,2.5.8.4,1.5,1.2,1.5,1.9,0,.7.7,1.5,1.5,1.9,2,.7,1.9.1-.6-5.1-2.1-4.3-3.9-4.9-3.9-1.2Z"/>
  <path class="cls-1" d="m212.4,88.17c-.4,1.2-4.2,1.5-22.6,1.7-13.6.2-22.1.7-22.3,1.3-.1.6,8.5,1.1,24,1.3l24.3.2v-2.3c0-1.3-.3-2.7-.7-3-1-1.1-2-.8-2.7.8Z"/>
  <path class="cls-1" d="m582.3,90.77c0,2.3.4,2.4,7.5,3.1,9.2.9,12,.4,12-2.2,0-2.3-1.9-2.9-11-3.3-8.6-.4-8.5-.4-8.5,2.4Z"/>
  <path class="cls-1" d="m75.8,87.67c-1.7,0-3,.4-3,1,0,.5,1.3,1,3,1,1.6,0,3-.5,3-1,0-.6-1.4-1-3-1Z"/>
  <path class="cls-1" d="m635.4,89.27c-.9.3-1.6,1.4-1.6,2.4,0,2.4,2,3,8.8,2.9,7.2-.1,10.7-1.1,10.7-2.9,0-1.1-1.7-1.7-6-2.1-9.6-.9-10.3-.9-11.9-.3Z"/>
  <path class="cls-1" d="m607.8,90.17c-2.3,2.8.4,3.9,9.5,4.1,9.1.1,12-1.1,9.5-4.1-1.8-2.2-17.2-2.1-19,0Z"/>
  <path class="cls-1" d="m569.3,90.07c-10.1,2.6-127.3,3.8-142.9,1.6-9.2-1.4-9.8-.8-9,7.9.9,8.8,1.4,9.4,8.8,8.8,3.4-.3,12.9-.5,21.3-.6,15.2,0,17.8-.6,15.4-3.5-.8-.9-.8-2.2-.2-3.9,2.2-5.8,5.3-4,4.9,2.8l-.3,4,46.2.2c25.3.1,48.7.7,52,1.2,3.7.6,6,.5,6.4-.1,1.3-2.1,1.9-16.1.7-17.5-.7-.8-2.1-1.2-3.3-.9Zm-73.8,10.4l1-2.3,1.2,2.4c1.5,2.8-.1,5.3-2.1,3.3-.8-.8-.8-1.8-.1-3.4Zm34.6.8c1.3,1.3.7,2.4-1.4,2.4-1.1,0-1.9-.5-1.7-1.2.5-1.4,2.2-2.1,3.1-1.2Z"/>
  <path class="cls-1" d="m370.1,95.67c-1.8,0-1.7,7.7.2,9.6.8.9,1.5,2.4,1.5,3.5,0,3.1,3,2.3,3.2-.9.3-5.2-.3-8.6-1.9-10.4-.9-1-2.2-1.8-3-1.8Z"/>
  <path class="cls-1" d="m303.8,96.47c-.8.4-19.1.7-40.5.7s-39.6.4-40.3.8c-.8.5-2.6.4-4.3-.3-2.4-1-3.3-1-5.5.4-2.1,1.4-2.5,2.4-2.2,5.4.3,3.5.5,3.7,3.9,4,2.9.2,3.9-.2,5.3-2.2,2-3.2,5.8-3.4,8.6-.6s9.8,2.7,13.4-.1c2.2-1.8,3.7-2.1,7.8-1.7,3.1.3,5.6,1.2,6.3,2.2,1.1,1.4,4.1,1.6,23.8,1.6h22.5s2.6-4.9,2.6-4.9c1.8-3.5,2.2-5.1,1.3-5.4-.7-.3-1.9-.2-2.7.1Z"/>
  <path class="cls-1" d="m83.8,98.67c0,4.7,2.5,6.5,5,3.5,1.1-1.3.9-2-1-4-2.5-2.6-4-2.5-4,.5Z"/>
  <path class="cls-1" d="m394.3,98.67c-1.2,0-1.5.7-1.3,2.5.2,1.4.7,2.6,1.3,2.6.5,0,1.1-1.2,1.3-2.6.2-1.8-.1-2.5-1.3-2.5Z"/>
  <path class="cls-1" d="m356,102.07c.4,3.1,3.8,3.4,3.8.3,0-1.3-.3-2.6-.6-3-1.2-1.2-3.5.6-3.2,2.7Z"/>
  <path class="cls-1" d="m344.3,102.27c0,1.9.6,3,1.7,3.2,1.4.3,1.8-.3,1.8-2.6,0-1.6-.3-3.2-.7-3.6-1.4-1.3-2.8.1-2.8,3Z"/>
  <path class="cls-1" d="m203.7,98.67c-2.5,0-2.9.4-2.9,2.9,0,2.1.6,3.2,2.1,3.6,2.8.9,5.3-1.6,4.4-4.4-.4-1.5-1.5-2.1-3.6-2.1Z"/>
  <path class="cls-1" d="m186.4,100.27c-1,2.5-.7,3.3,1.5,4.4,4.5,2.5,9.1-1.4,5.7-4.8-1.7-1.7-6.5-1.5-7.2.4Z"/>
  <path class="cls-1" d="m127.5,100.57c-1.6,1.6.1,4.1,2.7,4.1,1.4,0,3.1-.7,4-1.5,1-1.1,3.6-1.5,8.9-1.5s7.8.4,8.7,1.5c.7.8,2.3,1.5,3.7,1.5,2.4,0,3.9-2,3-4.3-.5-1.5-29.5-1.3-31,.2Z"/>
  <path class="cls-1" d="m172.7,102.27c-1.1,1.4-1.1,1.8.3,2.8,1.9,1.4,7.5.9,8.5-.7.3-.5-.2-1.6-1.2-2.4-2.5-1.8-6-1.7-7.6.3Z"/>
  <path class="cls-1" d="m324.8,103.17c0,2.3,3.5,3.7,5,2,.6-.8.9-1.9.5-2.5-1-1.6-5.5-1.2-5.5.5Z"/>
  <path class="cls-1" d="m172.5,112.17c.1.5,1.6,1.3,3.2,1.6,1.7.4,3.8,1.2,4.6,1.9,1.2,1,1.8,1,3,0,2.1-1.7,1.9-2.9-.8-4-2.8-1.2-10.3-.8-10,.5Z"/>
  <path class="cls-1" d="m376.8,115.77l-5.1,1.1.7,3.6c.3,2.1,1,5.3,1.5,7.2s1.2,8.9,1.4,15.5c.3,6.6,1.1,18,1.6,25.3.6,7.2.8,15.2.5,17.6-.4,2.4-.3,4.6.1,4.9.4.2,3.3.2,6.3,0l5.5-.5-.3-11.2c-.1-6.1-.7-12.7-1.2-14.7-1.4-5-1.9-14.7-2-33.7,0-18.4.7-17.2-9-15.1Zm5.3,34.5c.9,1-.2,2.4-1.9,2.4-.8,0-1.4-.7-1.4-1.5,0-1.5,2.1-2.1,3.3-.9Z"/>
  <path class="cls-1" d="m360.3,117.37c-7.9,1.9-11.8,2.3-17.7,2.1-7.4-.3-8.8.4-7,3.2.7,1.1,1.2,3.1,1.2,4.4,0,1.4.5,3.7,1.1,5.3.6,1.5,1.6,12.7,2.1,24.8.6,12.1,1.1,23.3,1.1,25,.1,1.6-.2,4.2-.6,5.7-1.1,4,1,4.6,15.3,3.9l12.5-.6-.3-10c-.2-5.5-.8-10.5-1.2-11-1.7-2.1-3.2-45.6-1.6-50.2.5-1.6.2-2.3-1.1-2.6-1-.3-2.7-.3-3.8,0Zm-8,32.3c7.4,0,9.5.3,9.5,1.4,0,1-2.1,1.5-7.7,1.8-8.7.6-11.3.2-11.3-1.8,0-1.1,2.1-1.4,9.5-1.4Z"/>
  <path class="cls-1" d="m326,131.27c1.3,2.8,1.5,5.7,1.8,22.4.3,12.6.3,13.1,1.1,6.5.4-3.9.6-13.3.2-21.1-.3-9.5-.2-14.8.6-16.2.9-1.7.8-2.3-.6-3.1-5.7-3.3-7.2,2.5-3.1,11.5Z"/>
  <path class="cls-1" d="m259.3,121.67c-1,1.1-3.6,2.5-5.8,3.2-5,1.5-6.2,4.1-5.1,10.5l.9,4.8h5.3c4.3-.1,5.7-.6,8.2-3,1.7-1.6,3.3-4.4,3.6-6.4.4-2,1.3-4.5,2-5.6.8-1.1,1.4-2.7,1.4-3.7,0-2.7-8-2.5-10.5.2Z"/>
  <path class="cls-1" d="m239.2,119.67h-6.7s.7,4.1.7,4.1c1.6,10,8,16.3,8.1,7.9.1-2.5.9-5.1,2.3-6.9,1.2-1.7,2.2-3.5,2.2-4.1,0-.6-2.7-1-6.6-1Z"/>
  <path class="cls-1" d="m330.7,184.67c-1.2,0-1.2,6.7,0,7.5,1.5.9,2.3-1.3,1.6-4.5-.4-1.7-1.1-3-1.6-3Z"/>
  <path class="cls-1" d="m90,50.87c-.4,1.9,2.2,3,5.4,2.2,2.9-.7,3.2-2.4.5-2.4-1.1,0-2.3-.5-2.6-1.1-.9-1.4-2.9-.6-3.3,1.3Z"/>
  <path class="cls-1" d="m79.9,49.27c-3.9,1.6-10,2.2-14.6,1.3-3.9-.7-5.2-.6-6.4.6-1.8,1.8-2.7,1.7,12.6,1.9,9.7.1,11.3-.1,11.3-1.5,0-.9-.3-1.9-.7-2.3-.4-.3-1.4-.4-2.2,0Z"/>
  <path class="cls-1" d="m153.3,51.67c-.4.6,1.1,1,3.5,1s3.9-.3,3.7-.8c-.8-1.1-6.6-1.3-7.2-.2Z"/>
  <path class="cls-1" d="m135.8,51.57c0,1.2,2.8,1.8,6.5,1.2,2.6-.3,2.7-.5,1-1.2-2.8-1.1-7.5-1.1-7.5,0Z"/>
  <path class="cls-1" d="m127.3,50.67c-2.5,0-4.5.4-4.5,1,0,.5,2,1,4.5,1s4.5-.5,4.5-1c0-.6-2-1-4.5-1Z"/>
  <path class="cls-1" d="m105.4,51.57c-.6,1,3.3,2,5.2,1.3.7-.2,1-.8.6-1.3-.7-1.2-5.1-1.2-5.8,0Z"/>
  <path class="cls-1" d="m172.1,216.67c-3.4,0-4.1.3-3.7,1.5.8,1.9,3.5,1.9,6,0,1.8-1.3,1.6-1.4-2.3-1.5Z"/>
</svg>