<?xml version="1.0" encoding="UTF-8"?>
<svg id="a" data-name="Layer 1" xmlns="http://www.w3.org/2000/svg" viewBox="0 0 877.09 149.7">
  <defs>
    <style>
      .b {
        fill: #fff;
      }
    </style>
  </defs>
  <path class="b" d="m694.17,2.01c-1.3,2-1.7,2.1-3.2.9-1.4-1.2-2.1-1.1-5.1.5-3.5,1.9-4.8,5.4-2,5.4s1.5,1.7-3.4,4c-4.6,2.1-6.2,2.3-26.2,2.4l-21.4.1-1.3,2.7c-1.4,3-3.2,3.7-3.2,1.3,0-.8-1.1-2.1-2.4-3-3.1-2-24.8-2.4-27.1-.5-1.2,1-2,1-3.8.1-1.6-.9-6.1-1.1-14.7-.7-15.8.6-13.3.6-29.3,0-11.8-.5-14.1-.3-15.6,1-1.6,1.5-1.9,1.5-3.1.1-1-1.2-3.8-1.5-14.1-1.5-7.1,0-12.9.3-12.9.7,0,.5-.4,1.4-.9,2.2-.7,1.1-1.3.9-3-.8-1.9-1.9-3.2-2.1-15.1-2.1-11.2,0-13,.2-13.9,1.7-.9,1.7-1,1.7-2.8,0-1.7-1.5-4.4-1.7-22.4-1.6-11.2,0-24-.4-28.4-.9s-8.7-.5-9.6-.1-2,.4-2.5-.1c-.8-.7-17.1-1.9-27.3-1.9-1.9,0-4.7-.3-6.3-.6-2.3-.6-2.7-.9-1.7-2.1.6-.7.9-2,.6-2.7-.7-2-23.5-1.7-24.7.3-.5.8-.7,1.7-.4,2.2,1.8,2.8-11.1,4.6-39.6,5.4-12.9.3-24,1.1-24.7,1.6-.7.6-1.9.6-3,.1-1-.5-7.3-.9-14-.8-11.2,0-12.4.2-14.6,2.3l-2.4,2.2-1.3-2.5c-.7-1.4-2-2.5-2.9-2.6-.9,0-2.7-.2-4.1-.4-2.2-.3-6-.3-26-.5-5.3-.1-18.7,1.5-22.2,2.6-.9.3-2.6,2.8-3.6,5.7-1.6,4.2-2.4,5.2-4.3,5.2-1.6,0-2.9,1.1-4.4,3.7-2.1,3.8-6.5,7.8-8.4,7.8-.6,0-1.1.4-1.1,1,0,.5.9,1,1.9,1,1.1,0,3.2.5,4.8,1.1q2.8,1.1.5,2c-1.2.5-6,1.2-10.5,1.5-7.1.6-8.5,1-10.2,3.1l-2,2.5-2.7-2.5c-2.5-2.3-3.3-2.5-14.7-2.5h-12s-.6,2.9-.6,2.9c-.4,1.6-1.1,3.1-1.6,3.5-.9.5-1.3-.2-2.3-4.6l-.5-2.5-12.8.3c-11.7.3-12.9.5-14.6,2.5l-1.7,2.2-1.8-2.3c-1.7-2.2-2.2-2.3-13.6-1.8-6.4.3-12.3,1-13.1,1.6-.7.6-1.5,2.4-1.9,4.1-.7,3.6-2.2,3.1-3.1-1.1-.5-2.3-1.2-3-3.1-3-1.3,0-2.4.4-2.4.8,0,.5-1.9.9-4.3.9s-5.6.8-7.2,1.7c-3.7,2-5.1,2-5.9.1-.9-2.4-3.4-.6-4,3-.8,4.3-3,6.2-5.1,4.5-.8-.7-1.5-2.3-1.5-3.6,0-3-1.3-3.1-3.7-.1-1,1.2-3.4,3-5.4,3.9s-5.2,3-7,4.6c-1.9,1.6-4.2,3.2-5.2,3.5-1.5.5-1.7,1.3-1.1,4.2.4,2.2.2,4.1-.6,5-1.3,1.5-1.6,5.8-1.2,17.7.2,7,.5,8,2.9,10.2,2.4,2.3,2.6,2.7,1.2,3.8-2.1,1.7-3.1,4.6-1.8,5.4.6.3.8,1.7.5,2.9-.3,1.3-.1,2.7.5,3,.5.4.9,1.7.8,2.8-.1,1.2.4,3.5,1.1,5.1,1.3,2.5,1.2,3-.3,4.1-2.1,1.5-1.6,2,5.7,5,5.5,2.3,6.8,4,3.7,5-3,.9-2.6,2.3,1.1,3.8,1.8.8,3.9,2.1,4.7,3,1.8,2.3,3.6,2.1,5.3-.5,1.4-2,1.5-2.1,4.1-.3,1.8,1.2,3.6,1.5,5.5,1.1,3.4-.9,8.2-1.5,14.8-1.9,6.4-.5,7.4-1.1,7.4-4.7,0-2.7,2.9-5.8,4.2-4.5.2.3,6.3-.2,13.4-1.1,7.1-.8,16-1.8,19.8-2.2,4-.4,7.1-1.3,7.4-2,.2-.7.8-1,1.3-.6.5.3,2.4-.3,4.2-1.4,4.8-2.9,9.4-3.5,10.6-1.4.8,1.5,1,1.4,1.5-.8.3-1.4.9-4.3,1.3-6.4,1-4.8,2.5-5.5,4.1-2.1,1.8,3.8,3.5,3.9,8.5.6,2.5-1.7,5.2-3.1,6-3.1s2-.7,2.7-1.5,2.4-1.5,3.8-1.5c2.7,0,7.2-3.5,7.2-5.6,0-1.6,4-3,13-4.4,4.1-.7,8.9-2.1,10.6-3.1s3.9-1.9,4.8-1.9,1.6-.4,1.6-.8c0-.5.6-1.6,1.3-2.6,1.3-1.7,1.5-1.6,3.5,1.7,2.7,4.7,5.7,6.5,12.8,7.7,8.7,1.6,9.4,2,6,3.4-2.3.9-2.6,1.4-1.5,2.2.8.6,3.1,1.4,5.1,1.8,3.4.6,3.8.4,5.2-2.2s2.1-3,8.3-3.5c3.7-.4,9.5-.7,12.8-.7,7.8,0,10.3-.8,11.1-3.2.5-1.8.7-1.8,2.3-.4,2,1.8,6.6,2.1,12,.7,2-.5,6.2-1.5,9.4-2.1,4.5-.9,6.1-1.7,7.4-3.8.9-1.5,1.8-2.9,2-3.1s1.4.2,2.8.9c2.7,1.4,5.2.9,16-3.3,8.1-3.1,9.1-3.7,10.9-6.8,1.7-2.9,1.9-3,4.3-1.4,1.7,1.1,2.8,1.3,3.7.6.6-.6,6-1.2,12-1.4,9.6-.4,10.9-.7,12.2-2.6,2-2.8,2.8-2.7,4.3.5,1,2.2,1.6,2.5,3.9,1.9,1.5-.4,6.7-.9,11.6-1l9-.2,1.1-3.4c1.4-3.9,3.8-4.8,6.5-2.4,1.7,1.5,2.1,1.6,3.4.3.9-.9,5.4-2,11.3-2.8,8.5-1,10.1-1.5,12-3.8l2.2-2.6,1.2,2.7c1.3,2.8,3,2.9,10.7.5,1.8-.5,3.9-.7,4.7-.4s1.7,0,2.1-.5c.4-.7,2.1-.8,4.1-.4,2.9.5,3.8.2,5-1.4,1.8-2.7,4.9-2.7,6.4,0,.8,1.5,1.6,1.9,3.2,1.4,3.6-1.1,17.1-1.1,19.1,0,1.4.8,2.1.6,3-.8,3.2-5.3,3.3-5.4,4.6-2.6,1.2,2.6,1.3,2.6,11.8,2.6,5.9-.1,11.4.2,12.2.6,1.1.5,2.1-.3,3.4-2.8,2.1-3.8,4.3-4.6,5.2-1.8,1.9,6,2.4,6.6,4.2,5,1.8-1.7,15.3-2.6,18.4-1.3,1.1.5,2.3-.1,3.9-2.3l2.3-3.1,2.1,2.6c2,2.5,2.4,2.6,13.9,2.6,11.4,0,11.8,0,14.6-2.7s2.8-2.7,3.9-.6c1,1.9,2,2,10.4,2,5-.1,10.5.2,12.1.6,2.3.6,3.2.4,4.6-1.5l1.8-2.4,2.3,2.8c2.1,2.4,3.1,2.7,8.6,2.8,3.4,0,7.6-.5,9.3-1.2,2.3-1,3.3-1,4.5,0,1.9,1.6,3.1.7,5.7-4.3l2.1-4.2,1.8,4.2c2,4.6,2.1,4.8,4.8,3.3,1.1-.6,5.2-.6,11.1.1,8.1.8,9.6.7,11.1-.7,1.6-1.4,2.1-1.5,3.4-.4,1.2,1,5.3,1.3,14.6,1.3,10.8-.1,13.3-.4,14.9-1.8,1.7-1.6,1.9-1.6,3,.4,1.5,3,4.5,2.6,12.7-1.4,3.9-1.9,7.9-3.5,8.9-3.5s3-1.2,4.5-2.6c2.4-2.3,3.2-2.5,5.6-1.7,1.5.6,8.1,1.1,14.6,1.1l11.8.1,1.5-3.5c.8-1.9,1.6-3.4,1.9-3.4s1.2,1.6,2,3.6c1.5,3.6,1.6,3.6,5.8,2.9,2.3-.4,7.5-.9,11.6-1.1,4.5-.3,8.6-1.2,10.3-2.2,2.8-1.6,3-1.6,4.6.4s2.3,2,10.7,1.3c4.9-.4,10.2-.5,11.7-.2,2,.4,3-.1,4.3-2.1,1.7-2.5,1.9-2.6,3.7-.9,1.6,1.4,3.8,1.7,14,1.6,11-.1,12.2-.3,14.4-2.4,2.3-2.2,2.4-2.2,4.4-.4,1.7,1.5,2.4,1.6,4.9.5,1.7-.6,3.6-1,4.3-.7,1.8.6,4.8-1.1,4.8-2.8,0-.8-1.2-1.8-2.8-2.1-4.8-1.2-4.8-1.9-.2-2.7,2.5-.4,5.9-1,7.7-1.3,1.8-.4,3.7-1.2,4.3-2,1.7-1.9.2-5.4-2.2-5.4-1.3,0-2.4-1-3.1-3-.6-1.7-1.6-3-2.3-3-.6,0-1.9-.9-2.9-2-1-1.2-2.5-1.8-3.2-1.6-.7.3-2.7-.3-4.5-1.4q-3.1-1.8-4.9.3l-1.7,2.2-2.7-2.5c-2.4-2.3-3.5-2.5-12.3-2.6-5.3-.1-10.7-.5-11.9-.9-1.8-.6-2.5-.2-3.4,1.9-1.5,3.3-2.5,3.3-4.2-.1-1.4-2.6-1.6-2.6-13.2-2.9-8.7-.2-12.4.1-13.8,1.1-1.7,1.2-2.4,1.1-5.7-.6-2.8-1.5-5-1.8-8.6-1.5-2.7.3-6.5,0-8.6-.6-4.8-1.4-8.2-.4-9.6,2.8l-1.2,2.6-3-3.3-3.1-3.2-14.5.5c-7.9.3-14.7.2-14.9-.2s-2.8-1.2-5.8-1.9c-5.9-1.3-10.1-3.8-8-4.7,2.7-1.1,1.2-4.3-3-6.7-5.3-3.2-8.1-3.3-9.9-.5Zm-331.9,6.8c2.2,0,4.3.4,4.6,1,.4.6-1.2,1-3.9,1-2.5,0-4.6-.5-4.6-1,0-.6,1.8-1,3.9-1Zm328.6,2.5l5.2-.3c2.9-.2,5.4.1,5.4.5.1.4.2,4.4.3,8.8l.1,8,24.5.7c13.5.4,32.1,1.3,41.5,1.9,9.3.6,35.4,1.3,58,1.5,22.6.3,41.6.7,42.2.9.7.3,1.3,1.8,1.3,3.5v3s-8.8.1-8.8.1c-23.6.3-40.7.7-50.7,1.2-6.1.4-27,.9-46.5,1.2-30.1.4-52.7,1.6-57.7,3.1-.9.2-.8,1.1.4,3.3,1.5,2.5,1.5,3.1.3,4.6-1.2,1.4-2.5,1.6-8,1.1-3.6-.4-16.4-.6-28.5-.5-12.1.1-29.5.2-38.7.3-11.9.1-17.1.5-17.9,1.3-1.6,1.6-6.1,1.7-7.6.2-1.4-1.4-74.1-1.3-108,.1-12.2.5-36.6,1-54.1,1-30.4.1-32.1.2-33.7,2.1-1,1-2.6,1.9-3.6,1.9s-3.3.6-5.1,1.4c-5.4,2.3-13.8,4.6-17.2,4.6-1.7,0-3.9.7-4.8,1.4-1.1.8-5.1,1.4-10.5,1.5-4.9.1-10.6.6-12.8,1.1s-13.5,1-25,1c-17.1,0-21.5.3-23.2,1.5-1.2.8-2.8,1.2-3.7.9s-2.5.4-3.8,1.8c-3.6,3.6-6.4,4.6-22.3,7.6-2.3.5-4.6,1.1-5.2,1.5s-3.3,1.2-6,1.7c-2.6.5-8,1.9-11.8,3-3.9,1.2-9.9,2.8-13.5,3.6s-9.4,2.2-13,3c-3.6.9-9.9,1.8-14,2.1l-7.6.4-3.7-3.6c-3.3-3.2-3.7-4.1-3.7-8.6,0-5.9-1.6-7.1-6.4-4.6-6.5,3.3-12.6,5.7-14.5,5.7-1.2,0-2.1.4-2.1.9s-2.8,1.9-6.3,3.2c-3.4,1.3-6.8,2.9-7.5,3.6s-2.2,1.3-3.3,1.3c-1,0-1.9.4-1.9.9,0,.5-1,1.3-2.3,1.6-3.5,1.1-10.6,4.6-11.3,5.6-.3.5-1.5.9-2.7.9s-3.1.7-4.1,1.5c-1.1.8-2.7,1.5-3.6,1.5-1,0-3.8,1.1-6.4,2.5s-5.5,2.5-6.4,2.5c-1,0-3.4.9-5.5,2-2,1.1-4.8,2-6.2,2s-2.5.4-2.5,1c0,.5-1.6,1.2-3.7,1.6-2,.4-4.8,1.3-6.2,2-1.4.8-3.4,1.4-4.3,1.4s-1.9.4-2.3.9c-.3.6-2.6,1.3-5.2,1.7-2.5.4-5.8,1.3-7.2,2-1.4.8-4,1.4-5.8,1.4-1.7,0-3.4.4-3.7.9s-3.1,1.2-6.2,1.6-7.4,1.3-9.6,2.1-5.6,1.4-7.5,1.4-4.1.7-4.9,1.5c-1.2,1.1-3.9,1.5-10.9,1.5-10.7,0-10.4.3-10.5-11,0-3.6-.7-9.4-1.5-13s-1.4-8-1.5-9.9c0-1.9-.4-4.8-1-6.5-.5-1.7-1.6-7.5-2.4-12.9-1.2-7.8-1.3-10.2-.3-11.8.6-1,1.5-1.9,1.9-1.9.3,0,1.3-.6,2-1.3,2.9-2.7,6.9-4.7,10.9-5.3,2.4-.4,5.4-1.3,6.8-2.1,1.4-.7,5.4-1.3,8.7-1.3,3.5,0,7.4-.6,9-1.5,1.6-.8,5.2-1.5,8-1.5s6.4-.4,8-1c1.6-.5,11.4-1.3,21.9-1.8,16.9-.9,32.3-.5,54.5,1.3,6.1.5,21.9-1.2,23.5-2.4.5-.5,2.5-1.2,4.4-1.6s4.1-1.4,4.9-2.1c.7-.8,1.9-1.4,2.6-1.4s3.4-1.1,6-2.5,5.3-2.5,6.1-2.5c1.1,0,1.5-2.1,1.7-9.3.3-8.4.5-9.2,2.3-9.2,1.4,0,2.1.8,2.3,2.7.4,3.4,2.6,3.6,4.7.5.8-1.3,2.6-2.9,3.9-3.5,2.6-1.2,28.2-1.9,29.3-.9.3.4,2.3.7,4.3.7,2.1,0,4.3.7,5,1.5,2,2.4,26.4,2.1,32.1-.4,4.5-2.1,3.2-2.1,48.6-.6,13.1.5,18.3.3,18.3-.5,0-.6-.7-1.3-1.5-1.6-2.2-.9-2-6.4.3-6.4,1,0,2.3.5,2.9,1.1,1.3,1.3,9.3,1.8,33.8,2.1,15.9.2,18.1.4,19.8,2.1,1.5,1.5,2.7,1.7,7.5,1.1,3.2-.3,7.5-.1,9.7.5,5.4,1.4,186.6,2.5,191.4,1.1,2.2-.6,4-.6,5.2.1,1.9,1,30.5,1.4,38.1.5,2-.2,4.9.2,6.3,1,3.7,1.9,9.7,1.8,13.2-.3,2.7-1.5,3.2-1.5,6.3,0,4.1,2.1,6.7,2.1,11.1.3l3.4-1.4v-7.4s0-7.3,0-7.3Z"/>
  <path class="b" d="m390.67,27.31c-2.3,1.2-19.1,2.1-31.5,1.6-5.7-.2-7.8,1-6,3.2.8.9,6.6,1.1,22.1.9,20.7-.3,21.1-.3,21.1-2.4,0-1.1-.7-2.6-1.7-3.3-1.3-1-2.1-.9-4,0Z"/>
  <path class="b" d="m407.37,31.31c0,.8.9,1.5,1.9,1.5,2.1,0,3.4-1.3,2.4-2.4-1.2-1.2-4.3-.6-4.3.9Z"/>
  <path class="b" d="m429.07,30.91c-3.8-.1-6.7.3-6.7.9,0,1.2,8.7,1.2,11.5,0,1.4-.6-.1-.9-4.8-.9Z"/>
  <path class="b" d="m295.17,30.81c-9.4,0-16.9.2-16.7.4s7.9.6,17.1,1c11.5.5,16.8.4,16.8-.4,0-.6-5.9-1-17.2-1Z"/>
  <path class="b" d="m238.37,30.81c-1.1,0-2,.4-2,1,0,.5.9,1,2,1s2-.5,2-1c0-.6-.9-1-2-1Z"/>
  <path class="b" d="m699.07,33.01c-5.4-.2-6.4.9-4.7,5.2,1,2.7,1.2,2.8,6.3,2,2.8-.4,6.2-.8,7.5-.8,2.5-.1,4.9-3.3,3.6-4.6-.5-.5-2.5-1-4.4-1.3-1.9-.2-5.7-.5-8.3-.5Z"/>
  <path class="b" d="m680.67,33.01c-3.7.3-3.8.4-3.8,4.3q0,4,4,4c3.6,0,4-.2,4.3-2.8.2-1.6.1-3.5-.2-4.3-.4-1.1-1.7-1.4-4.3-1.2Z"/>
  <path class="b" d="m662.37,34.11c-2.5,0-3.5.2-2.3.4,1.3.2,3.3.2,4.5,0,1.3-.2.3-.4-2.2-.4Z"/>
  <path class="b" d="m301.87,38.81c-11.6.8-28.1,1-52,.5-19.3-.4-36-.7-37.2-.7s-4.2,1.6-6.6,3.6-5.1,3.6-6,3.6c-2.2,0-7,4.6-6.2,5.9.3.6.1,1.1-.4,1.1-2.5,0-.8,2.7,2.4,3.9,3,1,3.7,1,5-.3,1.8-1.7,7.8-3.1,9.4-2.1,3.2,1.9-1.2,7.4-7.2,8.9-1.5.3-3.1,1.4-3.4,2.4-.4.9-1.3,2.2-2.1,2.8-.9.7-1.2,1.8-.8,3.2.7,2,1.4,2.2,7.1,2.2,4.7,0,6.4-.4,6.9-1.5.3-.8,1.6-1.5,2.9-1.5,1.4,0,4.1-.7,6.1-1.5,2.7-1.2,5.8-1.4,13.3-.9,11.2.7,63.2-1.2,72-2.7,3.2-.5,13-1.2,21.8-1.6,12.9-.5,16.2-.9,17.2-2.2,1-1.4,1.2-1.4,1.8.1.6,1.6,2.1,1.8,12.4,1.7,9.6-.1,11-.3,8.1-1.1l-3.5-1,2.5-1c6.4-2.6,7.1-3.2,8.2-7.5,1.6-6.6,2.8-6.7,6.4-.7,1,1.7,1.3,1.6,5.7-.5l4.7-2.3,5.7,2.2q8.8,3.3,11.2,1.3c1.8-1.5,2.3-2.9,2.4-8.3l.2-6.5-5.5.3c-12.8.6-43.2.2-51.5-.7-10.3-1.1-26.6-.8-51,.9Zm63.5,5.3c2.6.7,3,1.2,3,4.2,0,6.5.2,6.5-33,6.5-18.8,0-30.1.4-30.5,1-1.1,1.7-6,1.1-8.3-1-2.7-2.6-2.7-3.4-.1-7.6,1.6-2.7,2.7-3.4,5.2-3.5,25-.4,61.4-.2,63.7.4Zm-116.2-.3c.7.1,4.2,7,4.2,8.5,0,1.9-3.6,8.4-4.5,8.1-1.8-.5-2.8-8.7-1.6-12.8.7-2.1,1.5-3.8,1.9-3.8Zm31.9,4.2c.9-.3,1.3,1.1,1.3,5-.1,4.9-.2,5.2-1.6,3.3-.8-1.1-1.4-3.3-1.2-4.9s.9-3.1,1.5-3.4Zm-60.9,2c2.1,2.1.9,14.7-1.4,15.5-1.6.5-5.4-6.2-5.4-9.6,0-1.6,1-3.7,2.3-4.9,2.7-2.6,2.9-2.6,4.5-1Zm22.8,1.2c1.8,1.4,1.8,1.5-.9,2.5-5.9,2.3-9.8.6-6.5-2.7,1.6-1.6,5-1.5,7.4.2Zm32.9-.4c.8,0,1.5.7,1.5,1.5s-.7,1.5-1.5,1.5-1.5-.7-1.5-1.5c0-.8.7-1.5,1.5-1.5Zm-12.4,0c3.7,0,5.8.4,5.4,1-.3.5-1.5,1-2.6,1s-2.9.4-3.9,1c-2.2,1.2-5,.3-5-1.6,0-1,1.5-1.4,6.1-1.4Zm-30.1,2.2c0,1.3-5,2.9-7.1,2.3-1.1-.4-1.9-1.3-1.9-2.1,0-1.1.6-1.3,1.9-.9,1.1.3,2.2.1,2.6-.5,1.1-1.8,4.5-1,4.5,1.2Z"/>
  <path class="b" d="m309.67,48.01c-.1-.1-.5.2-.8.8-.4.7,7.7.9,23.7.8l24.3-.2-23.5-.6c-12.9-.3-23.6-.7-23.7-.8Z"/>
  <path class="b" d="m647.97,38.51c-2.8.5-11.7.7-19.9.6l-14.7-.2v3.7c0,5.1,1.2,6.6,4.1,5.6,1.3-.4,10-.8,19.4-.8l16.9-.1.7-3.5c.5-2.1.3-4-.3-4.8-.8-.9-2.5-1-6.2-.5Z"/>
  <path class="b" d="m512.67,39.51l-90.8.3-.3,3.1c-.5,4.7.6,8.2,2.4,7.5.8-.3,22.1-.6,47.3-.6,25.3-.1,51.5-.4,58.3-.7,12.1-.6,12.5-.7,12.1-2.8-.7-3.5,1.8-4.6,9.4-4.3l6.8.3-.3,3.1-.3,3.1,20.3-.1c11.2,0,21.5.3,23,.7,2.6.8,2.7.7,3.3-3.6.4-2.5.5-4.9.2-5.4-.3-.4-41.4-.7-91.4-.6Z"/>
  <path class="b" d="m668.37,45.81c0,1.5,4.6,1.9,16.5,1.6,15.2-.5,14.5-.4,14.5-1.6,0-.5-4.7-1.1-10.8-1.2-12.7-.4-20.2.1-20.2,1.2Z"/>
  <path class="b" d="m213.37,85.41c.8,1.9.8,3,0,3.8-1.8,1.8-1.1,2.6,2.2,2.6,4.7,0,10.9-2.4,13-5,2.5-3.1,2.3-7.5-.5-10-5.5-5.3-17.3,1.6-14.7,8.6Z"/>
  <path class="b" d="m205.37,82.81c0,3.4.9,6,2.1,6,1,0,1.2-6,.3-8.4s-2.4-.9-2.4,2.4Z"/>
  <path class="b" d="m380.87,6.71c-.3.5,0,1.3.5,1.6,1.6,1,6.2-.4,5.5-1.5-.8-1.3-5.2-1.3-6-.1Z"/>
  <path class="b" d="m220.37,108.61c0,1.2,2.2,3.2,3.6,3.2,2.5,0,6.5-2,5.9-3-.7-1.2-9.5-1.4-9.5-.2Z"/>
  <path class="b" d="m66.07,141.81c-2.7,0-3.7.4-3.5,1.2.7,1.9,3.1,2.1,5.3.4,1.9-1.5,1.8-1.5-1.8-1.6Z"/>
</svg>