<?xml version="1.0" encoding="UTF-8"?>
<svg id="Layer_1" data-name="Layer 1" xmlns="http://www.w3.org/2000/svg" viewBox="0 0 264.33 104">
  <defs>
    <style>
      .cls-1 {
        fill: #fff;
      }
    </style>
  </defs>
  <path class="cls-1" d="m88.24,0c-5.5,0-7.8.4-9.3,1.7-2.1,1.8-2.9,6-.8,4.7.7-.5.8-.3.2.7-.5.8-.9,1.6-.9,1.9,0,1.5-4.2,4.7-5.8,4.5-1.1-.2-1.7.3-1.7,1.5,0,1-.5,2.2-1,2.5-.6.3-1-.1-1-1,0-1.2-.6-1.5-2.2-1-1.1.4-10.4.7-20.5.7-13.4-.1-18.3.2-18.3,1.1,0,.7-.4.6-1-.3-.8-1.2-1.4-1.3-4.7-.1-2.1.8-4.2,1.9-4.6,2.5-.6.8-1,.7-1.4-.2-.6-1.5-9.3-1.7-9.3-.2,0,.6-1.1,1.5-2.4,2-3,1.1-4.8,7.6-2.5,9.2,1.1.7,1.1,1.1.2,1.5-1,.3-1,1-.2,2.5.6,1.1,1.1,7.4,1,14.5,0,11.7.1,12.6,2.3,14.8,3.1,3.1,5.8,3.8,9.2,2.4,1.6-.7,3.3-1.3,3.7-1.3.4-.1,1.1-.6,1.5-1.3s2.2-1.3,4-1.5c2.7-.2,3.2-.6,3.2-2.8l.1-2.5,1.4,2.5c1.1,1.9,1.4,2.1,1.5.8,0-2.2,3.2-3,11.4-3.2,3.3,0,6.4-.5,6.8-1.1.5-.6,1.1-.5,1.7.4.5.8,1.1.9,1.5.3s1.7-.7,3.4-.3c1.5.4,3.3.6,3.9.4,1.3-.5,1.5.9,1.5,10.4,0,2.5.6,4.7,1.4,5.4.9.8,1.1,1.5.5,1.9-1,.6.5,7.7,1.9,9,.3.3.6,2.3.8,4.5.1,2.2.5,4.7.9,5.5.6,1.5.8,2.6,1.1,6.4.1,1.1.7,1.6,1.6,1.3.8-.3,1.6.2,1.9,1.4.4,1.5,1.4,1.9,5.1,1.9,3,0,4.6-.4,4.7-1.3,0-.9.2-.9.6,0,.3,1,1.1.9,3.3-.2,1.6-.8,3.6-1.5,4.5-1.5.8,0,1.5-.7,1.5-1.6,0-.8.4-1.3.9-1,1.6,1.1,3.6-.4,5.6-4,1.8-3.4,1.8-3.5-.3-7.4-1.1-2.2-1.7-4-1.1-4s.5-.8-.2-2.1c-.6-1.2-.9-3.2-.6-4.5.3-1.6,0-2.4-.9-2.4-.8,0-1.4-.5-1.4-1,0-.6.5-1,1.1-1,.5,0,.8-.4.4-1-.3-.5-.6-2.5-.7-4.4s-.5-3.3-1-3c-.4.3-.8,0-.8-.5,0-.6.5-1.1,1.1-1.1.8,0,.8-.4-.1-1.5s-.9-1.8.2-2.9c3.8-4.3,4-4.6,2.1-4.7-1.6,0-1.6-.1.2-.9,2.8-1.2,13.3-1.2,14,0,.3.5.3,1-.2,1-.4,0-.9,1.2-.9,2.7-.3,4.8-.8,7.3-1.6,7.3-1.4,0-3.8,7.2-3.8,11.5,0,4.8,2.6,8.5,5.9,8.5,1.2,0,2,.4,1.6.9-.3.5-.1,1.2.5,1.6.5.3,1,0,1-.7.1-.9.4-.8,1.3.3.7.9,3.1,2,5.5,2.4,3.7.6,4.2.4,4.2-1.2,0-1.5.2-1.6,1-.3.6.9,1,1,1,.3,0-.6.6-1.8,1.4-2.5,1.8-1.9,3-9.8,1.4-9.8-.9,0-.9-.3,0-1.2.7-.7,1.2-2.2,1.2-3.4,0-3.3,1.1-5.5,2.4-4.8.6.3.2-.2-.8-1q-1.9-1.6.5-1.7c1.3-.1,4.8-.1,7.6.1,3.5.1,5.3-.2,5.3-1,0-.6.4-.8,1-.5,1.4.9,9-5.6,9-7.7,0-.9.8-1.7,1.7-1.7,20.9,0,30.3-.4,30.3-1.2,0-.6.5-.7,1.1-.3,2.2,1.3,8.4,1,9.6-.6.8-.9,1.2-1.1,1.3-.3,0,.8,1.1,1,3.2.7,1.8-.2,5.9-.6,9-.9,4.5-.4,6.4-1.2,9-3.5,1.9-1.8,2.7-3,1.8-3s-.6-.6.8-1.6c1.3-.9,3.2-1.4,4.2-1.1,1.1.3,2.1,0,2.4-.7s.7-.8,1.3-.1c.4.5,1.5,1.1,2.3,1.1.8.1,2.7.5,4.2.9,2.5.6,2.8.4,2.9-1.6q.2-2.1.6-.4c.4,1.9,1.2,2.1,10.3,2.3,5.5.1,10-.2,10-.7s.9-.7,1.9-.4c1.5.4,2.1-.2,2.6-2.6.3-1.7,1.1-3.4,1.6-3.7.6-.3.2-1.2-.8-2-1.7-1.2-1.7-1.3-.1-1.4,1.6,0,1.5-.4-.4-3.8-2.9-4.9-2.8-4.9-3.8-3.2-.8,1.3-1,1.3-1-.1,0-1.3-1-1.7-4.2-1.7-2.4-.1-4.6.5-5,1.1-.5.8-1.1.8-1.5.2-.9-1.2-4.5-1.6-3.8-.5.3.4-.4,1-1.5,1.3-1,.3-2.1,0-2.3-.7-.3-.6-.9,0-1.5,1.4-1,2.4-1.1,2.4-1.1.2-.1-2.2-2.5-3.1-3.6-1.2-.3.5-1.6,1-2.9,1-1.2,0-2.7.5-3.4,1.2s-1.2.8-1.2.2-1.2-1.1-2.8-1.2c-4.7-.2-6.7-.7-7.7-1.9-.6-.6-2.8-1.3-5-1.6-10.5-1.4-12.1-1.8-13.2-3.4-1.2-1.5-1.3-1.4-1.3.8-.1,2.2-.2,2.2-1.4-.7-1.1-2.4-2.2-3.3-4.7-3.7-1.9-.2-4,0-4.7.5-.8.7-1.2.7-1.2-.1s-.5-.9-1.9-.1c-1.1.5-3.1,1-4.5,1s-2.6.5-2.6,1.2c0,.9-.3.9-1.2,0-1.6-1.6-8-1.6-9.6,0-.8.8-1.2.8-1.2.1,0-1.5-9-1.5-9,0,0,.7-.7.4-1.4-.6-.9-1.2-1.6-1.4-2.1-.8-.3.6-1.9,1.1-3.5,1.1s-3.3.7-3.8,1.6c-.6,1.1-1.2,1.3-1.6.6s-1.5-.8-2.9-.3c-1.2.4-2.8.6-3.6.3-.7-.2-1.8.2-2.3.9-.7,1.1-1.1,1.1-1.5.1-.2-.6-1.7-1.2-3.3-1.2-1.5,0-3.3-.7-4-1.5-1-1.2-1.5-1.3-2.1-.4-.4.8-.9.4-1.4-1-.3-1.1-1.3-2.1-2.1-2.1s-1.4-.4-1.4-.9c0-.5-.9-1.2-2-1.6-1.1-.3-1.9-.9-1.9-1.3.3-2-.3-2.5-1.2-1.2-.8,1.1-1.2,1.2-1.6.2-.2-.6-2-1.2-3.8-1.2-1.9,0-3.7-.5-4.1-1.1-.4-.8-.9-.7-1.5.2-.5.9-1,.5-1.4-1.4-.4-1.5-1.5-3.2-2.4-3.7S92.14,0,88.24,0Zm-.6,2h6.3s3,4.9,3,4.9c3,4.8,3.1,4.8,7.5,4.4,2.4-.3,5.5-.3,6.9.1,2.2.5,2.6,1.2,2.6,4.1q0,3.5,4.5,3.5c3.8,0,4.5.3,4.5,2,0,1.8.7,2,8.4,2,5.2,0,9.7-.6,11.9-1.5,2.8-1.1,7.9-1.5,21.7-1.5,15.6,0,18-.2,18-1.6,0-1.2,1-1.4,4.7-1.2,4.6.3,4.8.4,4.8,3.3l.1,3,10.4.1c10.2.2,10.5.2,10.8,2.5q.3,2.4,10.5,1.8c5.6-.4,12.1-.4,14.3-.1,2.5.2,4.4,0,4.8-.7s4-1.1,8.9-1.1h8.2s-.1,4.7-.1,4.7c-.1,2.7-.2,5-.3,5.3-.2.8-17.1.8-17.1.1,0-.4-6.5-.8-14.4-.9l-14.4-.2.6,4.5c.2,2.5.1,4.5-.4,4.5s-15.1.9-32.4,2c-27.8,1.7-31.6,1.8-32.6.5-.6-.8-1.7-1.5-2.3-1.5-.8,0-.7.5.3,1.6,6.3,6.2-6.8,14.6-15.6,10-2.4-1.3-3-1.3-4.7.2-2.4,2.2-5.2,13.3-4.9,20,.3,7.6-.7,8.1-9.9,4.6-6.4-2.4-7.9-3.3-8.1-5.3-.2-1.2,1.7-6.9,4.2-12.6,5-11.1,5.2-12.1,3.2-14.8-1.3-1.6-2.3-1.7-12.2-.7-6,.5-11.4,1-12,1-.8,0-.9,1.1-.4,3.7.5,2.1.5,4.2,0,4.8-1.8,2.2,2.8,29.3,5.6,32.6,1.1,1.2,1.1,1.9.1,3.1-1.3,1.8-20.4,8.1-21.8,7.3-.4-.3-.8-1.3-.7-2.3,0-.9-1.1-6-2.5-11.3-1.4-5.2-2.8-12.9-3.2-17s-.9-8.1-1.3-8.9c-.3-.8-.6-3.3-.7-5.5,0-2.9-.4-4-1.5-4-.8,0-9.2.6-18.5,1.4-14.8,1.2-17.4,1.7-20,3.6-5.2,3.9-11.6,6.7-14,6.1-2.2-.6-2.3-.9-2.7-16.3-.2-9.5-.8-16.6-1.5-17.9-1-1.7-.9-2.5.3-4.2,1.3-1.9,2.4-2.1,8.5-2,4.2.1,7.4-.3,8.1-1,.9-.9,8.2-1.2,25.4-1.2,22.3,0,24.3.1,24.7,1.7.4,1.4.5,1.2.6-.5.1-1.8.7-2.2,3.7-2.2,3.6,0,3.6-.1,3-3.2-.5-2.7-.2-3.5,2.1-5.4,2.6-2.1,2.6-2.2,1.1-4.7-1-1.3-1.4-2.7-1.1-3.1.4-.3,3.5-.6,7-.6Z"/>
  <path class="cls-1" d="m88.04,4c-3.5,0-4.2.3-3.7,1.6.3.8.1,2.4-.4,3.5-1,1.8-.7,1.9,6,1.9h7s-2.2-3.5-2.2-3.5c-2-3.1-2.8-3.5-6.7-3.5Z"/>
  <path class="cls-1" d="m81.64,13.7c-.2.5-.7,2.5-1.1,4.5l-.7,3.8h10.6s10.5,0,10.5,0v-3.8c0-2.1-.3-4.2-.7-4.5-.9-1-18.1-.9-18.6,0Z"/>
  <path class="cls-1" d="m107.44,14c-3.8,0-4.5.3-4.5,2,0,1.1.3,2,.7,2.1,7,.6,8.3.4,8.3-1.9,0-1.9-.5-2.2-4.5-2.2Z"/>
  <path class="cls-1" d="m183.94,24.4c0,1.9.6,2.2,3.5,2.2,3.3,0,3.5-.2,3.5-3.2,0-2.3-.5-3.4-1.8-3.7-4.1-1.1-5.2-.1-5.2,4.7Z"/>
  <path class="cls-1" d="m174.84,21.6c-.5.3-.9,1.2-.9,2,0,2.2-7,1.9-7.1-.4-.1-1.6-.2-1.6-.6,0-.3,1.3-1.5,1.8-3.9,1.8s-3.4-.4-3.5-1.8c-.1-1.6-.2-1.6-.6,0-.6,2.3-7.3,2.6-7.3.3,0-.8-.6-1.5-1.4-1.5-.9,0-1.2.7-.9,2,.5,1.9,1.3,2,17.7,1.9,9.4-.1,15.3-.5,13.1-.8-3-.4-4-1-3.9-2.3.1-1-.2-1.5-.7-1.2Z"/>
  <path class="cls-1" d="m111.44,21.4c-5.5,0-7.9.1-5.3.3s7.1.2,10,0,.8-.3-4.7-.3Z"/>
  <path class="cls-1" d="m141.94,24.5c-1.1,1.3-.8,1.5,1.9,1.5,3,0,3.9-.9,2.4-2.3-1.1-1.1-3-.8-4.3.8Z"/>
  <path class="cls-1" d="m119.64,24.3c-.6.2-1.2,1.5-1.2,2.8,0,2.3-.3,2.4-8.4,2.6l-8.3.2.4-2.9c.3-1.7.1-3-.3-3s-.9,1.2-1.1,2.7c-.3,2.4-.8,2.8-4.1,3.1-3.5.3-3.7.1-3.7-2.5v-2.8s-9-.1-9-.1l-9-.1v4.8s0,4.9,0,4.9h31s31,0,31,0v3.5c0,3.1-.3,3.5-2.5,3.5-1.4,0-2.5.4-2.5,1,0,.5,2.3,1,5.1,1,4.5,0,5-.2,4.3-1.8-.4-.9-1-4.3-1.2-7.5-.2-3.1-.8-5.7-1.3-5.7-.4,0-.6-.7-.3-1.5.5-1.1-.1-1.5-1.9-1.5-1.9,0-2.6.6-2.9,2.2-.2,1.7-1.1,2.4-3.1,2.6-2.4.3-2.7,0-2.8-2.5q-.1-2.8-.8-.3c-.5,1.8-1.5,2.6-3.4,2.8-2.4.3-2.7,0-2.7-2.8,0-2.1-.4-3-1.3-2.7Zm-41.2,6.1l5.8-.4c3.3-.3,6.1-.2,6.3.2.7,1.2-.9,1.4-6.6.8l-5.5-.6Z"/>
  <path class="cls-1" d="m109.74,24.8c-.7.7-2.5,1.2-4,1.2s-2.8.5-2.8,1.1,1.4.9,3.2.7c3.2-.2,4.8-1.3,4.8-3.3,0-.5-.5-.4-1.2.3Z"/>
  <path class="cls-1" d="m15.84,24h-4.1s.3,13.7.3,13.7c.2,7.6,0,14.6-.4,15.5-.8,1.5-.5,1.6,2.5.8s36.7-4,57.8-5.4c4.7-.4,12.1-1.1,16.5-1.6s11-1.2,14.7-1.6c5.8-.5,6.8-.8,6.8-2.5s-.8-1.9-9.5-1.9c-5.5,0-9.5-.4-9.5-1,0-.6-.9-.6-2.5,0-1.5.6-16.2,1-33.8,1-29.9,0-36.3.3-37.4,1.3-.2.3,1.1.8,2.9,1.2s3.9,1.2,4.5,1.7c1,.8,1.3.6,1.3-.6,0-1.6.1-1.6,1.6-.1,1,.9,2,1.3,2.3.8,1-1.3,3.2-1.5,4.6-.3,1,.8,1.4.7,1.8-.2.4-1,.8-1,1.6.2.6.8,1.1,1,1.1.4,0-.5,1-1,2.2-1.1,1.3,0,3.4-.1,4.8-.2,2.1-.1,5.9.2,9.3.8,2.1.3-.7,2.1-3.3,2.1-1.6,0-3.1.3-3.3.7-.3.5-2.7.8-5.4.8-2.6-.1-5.2.4-5.6,1-.6.7-1,.7-1.3,0-.5-1.4-8.7-.6-9.6.9-.5.7-.8.5-.8-.7,0-.9-.5-1.7-1-1.7-.6,0-1,.3-1,.7,0,.5-1.1.8-2.4.8s-2.2-.4-1.8-.9c.3-.5-.5-.7-1.6-.4-1.3.4-2.2.1-2.3-.5-.3-3.4,0-8.9.5-9.5.3-.3.6.2.6,1.1,0,3.1,1.9,1.7,2.2-1.6.3-3.1.5-3.2,4.6-3.2,3.2,0,4.2-.4,4.2-1.6s-.8-1.4-3.1-1.1c-3.5.5-4.9-.8-4.9-5.1,0-2.5-.3-2.7-4.1-2.7Z"/>
  <path class="cls-1" d="m96.94,26c-1.7,0-3,.4-3,1,0,.5,1.3,1,3,1,1.6,0,3-.5,3-1,0-.6-1.4-1-3-1Z"/>
  <path class="cls-1" d="m176.94,29c-2.2,0-4,.4-4,1,0,.5,1.8,1,4,1s4-.5,4-1c0-.6-1.8-1-4-1Z"/>
  <path class="cls-1" d="m167.44,29c-1.9,0-3.5.4-3.5,1,0,.5,1.6,1,3.5,1s3.5-.5,3.5-1c0-.6-1.6-1-3.5-1Z"/>
  <path class="cls-1" d="m157.44,29c-1.9,0-3.5.4-3.5,1,0,.5,1.6,1,3.5,1s3.5-.5,3.5-1c0-.6-1.6-1-3.5-1Z"/>
  <path class="cls-1" d="m148.44,29c-1.9,0-3.5.4-3.5,1,0,.5,1.6,1,3.5,1s3.5-.5,3.5-1c0-.6-1.6-1-3.5-1Z"/>
  <path class="cls-1" d="m240.44,30c-1.6,0-2.5.6-2.5,1.5s.9,1.5,2.5,1.5,2.5-.6,2.5-1.5-.9-1.5-2.5-1.5Z"/>
  <path class="cls-1" d="m222.44,30.5c-6.3-.1-8.5.3-8.5,1.2,0,1,2.2,1.3,8.5,1.3s8.5-.3,8.5-1.3c0-.8-2.4-1.2-8.5-1.2Z"/>
  <path class="cls-1" d="m180.34,36.1c-10.5-.1-28.4,1.1-28.4,2s27.2,0,32-1.1c2.9-.7,2.3-.8-3.6-.9Z"/>
  <path class="cls-1" d="m77.94,36c-48.5,0-57,.2-57,1.4s5.2,1.4,32.5,1.5c20.2,0,32.6-.3,33-.9.8-1.3,5.2-1.3,6,0,.4.6,8.7,1,21.6,1,17.9,0,20.9-.2,20.9-1.5s-7-1.5-57-1.5Z"/>
  <path class="cls-1" d="m121.04,43c-7.4,0-10.1.3-10.1,1.2,0,1,2.6,1.3,9.7,1.3s9.8-.4,10-1.3c.4-.9-2-1.2-9.6-1.2Z"/>
  <path class="cls-1" d="m135.04,45c-2.5,0-3.7,2.2-2.6,4.7.6,1.5.8,1.6,1.2.3.3-.8,1.2-2.3,2.1-3.3,1.4-1.5,1.3-1.7-.7-1.7Z"/>
  <path class="cls-1" d="m137.34,47.4c-1.6,1.3-1.7,1.8-.6,3.6.7,1.1,1,2.5.7,3-1.1,1.8,4.2,1,6.6-.9,2.1-1.6,2.2-2.2,1.1-4.5-1.3-3-4.7-3.5-7.8-1.2Z"/>
</svg>