<?xml version="1.0" encoding="UTF-8"?>
<svg id="Layer_1" data-name="Layer 1" xmlns="http://www.w3.org/2000/svg" viewBox="0 0 268.33 85.67">
  <defs>
    <style>
      .cls-1 {
        fill: #fff;
      }
    </style>
  </defs>
  <path class="cls-1" d="m154.86,4.2c-.3.5-1.3.6-2.1.3-3.1-1.2-14.5,5.5-13.2,7.7.3.5,0,.8-.5.8-.6,0-1.1,1.1-1.1,2.5s-.6,2.5-1.3,2.6c-7.9.4-13.3,1.3-13.9,2.2-.5.7-.8.8-.8.1,0-.6-2.2-.9-5.5-.8s-5.5-.2-5.5-.8c0-1.2-7.9-.4-8.9.9-.3.4-1.2.8-1.9.9-2.8.2-3.3.4-2.7,1.4.3.5-.7,1.2-2.2,1.6-4,.8-14.3,5.7-14.3,6.7,0,.4-.4.5-1,.2-1.3-.8-5.2,1.4-4.5,2.6.7,1,.6,1.1-26,1-12.5,0-20.4.4-21.2,1.1-.9.7-1.3.7-1.3,0,0-.6-2.9-1-7.3-1-9.7,0-12.7.6-12.7,2.6,0,1.2-.2,1.4-.8.4-.6-.9-1.4-.4-2.9,1.6-1.8,2.5-1.9,3.4-1,9,.5,3.4,1.3,6.2,1.6,6.2s.5,1.9.5,4.2c-.1,2.5.5,5,1.3,6,1,1.1,1.1,1.8.4,2.3-.6.3-1.1,1.2-1.1,1.8,0,.7.4.6,1-.3.7-1.1,1,.5,1,5.1,0,8.3,1.7,10.2,9,10.2,4.2.1,5.5-.4,8-2.8,2.3-2.2,2.7-3.2,1.9-4.2-.8-.9-.8-1.3,0-1.3.6,0,1.1-.9,1.1-2,0-1.3.5-1.8,1.5-1.4.8.4,1.5.1,1.5-.6,0-.8,1.1-1,3.2-.7,3.5.6,9.5-2.1,9.1-4.1-.1-.5,1.8-1.5,4.2-2.2,4.2-1.2,10.4-6.9,9.8-9-.2-.9,9.5-3.6,11.1-3.2.5.2,1.3-.3,1.7-1,.6-.9.9-.9.9-.1,0,.6.7,1.9,1.6,2.7.8.9,1.1,1.6.5,1.6-2.4,0-.9,3.1,2.6,5.4,2.7,1.9,4,2.3,5,1.4.8-.7,1.3-.7,1.3,0,0,1.2,7.8-.9,8.8-2.4.4-.5,1.1-.9,1.7-1,2.6-.1,8.6-1.7,9-2.4.3-.5,1.5-.6,2.7-.2,1.4.3,1.9.1,1.4-.6-.4-.7.6-1.2,2.6-1.4,2.4-.2,3.4-.9,3.6-2.3.6-3.8,1.3-5,2-3.8.5.9,1.1.6,2-.7.8-1.3.9-2,.1-2-.5,0-.7-.5-.4-1,.3-.6,1.9-1,3.4-1s3.2-.5,3.9-1.2c.9-.9,1.2-.9,1.2.1,0,.7.5.9,1.1.6.6-.4,7.2-.7,14.7-.7,8.2.1,14.1-.3,14.9-1,.9-.7,1.3-.7,1.3.1,0,1.3,7.8,1.2,8.6-.1.3-.5,1-.5,1.6-.2,1.5.9,17,1.6,18.8.8.8-.4,1.9-.8,2.5-.9,5-.7,8.7-2,9.5-3.4.5-.9,1-1.1,1-.4,0,1.7,20,1.7,20,0,0-.8.3-.8.9.1.5.9,2.7,1.3,6.2,1.2,3,0,6.9.2,8.8.6,2.7.5,3.7.3,4.8-1.2.7-1,1.3-1.2,1.3-.6,0,1.3,8.2,1.7,9.4.4.4-.4,1.1-.7,1.4-.8,2-.2,4.1-1.7,3.6-2.5-.5-.9,3.6-1.3,8.5-.9,1.3.1,2.1-.3,1.7-.8-.3-.5,0-1.2.8-1.5,2.2-.9,2.6-5.7.6-6.9-1-.7-1.6-1.7-1.3-2.3.2-.7-.4-1.6-1.4-1.9-1-.4-1.9-.2-2.2.5-.2.8-.5.8-1,0-.4-.6-3.1-1.2-6.1-1.5-3-.2-6.8-.9-8.4-1.5-3.4-1.4-5.6-.8-5.6,1.4,0,1,.9,1.5,2.6,1.5,1.6,0,2.8.7,3.1,1.8.4,1.5,1.4,1.7,7.7,1.5,4.1-.1,8-.3,8.7-.5.9-.2,1.5.9,1.7,3.2l.3,3.6h-6.8c-6.3-.1-6.8.1-7.1,2.2-.4,2.5.9,2.4-35.3,2.2-16.2-.1-21.4.2-24.2,1.3-1.9.9-3.8,1.3-4.1,1-.2-.3-1.1-.1-1.8.3-1.8,1.2-9.7,1.3-10.4.3-.3-.5-5.1-.7-10.7-.4-29.8,1.4-32.8,1.4-32.2.5.3-.6,1.9-1,3.6-1,2.8,0,2.9-.1,2.9-5v-4.9s6.7-.4,6.7-.4l6.8-.3-7.8-.2-7.7-.2v4.2c0,3.8-.4,4.5-3.3,6.3-2.2,1.3-5.8,2.1-11.2,2.5l-8,.5-.6,3.7c-1.1,7.1-5.8,10.8-13.9,10.8-1.5,0-3,.4-3.5.8-1.5,1.3-12.9,5.2-15.2,5.2-1,0-2.4-.5-3.1-1.2-1.7-1.7-1.5-6.3.4-7.9,1.5-1.2,1.4-1.4-.7-2-4.7-1.4-13.6-1-14.9.6-.7.8-2.1,1.5-3.1,1.5-1.1,0-1.9.4-1.9,1,0,.5-1.1,1-2.4,1-2,0-2.5.6-2.8,3.2s-.9,3.3-4.2,4.5c-2.1.7-5.8,2.9-8.2,4.8l-4.3,3.6-.7-2.6c-.4-1.8-.1-3.2,1.2-4.7q1.9-2.1-.1-1.4c-1.1.5-2.7,1-3.5,1.3-1.8.5-6.4,7.2-6.5,9.3,0,.8-.6,1.4-1.3,1.3-.6-.2-1.2.3-1.3,1,0,.6-.2,2.5-.2,4.2-.2,2.8-.5,3-4.7,3.3-6.9.4-7.7-.7-8.4-11.8-.5-8.4-2.1-17.6-4.2-24.8-1.2-4.1,3.5-5,28.1-5.3,12.1-.1,25.6.1,30,.5,7.9.8,8.1.8,15.4-2.8,4-2,8-3.6,8.8-3.6.7,0,2.3-.9,3.5-2s3.1-2,4.3-2,3-.9,4.1-2.1c1.2-1.3,2.7-1.9,4.1-1.6,1.5.3,2.3-.1,2.3-.9,0-.9,1.2-1.4,3.5-1.4,1.9,0,3.5.4,3.5,1s3.7,1,9,1,9-.4,9-1,1.8-1,4-1,4,.4,4,1c0,1.3,11,1.3,13,0,1.2-.8,1-1-1-1-5.5-.1-6.8-1-7.3-5.3-.5-4.9,0-5.6,3.6-5.9,1.4-.1,2.9-.8,3.1-1.5.6-1.6,11.2-1.8,12.1-.3.3.5,2.1,1,3.9,1,1.9,0,4.8.3,6.5.6,3,.6,3.1.8,3.1,6v5.4h-7s-7,0-7,0v-4.8s0-4.7,0-4.7l-6.9-.1c-6.5-.1-6.9,0-5.8,1.7.9,1.5.9,2.4,0,3.9-1.7,2.6-.1,3.4,4.2,2,3.9-1.3,7.5-.6,7.5,1.6,0,.8.6,1.5,1.2,1.6.7.1,18.5.2,39.5.3,33.4,0,38.3-.2,38.3-1.5,0-3.2-1.7-4.3-5.1-3.6-1.9.4-6.1,1-9.4,1.3s-6.2,1-6.4,1.5c-.2.6-.7.5-1.1-.2-.9-1.4-7.9-1.8-9.8-.6-.7.4-1.2.4-1.2-.1,0-.4-2-.8-4.5-.8-3.3,0-4.5.4-4.5,1.5,0,1.3-.1,1.3-1,0-.9-1.4-2.6-1.6-13.8-1.9-1.8-.1-2.2-.7-2.2-3.1,0-1.7-.4-3-1-3-.5,0-.7-.6-.4-1.3.3-.8-.2-2-1.1-2.7-.8-.7-1.5-.9-1.5-.4,0,.4-.6,0-1.3-1-.9-1.3-3.1-1.9-7.3-2.2-3.2-.2-7.3-.8-8.9-1.2-1.7-.5-3.3-.5-3.6,0Z"/>
  <path class="cls-1" d="m164.46,12c-1.1,0-1.5,1.2-1.5,4.5s.4,4.5,1.5,4.5,1.5-1.2,1.5-4.5-.4-4.5-1.5-4.5Z"/>
  <path class="cls-1" d="m241.96,25.4c-4.7.1-6,.4-6,1.6s.9,1.5,3.7,1.3c5.7-.6,8.3-1.2,8.3-2.2,0-.4-2.7-.7-6-.7Z"/>
  <path class="cls-1" d="m209.16,25.2c-11.9.1-20.2.4-18.5.6,1.8.2,3.3.7,3.3,1.3,0,.5,7.7.9,18.5.9,15.6,0,18.5-.2,18.5-1.5,0-1.2-3.3-1.4-21.8-1.3Z"/>
  <path class="cls-1" d="m174.96,25.4c-5.2,0-7.4.1-4.8.3,2.7.2,6.9.2,9.5,0,2.7-.2.5-.3-4.7-.3Z"/>
  <path class="cls-1" d="m182.66,28.2c-.4,1-.8.9-1.6-.2-.9-1.3-1.1-1.2-1.2.5,0,1.1-.3,1.4-.6.7-.4-1-.8-1-1.9-.1s-1.4.8-1.4-.2c0-1.1-.2-1.1-1,.1-.8,1.3-1,1.2-1-.3,0-.9-.5-1.7-1-1.7-1.2,0-1.3,6.7-.1,7.4.5.3.8-.2.7-1.2-.1-1.4.9-1.8,5.6-2,5-.3,5.8-.6,5.8-2.2,0-2.2-1.6-2.7-2.3-.8Z"/>
  <path class="cls-1" d="m163.96,27c-1.3,0-1.3,4,0,6,.7,1.1,1,.5,1-2.3,0-2-.5-3.7-1-3.7Z"/>
  <path class="cls-1" d="m97.16,28.2c-.9.9-3.5,2.5-5.7,3.7-3.8,2.1-3.7,2.2,1.1.7,1.8-.5,2.2-.2,2.8,2.5.7,3.7.3,4.5-2.6,5.2-1.3.3-4.8,1.4-7.8,2.6-7.2,2.8-7.8,2.7-8.6-1.3-.7-4.1-3.4-3.9-3.4.3,0,6.1,3,6.4,16.6,1.6,11.4-4,12.8-4.2,11.9-1.6-.3,1.1.3,2.8,1.5,4.2q2,2.4,3.5.4c1-1.2,1.4-3,1-4.5-.5-2.3-.4-2.4.9-.7,1.3,1.6,1.4,1.6,1.9-.4s.3-2.1-3.4-1.6c-7.1.9-7.9.3-7.9-6.6,0-5.6-.1-5.9-1.8-4.5Z"/>
  <path class="cls-1" d="m240.46,30.5c-3.2,0-4.5.4-4.5,1.3s.6,1.2,1.6.8c.9-.3,2.9-.6,4.5-.6s2.9-.3,2.9-.8c0-.4-2-.7-4.5-.7Z"/>
  <path class="cls-1" d="m212.46,30.5c-10.2,0-18.4.4-18.2.8.4,1.2,36.7,1.4,36.7.2,0-.6-6.8-1-18.5-1Z"/>
  <path class="cls-1" d="m48.06,39.7c-2,.4-7.3.6-11.9.5-7.2-.2-8.2,0-8.3,1.5-.1,1.7-.2,1.7-.6,0-.3-1.3-1.5-1.7-5.4-1.7h-4.9s0,4.2,0,4.2c0,3.5.2,3.9,1.2,2.6,1.1-1.4,3.5-1.6,17-1.5l15.6.2.4-3.3q.4-3.2-3.1-2.5Z"/>
  <path class="cls-1" d="m61.06,40h-4c-2.3,0-4.1.2-4.1.4s-.3,1.1-.6,2c-.5,1.2,0,1.6,2,1.6s2.6.5,2.6,2.1c0,1.4.5,1.9,1.7,1.7,1.3-.2,1.9-1.4,2.1-4.1l.3-3.7Z"/>
  <path class="cls-1" d="m13.86,40c-.8,0-.9,1.2-.4,3.7.4,2.1,1.5,10.3,2.5,18.2,1.1,7.9,2.1,14.6,2.4,14.8,1.3,1.3,1.8-5.4.7-10.1-.9-4.3-4.1-24.5-4.1-26.1,0-.3-.5-.5-1.1-.5Z"/>
  <path class="cls-1" d="m9.76,41.5c-1,1.7-.1,11.8,1.1,12.3.4.1.6,1.7.5,3.5-.2,1.7.3,4.4,1.1,5.9.7,1.6.9,2.8.5,2.8-.5,0-.9,2-.8,4.5,0,3.7.4,4.5,2,4.5s1.8-.5,1.4-3.3c-.3-1.7-1-7.3-1.6-12.2-.6-5-1.6-11.4-2.2-14.3-.9-4-1.4-4.9-2-3.7Z"/>
  <path class="cls-1" d="m95.96,44c-2.4,1.5.1,4.4,4.1,4.8q3.4.3,1.1-1.3c-1.2-.9-2.2-2.3-2.2-3.1,0-1.6-.9-1.8-3-.4Z"/>
  <path class="cls-1" d="m84.26,49.2c-7.2,2.7-9.3,5.1-5.7,6.5,2.6,1,15.4-3.8,15.4-5.7,0-.9-.3-2-.7-2.3-1.1-1.1-2.8-.8-9,1.5Z"/>
  <path class="cls-1" d="m44.06,49.3c-1.8.2-2.5.9-2.7,2.9-.2,2.4.1,2.7,2.5,2.5,2.1-.2,2.7-.6,2.3-2-.2-.9-.8-1.7-1.2-1.7-.5,0-1.1.8-1.3,1.7-.4,1.4-.5,1.3-.6-.4-.1-1.3.6-2.4,1.6-2.7,1.1-.3.9-.4-.6-.3Z"/>
  <path class="cls-1" d="m22.26,52.1c-1.7-.1-3.5.3-3.8.9-.3.5-.2,1,.3,1s1,1.9,1.1,4.2c.2,6,.6,7.7,1.8,8.9.8.8,1.4.6,2.2-.9.6-1,.8-2.2.4-2.5-1.2-1.3,5.4-5.6,9.5-6.3,7.7-1.2,5.4-2.3-4-1.9-6.1.3-8.3.1-6.3-.4,2.9-.8,2.9-.9.5-1.1-2.3-.1-2.3-.2-.5-1,1.7-.7,1.5-.9-1.2-.9Z"/>
</svg>