<?xml version="1.0" encoding="UTF-8"?>
<svg id="a" data-name="Layer 1" xmlns="http://www.w3.org/2000/svg" viewBox="0 0 264.29 56.42">
  <defs>
    <style>
      .b {
        fill: #fff;
      }
    </style>
  </defs>
  <g>
    <path class="b" d="m73.26,4.82c-.6,2.9-.5,4,.5,4.7,1.1.7,1.1.9.1.9-.7,0-2.4,1.1-3.7,2.5-1.4,1.3-2.5,2-2.5,1.6,0-.5-1.1-.6-2.5-.3-1.4.2-3.1,0-3.8-.6-1.9-1.6-12.6-1-13.7.8-.5.8-1,1-1,.3,0-1.1-8-.6-9,.6-.3.3-2.7.7-5.5.9-2.7.1-5.3.8-5.7,1.5-.6.9-.8.9-.8-.1,0-.8-.8-1-2.3-.7-1.2.3-3.3.7-4.7.9-1.4.3-2.7.5-3,.6-.5.2-1.9.4-7,.9-2.3.2-2.4.3-.5,1.1s1.9.9-.3.9c-1.2.1-2.5.1-3,.2-1.8.1-2.7,4-2.7,11.6,0,4.9.4,8.3,1,8.3.5,0,.4.4-.4.9s-1.6,1.5-1.7,2.3c-.1.7-.5,2.5-.9,3.9-.9,3.7,2.2,4.9,3.5,1.3,3.1-8.1,3.6-16.1,1.5-23.1-.8-2.7-3.3-2.1,28.4-6.6,24.4-3.5,24.5-3.6,27.2-1.6,3.3,2.3,3,2.3,8.5-.2,4.1-1.8,6.3-2.4,11.2-2.8,1-.1,1-.4-.2-1.6-1.6-1.7-3-2-2.1-.6.3.5,0,1.3-.6,1.7-.9.5-1-.3-.6-3.2.4-2.1.7-5.4.7-7.2,0-2.2.5-3.2,1.6-3.2.9,0,1.4.8,1.3,1.7-.1,1-.1,3.7,0,6,.1,4.1.2,4.3,3.1,4.3,4.1,0,10.8-6.4,9-8.5-1-1.2-.9-1.5.2-1.5.8,0,1.8.3,2.1.6.4.4,35.5.8,78.1.9,63.3.1,77.6-.1,78-1.2.7-1.7,3.1-1.7,4.6.2.7.8,2.1,1.5,3.1,1.5,1.6,0,1.9.8,1.9,4.3,0,2.4-.5,4.8-1.2,5.5-1.4,1.4-12.4,1.6-13.2.3-.7-1.1-34.3-.7-64.1.8-33.7,1.6-73.8,4.2-74.7,4.7-.4.3-.8,1.6-.8,3,0,5.6-5.5,10-11.4,9.1-1.8-.3-3.7.1-4.6.8-1.4,1.3-12.9,5.5-14.9,5.5-1.8,0-4.1-3.1-4.1-5.4,0-1.7,1-2.7,3.7-3.9,6.7-2.8-1.3-.8-9.2,2.3-3.9,1.5-16.5,5.8-28,9.5C.86,53.82.36,53.92,2.36,55.52c1.4,1.2,1.7,1.2,2.1,0,.4-1.1.6-1.1,1.2,0,.7,1,1.6,1,4.9,0,2.3-.6,4.1-1.6,4.1-2.1,0-.5,2.5-1.2,5.5-1.5,4.1-.6,5.5-1.1,5.5-2.4,0-1.2.2-1.3.8-.3.9,1.3,2.8.9,8.7-1.7,1.1-.5,4.1-1.5,6.7-2.1,2.7-.7,4.8-1.6,4.8-2.1,0-.5.7-.5,1.7-.2,1.1.4,1.4.3.9-.5s.5-1.2,3.3-1.2c2.2,0,4.2-.4,4.6-1,.3-.5,1.2-.7,2-.3.8.3,1.5.1,1.5-.4,0-.5.6-1,1.2-1.1,3.4-.3,5.2-1,5.6-2.2.3-.7,1,.1,1.8,1.9q1.3,3.1,8.9,3.1c5.8,0,7.9-.4,9.3-1.8,1-.9,3.7-1.9,6.2-2.1,2.5-.1,5-.7,5.6-1.2s1.3-.6,1.7-.3c.8.8,5.8-2.7,5.2-3.7-.3-.4.4-1.3,1.5-1.9s2-2.1,2-3.4c0-1.8.6-2.3,2.7-2.5,6-.4,7.5-.8,8.4-2.2.7-1.1.9-1.1.9.4,0,1,.5,1.5,1,1.2.6-.4,4.9-.7,9.5-.6,4.7,0,8.7-.5,9-1,.4-.5,1.1-.6,1.8-.2,2,1.2,8.2.8,9.4-.7,1.1-1.3,1.2-1.3,1.3,0,0,1.2,1,1.4,4.6,1.1,3.2-.2,4.2-.6,3.3-1.2-1.2-.8,25.2-1.4,37.7-.9,2.3.1,4.5-.3,4.8-.8s2.7-.8,5.2-.6c2.6.2,5.3-.1,6.1-.7.9-.8,1.3-.8,1.3,0,0,.6,1.8,1.1,4.5,1.1s4.5-.4,4.5-1.2c0-.9.3-.9,1.2,0,1.6,1.6,9.8,1.6,9.8-.1,0-.9.2-.9.9.1,1.2,1.9,20.1,2.8,20.1,1,0-1,.2-1,.9.1.7,1,1.6.4,3.7-2.8,2.3-3.5,2.5-4.4,1.3-5.2s-1.2-1,0-1.8c2.4-1.5-2.3-7.9-6.2-8.6-5.4-.8-19.1.1-19.5,1.3-.2.8-.8.7-1.9-.3-.8-.8-1.9-1.3-2.4-.9-.5.3-4.9.5-9.7.4-35.4-.9-102.2-.8-102.2.1,0,.6-.6.7-1.3.2-2-1.3-7.7-1.1-8.8.4-1,1.1-1.3,1.1-2.3-.1-.8-1.1-2.1-1.3-5.3-.7-2.3.4-4.8.4-5.5,0-2.8-1.8-6.1-.9-9.3,2.7l-3.3,3.6-1.1-3.5c-.8-2.4-1.9-3.7-3.4-3.9-4.7-.8-7.1.6-8.1,4.6Z"/>
    <path class="b" d="m209.96,7.92c-.2.6,8,1,23.5.9,26.8-.1,25.5-.1,24.7-1.4-.8-1.4-47.7-.9-48.2.5Z"/>
    <path class="b" d="m130.66,12.02c0,4,.4,5.5,1.2,5.2,1.7-.6,2.2-6.2.8-8.8-1.7-3.1-2-2.5-2,3.6Z"/>
    <path class="b" d="m123.86,7.02c-3.2.9-2.7,2.4.8,2.4,2.9,0,4.2,1.4,1.9,2.2-.5.2-1.1,1.2-1.3,2.1-.1,1-.9,2.3-1.7,2.8-1,.6-.5.9,1.8.9h3.3s0-5.5,0-5.5c0-5.7-.3-6.1-4.8-4.9Z"/>
    <path class="b" d="m95.06,8.52c-.3.5.3.9,1.3.9,2.2,0,4.3,1.8,4.3,3.7,0,.7-1.1,2-2.5,2.9-2,1.3-2.8,1.4-4,.4s-1.5-1-1.5.1c.1,3.5,1.5,4.1,8.5,3.2,6.4-.7,6.8-.9,5.2-2.5-.9-.9-1.7-2.6-1.7-3.7s-.8-2.5-1.8-3c-1.6-1-1.5-1.1.3-1.2,1.1-.1,2.4-.1,3,.1.7.1.7-.2,0-.8-.6-.6-1.9-1.2-3-1.4-2.8-.5-7.4.2-8.1,1.3Z"/>
    <path class="b" d="m198.66,11.42c0,2.5.4,3,2.5,3,2.7,0,3.5-2.6,1.3-4.8s-3.8-1.3-3.8,1.8Z"/>
    <path class="b" d="m247.16,11.42c-4.3,0-7.5.4-7.5,1,0,.6,3.2,1,7.5,1s7.5-.4,7.5-1c0-.6-3.2-1-7.5-1Z"/>
    <path class="b" d="m219.56,11.42c-9.3,0-14.9.4-14.9,1,0,.6,5.9,1,15.6,1s15.3-.3,14.9-1c-.4-.6-6.7-1-15.6-1Z"/>
    <path class="b" d="m94.96,11.62c-2.5.5-2.8,2.8-.4,2.8,1.2,0,2.1-.6,2.1-1.6s-.7-1.4-1.7-1.2Z"/>
    <path class="b" d="m96.76,22.32c-1.9,1.2-2.3,7.1-.6,7.7,3.1,1.2,8.1-3.9,6.9-7-.7-1.8-4.1-2.1-6.3-.7Z"/>
    <path class="b" d="m91.16,23.42c-.7,1.2.3,5,1.3,5,.4,0,.7-1.4.8-3,.1-3-.9-3.9-2.1-2Z"/>
    <path class="b" d="m10.66,25.02c-1.9.3-3.6.7-3.6.8-.1,0,.1,2.3.5,5.1.6,4.7.3,9.1-1.3,16-.6,2.9-.5,2.8,1-.5,1.1-2.2,1.7-6.4,1.8-11.3.1-7.3.3-8,2.6-9.3q2.5-1.5-1-.8Z"/>
    <path class="b" d="m84.36,27.72c-2.5.1-4.1.5-3.6.8.6.3-.8,1.3-3.1,2.2-4.3,1.6-4.9,2.7-2.5,4.7,1.1.9,2.5.8,6.7-.5,6.1-2,8.3-3.7,7.5-5.8-.4-1.1-1.9-1.5-5-1.4Z"/>
  </g>
  <rect class="b" x="109.07" y="11.08" width="9.67" height="3.83" rx="1.92" ry="1.92"/>
</svg>